<svg xmlns="http://www.w3.org/2000/svg" width="44" height="44" viewBox="0 0 44 44" fill="none">
    <g clip-path="url(#clip0_2710_22833)">
        <path d="M43.578 19.998C43.1563 12.6317 40.8427 7.36633 37.473 4.422C33.8962 1.26317 27.1587 0 22.1042 0C16.8425 0 10.3158 1.26317 6.73717 4.422C3.37117 7.36817 0.843008 12.8407 0.421341 19.998C-0.00032562 26.7355 1.47367 34.3163 5.26317 38.5257C8.84184 42.735 16.2118 44 21.8952 44C27.5785 44 34.9485 42.7368 38.5272 38.5257C42.5238 34.3163 44.0015 26.9463 43.578 19.998ZM20.8447 2.10283H23.3692V18.1078H20.8447V2.10283ZM3.37117 26.7392C3.15851 24.002 2.31701 14.1075 6.31734 8.42417C8.00217 5.89417 10.3177 4.213 12.844 3.36967C16.2137 2.1065 20.423 2.1065 20.423 2.1065C18.7382 6.105 15.5812 14.7382 14.9505 16.6338C14.1072 18.9493 13.4765 20.2125 12.8422 24.4218C12.4223 27.7915 11.5808 36.4228 11.5808 40.2105C6.73901 37.8968 4.00367 33.6838 3.37117 26.7355M32.424 40.4232C29.2652 41.8953 25.2648 42.1062 22.106 42.1062C18.949 42.1062 14.9505 41.6845 11.7917 40.4232C12.844 37.477 17.8967 25.2633 20.6338 20.4215H23.5818C26.319 25.267 31.3698 37.686 32.424 40.4232ZM40.8427 26.7355C40.212 33.6838 37.4748 37.8968 32.8438 40.2105C32.633 36.4228 32.0023 27.7915 31.5807 24.4218C30.9482 20.2125 30.3193 18.9493 29.476 16.6338C28.8435 14.7382 25.4757 6.10683 24.0017 2.1065C24.0017 2.1065 28.0002 2.1065 31.5807 3.3715C34.107 4.21117 36.4243 5.896 38.1073 8.42417C41.686 14.1075 41.0535 24.002 40.8445 26.7392" fill="#7B7B7B"/>
    </g>
    <defs>
        <clipPath id="clip0_2710_22833">
            <rect width="44" height="44" fill="white"/>
        </clipPath>
    </defs>
</svg>