<svg xmlns="http://www.w3.org/2000/svg" width="44" height="44" viewBox="0 0 44 44" fill="none">
    <g clip-path="url(#clip0_2710_17924)">
        <path d="M24.8215 9.90917C24.9265 9.90917 25.0273 9.86744 25.1015 9.79318C25.1758 9.71892 25.2175 9.61819 25.2175 9.51317C25.2175 9.40814 25.1758 9.30742 25.1015 9.23315C25.0273 9.15889 24.9265 9.11717 24.8215 9.11717C24.7165 9.11717 24.6158 9.15889 24.5415 9.23315C24.4672 9.30742 24.4255 9.40814 24.4255 9.51317C24.4255 9.61819 24.4672 9.71892 24.5415 9.79318C24.6158 9.86744 24.7165 9.90917 24.8215 9.90917ZM7.76233 12.7985L6.56333 15.18L4.114 13.8967L3.608 14.9068C3.66273 14.8944 3.7187 14.8882 3.77483 14.8885C3.8775 14.8885 3.97833 14.9087 4.05717 14.9435L6.7925 16.3772L8.41867 13.1432L7.76233 12.7985ZM36.586 13.5923L37.1543 13.2807L38.0893 15.0773L38.731 14.729L37.796 12.9342L38.3405 12.6408L39.6843 15.224L40.326 14.8757L38.467 11.3043C38.4059 11.4493 38.2999 11.5708 38.1645 11.6508L35.5043 13.0937L37.3505 16.6412L37.9922 16.2928L36.586 13.5923ZM23.2265 9.90917C23.3315 9.90917 23.4323 9.86744 23.5065 9.79318C23.5808 9.71892 23.6225 9.61819 23.6225 9.51317C23.6225 9.40814 23.5808 9.30742 23.5065 9.23315C23.4323 9.15889 23.3315 9.11717 23.2265 9.11717C23.1215 9.11717 23.0208 9.15889 22.9465 9.23315C22.8722 9.30742 22.8305 9.40814 22.8305 9.51317C22.8305 9.61819 22.8722 9.71892 22.9465 9.79318C23.0208 9.86744 23.1215 9.90917 23.2265 9.90917ZM32.4995 12.694L32.5032 12.6995C33.9618 14.3442 35.0132 16.3088 35.5725 18.4347C36.1318 20.5606 36.1833 22.7883 35.723 24.9378C35.2626 27.0873 34.3032 29.0985 32.9222 30.8088C31.5412 32.5192 29.7774 33.8808 27.7732 34.7838L27.7237 34.8077L27.7273 34.8058L27.7732 34.7838C28.2569 34.5545 28.6482 34.1673 28.8826 33.6861C29.1171 33.2048 29.1808 32.6581 29.0632 32.1358C28.9457 31.6135 28.6539 31.1468 28.2358 30.8124C27.8178 30.478 27.2983 30.2958 26.763 30.2958L24.2788 30.2922C24.2363 30.2969 24.1933 30.2925 24.1525 30.2795C24.1118 30.2664 24.0743 30.2449 24.0424 30.2164C24.0106 30.1878 23.9851 30.1529 23.9676 30.1138C23.9502 30.0747 23.9411 30.0324 23.9411 29.9897C23.9411 29.9469 23.9502 29.9046 23.9676 29.8655C23.9851 29.8265 24.0106 29.7915 24.0424 29.763C24.0743 29.7344 24.1118 29.7129 24.1525 29.6999C24.1933 29.6868 24.2363 29.6825 24.2788 29.6872H28.4735C29.4216 29.6872 30.331 29.3105 31.0014 28.6401C31.6719 27.9696 32.0485 27.0603 32.0485 26.1122C32.0485 25.164 31.6719 24.2547 31.0014 23.5843C30.331 22.9138 29.4216 22.5372 28.4735 22.5372H24.4237C24.3818 22.5404 24.3398 22.535 24.3002 22.5212C24.2605 22.5074 24.2242 22.4856 24.1934 22.4571C24.1626 22.4286 24.138 22.3941 24.1212 22.3556C24.1044 22.3172 24.0957 22.2757 24.0957 22.2337C24.0957 22.1918 24.1044 22.1503 24.1212 22.1119C24.138 22.0734 24.1626 22.0389 24.1934 22.0104C24.2242 21.9819 24.2605 21.9601 24.3002 21.9463C24.3398 21.9325 24.3818 21.9271 24.4237 21.9303L27.5147 21.9267C29.0815 21.9267 30.5841 21.3044 31.6922 20.1967C32.8003 19.0889 33.423 17.5865 33.4235 16.0197C33.4264 14.8647 33.0884 13.7346 32.4518 12.771L32.4335 12.749C32.4279 12.7417 32.4253 12.7325 32.4262 12.7233C32.4286 12.6977 32.4433 12.6836 32.4702 12.6812C32.4824 12.6787 32.4922 12.683 32.4995 12.694ZM26.5265 35.277C25.0742 35.7705 23.5504 36.0207 22.0165 36.0177C19.9819 36.0209 17.9713 35.5784 16.126 34.7215V23.6738H20.0952C19.9445 23.2216 19.8684 22.748 19.8697 22.2713C19.8697 21.5325 20.0512 20.8358 20.3683 20.2217H16.126V9.2785C17.9719 8.42129 19.9831 7.97887 22.0183 7.98233C24.3787 7.97814 26.7015 8.57365 28.7687 9.713C29.0547 9.8945 29.2453 10.2135 29.2453 10.5765C29.2456 10.7108 29.2193 10.8437 29.1681 10.9678C29.1169 11.092 29.0417 11.2047 28.9469 11.2998C28.852 11.3948 28.7394 11.4702 28.6154 11.5216C28.4914 11.573 28.3584 11.5995 28.2242 11.5995H26.4788C25.9893 11.5995 25.7198 11.7462 25.5512 11.8928C25.0635 12.3145 25.2303 12.8132 24.2312 12.8132H21.4793C21.8515 13.673 22.7077 14.2927 22.9185 14.4375H26.301C26.3664 14.4377 26.4302 14.4574 26.4844 14.4939C26.5385 14.5305 26.5806 14.5823 26.6053 14.6428C26.6298 14.6988 26.6362 14.7609 26.6237 14.8207C26.61 14.8964 26.5702 14.965 26.5113 15.0146C26.4524 15.0641 26.378 15.0915 26.301 15.092H22.858C22.168 15.4748 21.6524 16.1093 21.4188 16.863H27.6338C27.8286 16.863 28.0153 16.9404 28.153 17.0781C28.2907 17.2158 28.3681 17.4025 28.3681 17.5972C28.3681 17.792 28.2907 17.9787 28.153 18.1164C28.0153 18.2541 27.8286 18.3315 27.6338 18.3315H24.486C23.444 18.3315 22.4447 18.7454 21.7079 19.4822C20.9711 20.219 20.5572 21.2183 20.5572 22.2603C20.5572 23.3023 20.9711 24.3016 21.7079 25.0384C22.4447 25.7752 23.444 26.1892 24.486 26.1892H28.4112C28.5798 26.1892 28.7155 26.3303 28.7155 26.4972C28.7155 26.537 28.7076 26.5764 28.6923 26.6131C28.6769 26.6498 28.6545 26.6831 28.6261 26.7111C28.5978 26.739 28.5643 26.7611 28.5274 26.776C28.4904 26.7909 28.451 26.7983 28.4112 26.7978H24.3907C24.0127 26.7978 23.6384 26.8723 23.2892 27.0169C22.94 27.1616 22.6227 27.3736 22.3554 27.6409C22.0881 27.9082 21.8761 28.2255 21.7314 28.5747C21.5868 28.9239 21.5123 29.2982 21.5123 29.6762C21.5123 30.0542 21.5868 30.4284 21.7314 30.7777C21.8761 31.1269 22.0881 31.4442 22.3554 31.7115C22.6227 31.9787 22.94 32.1908 23.2892 32.3354C23.6384 32.4801 24.0127 32.5545 24.3907 32.5545L25.9087 32.5582C26.6768 32.5582 27.3093 33.2017 27.3093 33.9643C27.3093 34.5877 26.9335 35.0258 26.5265 35.277ZM12.6738 20.2217H8.1125C8.53862 16.877 10.1584 13.7989 12.6738 11.5537V20.2217ZM12.6738 32.4482C10.131 30.1784 8.50446 27.0582 8.09967 23.6738H12.6738V32.4482ZM22.0183 7.22333C20.0641 7.20157 18.125 7.56767 16.3132 8.30046C14.5014 9.03325 12.853 10.1182 11.4634 11.4924C10.0738 12.8666 8.97061 14.5028 8.21768 16.3063C7.46476 18.1098 7.07708 20.0447 7.07708 21.9991C7.07708 23.9534 7.46476 25.8884 8.21768 27.6919C8.97061 29.4954 10.0738 31.1316 11.4634 32.5058C12.853 33.88 14.5014 34.9649 16.3132 35.6977C18.125 36.4305 20.0641 36.7966 22.0183 36.7748C25.9373 36.7748 29.6959 35.218 32.467 32.4468C35.2382 29.6757 36.795 25.9172 36.795 21.9982C36.795 18.0792 35.2382 14.3206 32.467 11.5495C29.6959 8.77832 25.9373 7.2215 22.0183 7.2215M21.4665 10.9047H24.9535C25.0235 10.9047 25.0907 10.8769 25.1402 10.8273C25.1897 10.7778 25.2175 10.7107 25.2175 10.6407C25.217 10.5708 25.1891 10.5039 25.1396 10.4545C25.0902 10.4051 25.0234 10.3771 24.9535 10.3767H21.4665C21.3966 10.3771 21.3298 10.4051 21.2804 10.4545C21.2309 10.5039 21.203 10.5708 21.2025 10.6407C21.2025 10.7855 21.3217 10.9047 21.4665 10.9047ZM21.5985 9.9055C21.7035 9.9055 21.8043 9.86378 21.8785 9.78951C21.9528 9.71525 21.9945 9.61453 21.9945 9.5095C21.9945 9.40447 21.9528 9.30375 21.8785 9.22949C21.8043 9.15522 21.7035 9.1135 21.5985 9.1135C21.4935 9.1135 21.3928 9.15522 21.3185 9.22949C21.2442 9.30375 21.2025 9.40447 21.2025 9.5095C21.2025 9.61453 21.2442 9.71525 21.3185 9.78951C21.3928 9.86378 21.4935 9.9055 21.5985 9.9055ZM22.1448 14.7675L22.1943 14.7217L22.1448 14.674C21.3748 14.113 21.032 13.4182 20.8248 12.881C20.6837 12.5107 20.5223 12.2063 20.2895 11.9827C20.0475 11.7535 19.8697 11.6307 19.5195 11.6307C19.3773 11.6326 19.2358 11.651 19.0978 11.6857L19.0153 11.704L19.0667 11.8012C19.1437 11.9442 19.2867 12.2118 19.5397 12.287C19.5603 12.2938 19.5821 12.2969 19.6038 12.2962L19.6662 12.2925L19.7138 12.2888C19.7297 12.2901 19.7371 12.2913 19.7358 12.2925C20.0072 12.4483 20.1502 13.6052 20.1502 14.1808C20.1502 14.2786 20.1062 14.3269 20.0182 14.3257C19.914 14.3196 19.8151 14.2782 19.7377 14.2083C19.6558 14.1223 19.557 14.0541 19.4476 14.008C19.3381 13.962 19.2203 13.939 19.1015 13.9407C18.6927 13.9407 18.2618 14.2157 18.2435 14.674V14.7675C18.2618 15.2258 18.6927 15.5008 19.1015 15.5008C19.2201 15.5027 19.3379 15.4801 19.4473 15.4343C19.5568 15.3886 19.6556 15.3207 19.7377 15.235C19.8151 15.1651 19.914 15.1237 20.0182 15.1177C20.1074 15.1164 20.1514 15.1635 20.1502 15.2588C20.1502 15.8363 20.0072 16.9932 19.7358 17.149L19.7138 17.1527L19.6662 17.149L19.6038 17.1453C19.5821 17.1446 19.5603 17.1477 19.5397 17.1545C19.2885 17.2315 19.1437 17.4973 19.0667 17.6403L19.0153 17.7375L19.0978 17.7577C19.2359 17.7917 19.3774 17.8095 19.5195 17.8108C19.8697 17.8108 20.0475 17.688 20.2895 17.457C20.5223 17.2352 20.6837 16.9308 20.8248 16.5605C21.032 16.0233 21.3748 15.3285 22.1448 14.7675ZM4.84 18.6633L4.6145 20.1355L3.33117 19.1675L4.84 18.6633ZM2.5025 19.8312C2.55934 19.8092 2.61943 19.7968 2.68033 19.7945C2.75992 19.794 2.83827 19.8142 2.90767 19.8532L2.91317 19.8568L5.71083 22.0092L5.85383 21.0742L5.2855 20.6452L5.62467 18.4012L6.292 18.1775L6.435 17.2443L2.7115 18.4965L2.5025 19.8312ZM22 43.12C10.3363 43.12 0.88 33.6637 0.88 22C0.88 10.3363 10.3363 0.88 22 0.88C33.6637 0.88 43.12 10.3363 43.12 22C43.12 33.6637 33.6637 43.12 22 43.12ZM22 0C9.8505 0 0 9.8505 0 22C0 34.1495 9.8505 44 22 44C34.1495 44 44 34.1495 44 22C44 9.8505 34.1495 0 22 0ZM26.8913 4.8455C27.0362 4.42383 27.3937 4.191 27.8997 4.191C28.1123 4.191 28.3348 4.23317 28.567 4.3175C29.3737 4.60717 29.7587 5.18833 29.5478 5.79883C29.4012 6.22233 29.0418 6.457 28.5377 6.457C28.3238 6.457 28.0995 6.41422 27.8648 6.32867C27.0618 6.04083 26.6787 5.45783 26.8913 4.8455ZM27.61 7.07667C27.9693 7.20622 28.3213 7.271 28.666 7.271C29.5387 7.271 30.206 6.842 30.4535 6.127C30.5389 5.87431 30.5632 5.60497 30.5243 5.34109C30.4854 5.07721 30.3845 4.82632 30.2298 4.609C29.9273 4.15617 29.4268 3.78767 28.8218 3.57133C28.488 3.44948 28.1358 3.38562 27.7805 3.3825C26.9005 3.3825 26.2313 3.806 25.9838 4.51917C25.6337 5.53667 26.3157 6.61283 27.61 7.07667ZM33.2823 7.37L32.9468 10.0375L32.989 10.076L35.5428 9.47833L34.1385 11.3795L34.8278 12.0212L36.9582 9.21067L36.1662 8.47367L33.9387 8.97233L34.21 6.6495L33.3813 5.87767L33.2787 5.78233C33.2732 5.9411 33.2122 6.09293 33.1063 6.21133L30.8972 8.35633L31.5902 9.0035L33.2823 7.37ZM39.9282 21.0833C39.8722 21.0914 39.8159 21.0969 39.7595 21.0998C39.2077 21.0998 38.7842 20.6177 38.6558 19.844C38.5128 18.986 38.8263 18.3627 39.457 18.2527C39.5118 18.2459 39.5668 18.2416 39.622 18.2398C40.1647 18.2398 40.5973 18.7312 40.722 19.492C40.8668 20.35 40.5533 20.977 39.9282 21.0852M41.4847 19.36C41.2775 18.1243 40.4892 17.2627 39.567 17.2627C39.4761 17.2633 39.3854 17.2706 39.2957 17.2847C38.2543 17.468 37.664 18.5992 37.895 19.9797C38.104 21.2355 38.874 22.0807 39.8108 22.0807C39.9036 22.0797 39.9961 22.0718 40.0877 22.0568C41.1272 21.8753 41.7138 20.7423 41.4847 19.36ZM22.792 3.16617C23.089 3.16617 23.2888 3.37883 23.2925 3.69417C23.2943 4.01317 23.1018 4.213 22.7865 4.21667L20.9733 4.23133L20.9642 3.18267L22.792 3.16617ZM20.0512 5.95833L20.988 5.951L20.9807 4.97567L22.5518 4.961L23.2393 5.93267L24.2843 5.92167L23.4942 4.87667L23.5913 4.83083C23.991 4.63833 24.2183 4.23867 24.2147 3.7345C24.2073 2.937 23.683 2.42183 22.8782 2.42183L20.02 2.4475H19.855C19.954 2.56667 20.0163 2.7225 20.0255 2.8545L20.0512 5.95833ZM13.8472 6.55233L12.5547 7.29483L12.5143 5.687L13.8472 6.55233ZM11.7113 5.7805V5.786L11.7737 9.31883L12.5932 8.84767L12.5748 8.13633L14.542 7.00333L15.1323 7.38833L15.95 6.91717L12.65 4.78317L11.4767 5.45417C11.538 5.48716 11.591 5.53369 11.6317 5.59024C11.6723 5.64678 11.6996 5.71185 11.7113 5.7805ZM6.87133 10.2208L9.08967 12.3475L9.73133 11.6508L8.91367 10.8662L10.2777 9.38483L9.74967 8.877L8.38383 10.3583L7.75317 9.75333L9.7185 7.62117L9.18867 7.11333L6.46433 10.0705C6.6104 10.0781 6.75086 10.1292 6.86767 10.2172L6.87133 10.2208Z" fill="#0F0F0F"/>
    </g>
    <defs>
        <clipPath id="clip0_2710_17924">
            <rect width="44" height="44" fill="white"/>
        </clipPath>
    </defs>
</svg>