<svg xmlns="http://www.w3.org/2000/svg" width="37" height="15" viewBox="0 0 37 15" fill="none">
    <path d="M22.924 12.1234L21.6792 14.9101L21.8185 14.8973C21.8637 14.8948 21.9126 14.8991 21.9652 14.9101C22.077 14.5434 22.2218 14.1768 22.3612 13.8339H23.375C23.5345 14.2006 23.6775 14.5783 23.7967 14.9101C23.8608 14.9101 23.9287 14.8973 24.0038 14.8973C24.0737 14.8975 24.1435 14.9018 24.2128 14.9101L23.0157 12.1234H22.924ZM22.4363 13.6634L22.8708 12.6459L23.3145 13.6653L22.4363 13.6634ZM29.0015 12.1839V14.9101C29.0583 14.9101 29.117 14.8973 29.1848 14.8973C29.2462 14.8954 29.3076 14.8997 29.3682 14.9101V12.1839C29.304 12.1839 29.2472 12.1949 29.1848 12.1949C29.1225 12.1949 29.0583 12.1858 29.0015 12.1839ZM21.1732 12.1839H21.087C20.6855 12.8971 20.3188 13.5901 19.9375 14.2721C19.5361 13.5892 19.1594 12.8921 18.8082 12.1821H18.7055C18.593 13.0935 18.4652 14.0029 18.3223 14.9101L18.4653 14.8973C18.5106 14.8973 18.557 14.9015 18.6047 14.9101C18.6047 14.4188 18.7147 13.6267 18.8008 12.8531C19.0722 13.3719 19.3508 13.8889 19.6075 14.4151L19.8275 14.8661H19.8642C20.1043 14.3161 20.4472 13.6781 20.911 12.8494C20.966 13.2436 21.0467 14.1034 21.1145 14.9064C21.175 14.9064 21.2373 14.8936 21.2978 14.8936C21.3592 14.8917 21.4206 14.896 21.4812 14.9064C21.3582 13.9995 21.25 13.0907 21.1567 12.1802L21.1732 12.1839ZM26.4972 12.1839C26.4972 12.2261 26.5082 12.2628 26.5082 12.3031C26.5106 12.3422 26.5069 12.3819 26.4972 12.4222C26.7881 12.3892 27.0796 12.3734 27.3717 12.3746V14.9174C27.4267 14.9174 27.4872 14.9046 27.5458 14.9046C27.6072 14.9027 27.6686 14.907 27.7292 14.9174V12.3746C28.0078 12.3721 28.2853 12.388 28.5615 12.4222C28.5615 12.3819 28.5505 12.3416 28.5505 12.3031C28.5493 12.2652 28.5529 12.2255 28.5615 12.1839H26.4972ZM16.4505 12.1839V14.2354H16.4102L14.5145 12.1821H14.3642V14.9101C14.4011 14.9029 14.4384 14.8987 14.476 14.8973C14.5127 14.8973 14.5499 14.9015 14.5878 14.9101V12.7596H14.6282L16.3515 14.6663C16.4248 14.7445 16.4939 14.8258 16.5587 14.9101H16.6797V12.1839C16.6393 12.1839 16.6027 12.1949 16.5697 12.1949C16.533 12.1949 16.4872 12.1858 16.4505 12.1839ZM26.2258 14.5856L25.4027 13.5461C25.806 13.4728 26.2222 13.2509 26.2222 12.7889C26.2222 12.3856 25.9508 12.1839 25.3348 12.1839H24.4915V14.9101C24.5524 14.9027 24.6135 14.8985 24.6748 14.8973C24.7298 14.8973 24.7848 14.8973 24.8582 14.9101L24.8637 13.7074L24.9975 13.5791L25.3165 13.9458L25.7877 14.5544C25.8732 14.6693 25.9569 14.7854 26.0388 14.9028C26.1122 14.9028 26.191 14.8899 26.2662 14.8899C26.3395 14.8875 26.4171 14.8918 26.499 14.9028L26.4238 14.8019L26.2258 14.5856ZM24.8508 13.5552L24.8417 12.3269C25.0372 12.3086 25.2328 12.3086 25.4283 12.3269C25.6887 12.3416 25.8867 12.5671 25.8683 12.8292C25.865 12.9698 25.8114 13.1044 25.7172 13.2087C25.623 13.313 25.4945 13.3801 25.355 13.3976C25.1863 13.4288 25.0213 13.5662 24.849 13.5552M5.66683 12.1234L4.42017 14.9101L4.5595 14.8973L4.708 14.9101C4.81983 14.5434 4.96467 14.1768 5.104 13.8339H6.11233C6.27367 14.2006 6.41667 14.5783 6.534 14.9101C6.6 14.9101 6.66783 14.8973 6.743 14.8973C6.81817 14.8973 6.87683 14.8973 6.952 14.9101L5.75483 12.1234H5.66683ZM5.17917 13.6634L5.61367 12.6459L6.05733 13.6653L5.17917 13.6634ZM7.49833 12.7596C7.49894 12.6955 7.51263 12.6321 7.53857 12.5735C7.5645 12.5148 7.60214 12.4621 7.64916 12.4185C7.69619 12.3749 7.75162 12.3414 7.81206 12.32C7.8725 12.2985 7.93668 12.2897 8.00067 12.2939C8.10921 12.2919 8.21561 12.3244 8.30455 12.3866C8.39349 12.4489 8.4604 12.5377 8.49567 12.6404H8.536C8.56289 12.5292 8.59833 12.4204 8.64233 12.3141C8.47866 12.1912 8.2786 12.1267 8.074 12.1308C7.96426 12.1157 7.85257 12.1241 7.74633 12.1555C7.6401 12.1869 7.54176 12.2405 7.45784 12.3128C7.37391 12.3851 7.30633 12.4744 7.25958 12.5748C7.21283 12.6753 7.18797 12.7845 7.18667 12.8953C7.18667 13.7973 8.43517 13.4691 8.43517 14.2116C8.43786 14.286 8.4257 14.3602 8.3994 14.4299C8.3731 14.4996 8.33319 14.5634 8.28199 14.6175C8.2308 14.6716 8.16934 14.7149 8.10121 14.745C8.03308 14.7751 7.95964 14.7913 7.88517 14.7928C7.74904 14.7925 7.61583 14.7533 7.50119 14.6799C7.38655 14.6065 7.29524 14.5019 7.238 14.3784H7.194C7.18139 14.4991 7.15682 14.6182 7.12067 14.7341C7.304 14.8826 7.53317 14.9651 7.76967 14.9651C7.89577 14.9747 8.0225 14.9581 8.14189 14.9164C8.26127 14.8746 8.37073 14.8086 8.46337 14.7225C8.55601 14.6364 8.62984 14.5321 8.6802 14.4161C8.73056 14.3001 8.75637 14.1749 8.756 14.0484C8.756 13.1996 7.49833 13.4947 7.49833 12.7596ZM12.4245 12.1234C12.2322 12.112 12.0396 12.1405 11.8589 12.2072C11.6782 12.274 11.5133 12.3775 11.3746 12.5111C11.2359 12.6448 11.1265 12.8058 11.0532 12.984C10.9799 13.1621 10.9443 13.3535 10.9487 13.5461C10.9402 13.7385 10.9728 13.9304 11.0443 14.1092C11.1158 14.288 11.2245 14.4496 11.3632 14.5831C11.502 14.7167 11.6675 14.8191 11.8489 14.8837C12.0303 14.9483 12.2234 14.9736 12.4153 14.9578C12.6141 14.9717 12.8135 14.9438 13.0008 14.8758C13.1881 14.8078 13.359 14.7012 13.5024 14.5629C13.6459 14.4246 13.7587 14.2578 13.8335 14.0732C13.9084 13.8885 13.9437 13.6902 13.937 13.4911C13.9387 13.2984 13.8995 13.1076 13.8221 12.9312C13.7447 12.7548 13.6308 12.5968 13.4879 12.4676C13.345 12.3384 13.1764 12.2409 12.9931 12.1816C12.8098 12.1223 12.616 12.1024 12.4245 12.1234ZM12.4245 14.8258C12.2692 14.8253 12.1157 14.792 11.9741 14.728C11.8326 14.6639 11.7063 14.5707 11.6034 14.4543C11.5005 14.3379 11.4234 14.201 11.3773 14.0527C11.3311 13.9044 11.3169 13.748 11.3355 13.5937C11.3355 12.7852 11.759 12.2554 12.4612 12.2554C12.6195 12.2537 12.7763 12.2874 12.92 12.354C13.0637 12.4206 13.1906 12.5184 13.2917 12.6404C13.4772 12.8939 13.5663 13.2053 13.5428 13.5186C13.5561 13.6777 13.5378 13.8379 13.4888 13.9899C13.4399 14.142 13.3613 14.2828 13.2577 14.4043C13.1541 14.5258 13.0275 14.6256 12.8851 14.698C12.7427 14.7703 12.5874 14.8137 12.4282 14.8258H12.4245ZM32.12 12.1949C32.0797 12.1949 32.043 12.1858 32.01 12.1839V14.2354H31.9623L30.0667 12.1821H29.9108V14.9101C29.9477 14.9029 29.9851 14.8987 30.0227 14.8973C30.0593 14.8973 30.0966 14.9015 30.1345 14.9101V12.7596H30.173L31.8982 14.6663C31.9715 14.7445 32.0406 14.8258 32.1053 14.9101H32.2263V12.1839C32.1915 12.1839 32.1548 12.1949 32.12 12.1949ZM10.9945 12.4259C10.9945 12.3856 10.9817 12.3453 10.9817 12.3067C10.9792 12.2689 10.9835 12.2291 10.9945 12.1876H8.9375C8.9375 12.2298 8.9485 12.2664 8.9485 12.3067C8.95094 12.3459 8.94728 12.3856 8.9375 12.4259C9.22839 12.3929 9.51989 12.377 9.812 12.3782V14.9211C9.867 14.9211 9.92567 14.9083 9.98617 14.9083C10.0467 14.9083 10.098 14.9083 10.1695 14.9211V12.3728C10.4457 12.3728 10.7195 12.3905 10.9945 12.4259ZM23.078 2.89258V1.60925C23.2137 1.60925 23.3487 1.6172 23.4832 1.63308H23.4978V1.48642H22.4308V1.63308H22.4437C22.5854 1.61475 22.7278 1.60681 22.8708 1.60925V2.89258H23.078ZM16.3038 1.48458V2.87792H16.4413V1.79258L17.3048 2.74592L17.4112 2.87242H17.4918V1.47725H17.3543V2.52592L16.401 1.49375L16.3038 1.48458ZM22.3227 1.80175C22.3239 1.58908 22.1711 1.48336 21.8643 1.48458H21.4262V2.87792H21.6278V2.21058H21.6865L21.8423 2.39392L22.0807 2.70008L22.209 2.88342H22.473L21.923 2.19408C22.1723 2.13908 22.3227 1.99608 22.3227 1.80175ZM21.8717 2.09875C21.7912 2.11327 21.7092 2.11697 21.6278 2.10975V1.58358C21.7212 1.57642 21.815 1.57642 21.9083 1.58358C21.9381 1.58472 21.9672 1.59187 21.9941 1.6046C22.021 1.61733 22.045 1.63538 22.0647 1.65766C22.0844 1.67994 22.0994 1.70598 22.1088 1.73421C22.1181 1.76244 22.1217 1.79228 22.1192 1.82192C22.1198 1.88892 22.0959 1.95384 22.052 2.00448C22.0081 2.05512 21.9472 2.08799 21.8808 2.09692L21.8717 2.09875ZM20.1703 2.87242C20.2229 2.70008 20.284 2.53203 20.3537 2.36825L20.3647 2.33892H20.8597C20.9342 2.5137 21.0027 2.69092 21.065 2.87058H21.3033L20.691 1.44792H20.6268L19.9907 2.87242H20.163H20.1703ZM20.614 1.75958L20.8175 2.23075H20.4142C20.427 2.19775 20.5957 1.80725 20.614 1.75958ZM15.3138 1.45525C15.2149 1.44937 15.1158 1.46412 15.0229 1.49858C14.9299 1.53303 14.8452 1.58643 14.774 1.65539C14.7028 1.72435 14.6467 1.80736 14.6093 1.89915C14.5719 1.99094 14.554 2.0895 14.5567 2.18859C14.553 2.28687 14.5702 2.38483 14.6071 2.476C14.644 2.56718 14.6998 2.6495 14.7708 2.71756C14.8418 2.78563 14.9264 2.83788 15.019 2.87089C15.1117 2.9039 15.2103 2.91692 15.3083 2.90908C15.4098 2.91522 15.5115 2.90018 15.6069 2.86492C15.7023 2.82966 15.7893 2.77495 15.8624 2.70426C15.9355 2.63358 15.9931 2.54846 16.0315 2.45432C16.07 2.36018 16.0884 2.25907 16.0857 2.15742C16.0864 2.05913 16.0665 1.96178 16.0271 1.87171C15.9878 1.78164 15.9299 1.70086 15.8572 1.63463C15.7846 1.5684 15.6989 1.5182 15.6056 1.48729C15.5122 1.45639 15.4135 1.44547 15.3157 1.45525M15.8657 2.19775C15.8594 2.36712 15.7946 2.52908 15.6823 2.65608C15.6355 2.70638 15.5787 2.74637 15.5156 2.77351C15.4525 2.80066 15.3844 2.81436 15.3157 2.81375C15.2391 2.81384 15.1634 2.79761 15.0936 2.76616C15.0238 2.7347 14.9615 2.68874 14.9109 2.63132C14.8602 2.57391 14.8224 2.50636 14.7999 2.43318C14.7774 2.36001 14.7707 2.28287 14.7803 2.20692C14.7803 1.79808 14.993 1.54508 15.3303 1.54508C15.4075 1.54524 15.4838 1.56165 15.5543 1.59323C15.6247 1.62482 15.6877 1.67088 15.7392 1.72842C15.8308 1.85308 15.8748 2.00709 15.862 2.16292L15.8657 2.19775ZM18.4617 2.86875C18.4727 2.59986 18.4971 2.33281 18.535 2.06759L18.5552 1.87508C18.579 1.92092 18.8412 2.42508 18.942 2.62492L19.0557 2.85775H19.0942C19.2097 2.59008 19.3747 2.28392 19.6002 1.88058C19.6332 2.11892 19.6753 2.60109 19.6992 2.87609V2.88708H19.9137V2.87425C19.866 2.53508 19.8128 2.08592 19.7505 1.50292V1.49192H19.6845L19.3472 2.10425L19.1143 2.52958C18.9154 2.19407 18.7319 1.84965 18.5643 1.49742H18.4947V1.50842C18.4763 1.71375 18.3553 2.55342 18.3022 2.87975V2.89258H18.4708L18.4617 2.86875ZM13.0167 2.79358C12.9502 2.79331 12.8851 2.77399 12.8293 2.73793C12.7734 2.70187 12.729 2.65057 12.7013 2.59008H12.6592L12.617 2.78442C12.713 2.86062 12.8318 2.90257 12.9543 2.90358C13.0192 2.9092 13.0845 2.90121 13.1461 2.88013C13.2077 2.85905 13.2642 2.82534 13.312 2.78116C13.3598 2.73698 13.3978 2.6833 13.4237 2.62356C13.4496 2.56382 13.4627 2.49934 13.4622 2.43425C13.4622 2.20508 13.288 2.13725 13.1212 2.06759C12.9562 1.99792 12.8297 1.95392 12.8297 1.78342C12.8293 1.75259 12.8354 1.72204 12.8476 1.69372C12.8597 1.6654 12.8777 1.63996 12.9004 1.61905C12.923 1.59813 12.9498 1.58221 12.979 1.57231C13.0082 1.56241 13.0391 1.55876 13.0698 1.56159C13.1222 1.55906 13.1739 1.57386 13.217 1.60369C13.2601 1.63351 13.2921 1.67671 13.3082 1.72658H13.3467L13.4053 1.54325C13.3218 1.47788 13.2181 1.44354 13.112 1.44608C12.8315 1.44608 12.6537 1.60008 12.6537 1.84208C12.6537 2.08408 12.837 2.15925 12.9965 2.22342C13.1578 2.28759 13.2788 2.33342 13.2788 2.50392C13.2816 2.54051 13.2768 2.57728 13.2649 2.61197C13.2529 2.64666 13.234 2.67854 13.2093 2.70566C13.1846 2.73278 13.1546 2.75457 13.1211 2.76969C13.0877 2.78481 13.0515 2.79294 13.0148 2.79358M23.6665 1.48458H23.8553V2.87792H23.6647L23.6665 1.48458ZM13.5428 1.48458V1.63125H13.5557C13.6974 1.61292 13.8398 1.60497 13.9828 1.60742V2.89075H14.1845V1.60742C14.3189 1.60742 14.4534 1.61597 14.5878 1.63308H14.6007V1.48642L13.5428 1.48458ZM24.2917 1.79258L25.1552 2.74592L25.2615 2.87242H25.3403V1.47725H25.2028V2.52592L24.2495 1.49375H24.1523V2.88708H24.2898L24.2917 1.79258ZM11.5922 2.37192L11.605 2.33892H12.1C12.1746 2.5137 12.2436 2.69092 12.3072 2.87058H12.5455L11.9313 1.44792H11.8708L11.2347 2.87242H11.407C11.4606 2.70269 11.5224 2.53566 11.5922 2.37192ZM11.8543 1.75958C11.8745 1.80725 12.0377 2.19775 12.0578 2.23075H11.6545L11.8543 1.75958ZM25.6428 6.38325C25.5587 6.34801 25.4792 6.30244 25.4063 6.24758L23.7765 5.08158C23.4673 5.26492 23.1495 5.42992 22.8232 5.57658L23.727 6.51892C23.8077 6.60325 24.0607 6.80675 24.266 6.75909L24.5117 6.69125L25.6428 6.38325ZM26.6347 2.66525L31.218 3.60758C31.5211 3.67603 31.8267 3.6907 32.1347 3.65158L33.627 3.21342L26.9243 2.31325C26.8314 2.42936 26.7349 2.54669 26.6347 2.66525ZM31.4178 3.86058C31.284 3.84225 31.1868 3.82208 31.1758 3.82025L26.4715 2.85225C26.3297 3.00992 26.1849 3.16392 26.037 3.31425L29.1078 4.26208C29.349 4.34104 29.6057 4.35992 29.8558 4.31708L31.4178 3.86058ZM29.1977 4.51142L29.0455 4.47108L25.8628 3.48475C25.6355 3.70475 25.399 3.9162 25.1533 4.11908L26.818 4.89825C27.016 5.00275 27.2397 5.04492 27.4633 5.01925L29.1977 4.51142ZM27.4853 1.54508L34.452 2.00892C34.6476 2.03703 34.8431 2.03703 35.0387 2.00892C35.102 1.98897 35.1606 1.956 35.2104 1.91212C35.2603 1.86823 35.3005 1.8144 35.3283 1.75408L35.6143 1.25175L35.6748 1.16375H27.7365C27.6595 1.28475 27.5758 1.41186 27.4853 1.54508ZM36.6465 0.105917C36.62 0.0694187 36.5844 0.0405441 36.5432 0.0221987C36.502 0.00385333 36.4567 -0.00331537 36.4118 0.00141717H28.9098C28.7435 0.0174088 28.5835 0.0730325 28.4432 0.163625C28.3028 0.254218 28.1862 0.37714 28.1032 0.522085C28.0298 0.663862 27.951 0.803195 27.8667 0.940084H36.0562C36.2633 0.925417 36.2945 0.888751 36.344 0.806251L36.6135 0.368085C36.6477 0.312921 36.6667 0.249654 36.6685 0.184751C36.6672 0.157151 36.6597 0.130202 36.6465 0.105917ZM26.1268 6.23475C26.7795 5.98908 26.8767 5.74342 26.9702 5.50142C27.0041 5.40164 27.0591 5.31034 27.1315 5.23375C26.9897 5.2043 26.8518 5.15815 26.7208 5.09625L24.9608 4.27308C24.6467 4.51875 24.3192 4.74669 23.9782 4.95692L25.5347 6.07159C25.6174 6.13703 25.7125 6.18518 25.8142 6.21321C25.9159 6.24124 26.0222 6.24857 26.1268 6.23475ZM27.335 1.76142C27.2502 1.88084 27.1635 1.9988 27.0747 2.11525L33.748 3.00992C34.0028 3.04475 34.0817 2.95858 34.0963 2.94025L34.4263 2.35542C34.4495 2.31442 34.4765 2.27574 34.507 2.23992H34.4227L27.335 1.76142ZM21.5307 3.48475H20.8065L22.6618 5.41708C22.9747 5.27775 23.2803 5.12314 23.5785 4.95325L21.5307 3.48475ZM19.118 3.48475L19.8715 6.20175C20.2871 6.14675 20.6971 6.06608 21.1017 5.95975L19.635 3.48475H19.1162H19.118ZM22.4473 5.50142L20.5058 3.48475H19.8898L21.318 5.90292C21.703 5.7917 22.0794 5.65786 22.4473 5.50142ZM24.739 4.17042L23.2522 3.47558H21.9047L23.7857 4.82308C24.1157 4.62142 24.4334 4.40386 24.739 4.17042ZM20.1667 7.75275C20.071 7.63756 20.0026 7.50217 19.9668 7.35675L19.7102 6.44008C19.3887 6.47675 19.0618 6.50119 18.7293 6.51342L19.6625 7.40258C19.9137 7.63908 19.9723 7.70142 20.1667 7.75275ZM20.4252 7.68858C20.4694 7.71493 20.5188 7.73165 20.57 7.73765C20.6211 7.74366 20.673 7.73881 20.7222 7.72342L22.0183 7.37142C21.9048 7.27387 21.8093 7.15722 21.736 7.02675L21.2153 6.14675C20.7924 6.25675 20.3647 6.34292 19.932 6.40525L20.1832 7.30908C20.2169 7.46003 20.3025 7.59435 20.4252 7.68858ZM22.3538 7.27975L23.8333 6.87458C23.7348 6.81835 23.6442 6.7493 23.5638 6.66925L22.605 5.66825C22.2212 5.83325 21.8295 5.97258 21.4298 6.08625L21.9212 6.91858C21.9835 7.02492 22.1833 7.30725 22.3538 7.27975ZM24.9333 4.02008C24.948 4.00908 25.3788 3.65342 25.5622 3.47008H23.7673L24.9333 4.02008ZM18.4415 3.48475V6.30258C18.8461 6.29892 19.25 6.27447 19.6533 6.22925L18.8925 3.47925L18.4415 3.48475ZM10.659 2.53508V2.19042L9.99717 2.28025C10.0876 2.39269 10.1811 2.50392 10.2777 2.61392L10.659 2.53508ZM10.659 2.75142L10.4445 2.79542C10.5142 2.87242 10.5857 2.94881 10.659 3.02458V2.75142ZM10.659 1.16192H9.19233C9.27056 1.28414 9.35183 1.40636 9.43617 1.52858L10.659 1.44792V1.16192ZM10.659 1.97225V1.67342L9.58833 1.74492C9.67144 1.85858 9.75578 1.97103 9.84133 2.08225L10.659 1.97225ZM8.56533 0.525751C8.48113 0.381782 8.36424 0.259638 8.22411 0.16919C8.08398 0.0787425 7.92454 0.0225277 7.75867 0.00508532H0.256667C0.0733335 0.00508532 0.0055 0.0875843 0 0.188418C0.00122517 0.253151 0.0195691 0.316406 0.0531667 0.371752L0.322667 0.819084C0.383167 0.918084 0.4235 0.940085 0.616 0.954751H8.8L8.56533 0.525751ZM9.3335 1.76142L2.15967 2.23992C2.19022 2.27536 2.21589 2.31325 2.23667 2.35358L2.56667 2.93475C2.58133 2.95492 2.662 3.03925 2.915 3.00442L9.58833 2.10975L9.3335 1.76142ZM9.18317 1.54508L8.93383 1.16192H0.993667C1.07067 1.25542 1.22467 1.55242 1.34017 1.75225C1.36822 1.81276 1.40866 1.8667 1.45888 1.9106C1.50909 1.95449 1.56795 1.98737 1.63167 2.00709C1.82722 2.03397 2.02278 2.03397 2.21833 2.00709L9.18317 1.54508ZM27.4762 1.16192H26.0095V1.44792L27.2342 1.52858L27.4762 1.16192ZM27.9107 0.421251C28.0051 0.259812 28.1296 0.11793 28.2773 0.00325125H21.3675C21.2162 -0.0040924 21.0649 0.0188858 20.9226 0.070834C20.7803 0.122782 20.6498 0.202652 20.5388 0.305751C20.3887 0.46445 20.2858 0.661918 20.2418 0.875918L20.218 0.94375H27.61C27.7151 0.772639 27.8153 0.598473 27.9107 0.421251ZM26.6695 2.28025L26.0058 2.19042V2.53508L26.389 2.61392L26.6695 2.28025ZM5.44683 3.60758L10.0302 2.66342C9.93183 2.54869 9.83586 2.43194 9.74233 2.31325L3.03967 3.21342L4.532 3.65158C4.83878 3.68825 5.14372 3.67358 5.44683 3.60758ZM8.756 0.421251C8.756 0.421251 8.93933 0.758584 9.05667 0.94375H16.4487L16.4248 0.875918C16.3813 0.661383 16.2776 0.463646 16.126 0.305751C16.0164 0.201108 15.8864 0.120223 15.7442 0.0681694C15.6019 0.0161157 15.4504 -0.00598517 15.2992 0.00325125H8.38567C8.536 0.119362 8.65944 0.258695 8.756 0.421251ZM27.0783 1.74492L26.0058 1.67342V1.97225L26.8253 2.08225C26.9146 1.96736 26.9989 1.85492 27.0783 1.74492ZM26.2167 2.80275L26.0003 2.75875V3.03375C26.0786 2.95797 26.1507 2.88097 26.2167 2.80275ZM11.9277 4.17042C12.2332 4.40508 12.551 4.62203 12.881 4.82125L14.762 3.47558H13.4145L11.9277 4.17042ZM11.7333 4.02008L12.8975 3.47008H11.1063C11.2878 3.64608 11.7187 4.00725 11.7333 4.02008ZM10.538 6.23475C10.6429 6.24958 10.7498 6.2431 10.8522 6.21569C10.9545 6.18829 11.0503 6.14052 11.1338 6.07525L12.6867 4.95142C12.3476 4.74142 12.0201 4.51314 11.7058 4.26758L9.9495 5.08892C9.81744 5.15172 9.67834 5.1985 9.53517 5.22825C9.60387 5.30758 9.65844 5.39812 9.6965 5.49592C9.79 5.74158 9.88717 5.98542 10.538 6.23475ZM12.9397 6.51892L13.8453 5.57658C13.5191 5.42726 13.2003 5.26206 12.8902 5.08158L11.264 6.24758C11.1891 6.3013 11.1085 6.34679 11.0238 6.38325L12.4007 6.75909C12.6078 6.80675 12.859 6.60142 12.9397 6.51892ZM5.24883 3.86058L6.809 4.31892C7.05904 4.36514 7.31681 4.34555 7.557 4.26208L10.6333 3.31425C10.4858 3.16338 10.3415 3.00935 10.2007 2.85225L5.5 3.82025C5.41677 3.8366 5.333 3.85005 5.24883 3.86058ZM16.698 7.35675C16.6617 7.50233 16.5927 7.63774 16.4963 7.75275C16.6159 7.71946 16.725 7.65638 16.8135 7.56942L17.9355 6.50058C17.6077 6.48868 17.2806 6.46422 16.9547 6.42725L16.698 7.35675ZM15.4495 6.14858L14.9325 7.02492C14.8588 7.15619 14.7626 7.27348 14.6483 7.37142L15.9445 7.72342C16.0435 7.75275 16.1517 7.74175 16.2415 7.68858C16.3652 7.59419 16.4515 7.45913 16.4853 7.30725L16.7365 6.40525C16.3028 6.34538 15.873 6.25968 15.4495 6.14858ZM14.7437 6.91675L15.2332 6.08808C14.8317 5.97508 14.4385 5.83481 14.0562 5.66825L13.0973 6.66925C13.0187 6.74892 12.9299 6.81795 12.8333 6.87458L14.3147 7.27975C14.4833 7.30725 14.6832 7.02492 14.7437 6.91675ZM9.85417 4.90008L11.5152 4.12275C11.2709 3.92015 11.0342 3.70856 10.8057 3.48842L7.62483 4.46925L7.469 4.51142L9.20517 5.02292C9.42898 5.04942 9.65553 5.00655 9.85417 4.90008ZM17.5487 3.48475H17.028L15.5613 5.96158C15.9659 6.06547 16.3759 6.14553 16.7915 6.20175L17.5487 3.48475ZM16.775 3.48475H16.1608L14.2193 5.50142C14.586 5.65542 14.9618 5.78681 15.3468 5.89558L16.775 3.48475ZM13.0863 4.95142C13.3846 5.12253 13.6901 5.27714 14.003 5.41525L15.8602 3.48475H15.136L13.0863 4.95142ZM17.0133 6.22008C17.4167 6.26531 17.8206 6.28975 18.2252 6.29342V3.48475H17.7833L17.0133 6.22008ZM24.8178 13.4251C24.8362 13.1629 24.9425 12.8219 24.6803 12.8073C24.486 12.7908 24.904 12.9503 24.7097 12.9668L24.7848 13.6047C24.9572 13.6194 25.1203 13.4838 25.2908 13.4563C25.5842 13.4196 24.8178 13.4251 24.8178 13.4251Z" fill="#0F0F0F"/>
</svg>