<svg xmlns="http://www.w3.org/2000/svg" width="44" height="44" viewBox="0 0 44 44" fill="none">
  <g clip-path="url(#clip0_2710_17932)">
    <path d="M36.388 14.388C34.5694 14.388 32.901 15.026 31.592 16.0893C30.2375 14.9859 28.5431 14.3848 26.796 14.388C24.9774 14.388 23.309 15.026 22 16.0893C20.6455 14.9859 18.9511 14.3848 17.204 14.388C15.3854 14.388 13.717 15.026 12.408 16.0893C11.2912 15.183 9.94034 14.6116 8.51208 14.4415C7.08383 14.2713 5.63658 14.5093 4.33802 15.1278C3.03946 15.7464 1.94273 16.7202 1.17488 17.9365C0.40704 19.1527 -0.000488281 20.5617 -0.000488281 22C-0.000488281 23.4384 0.40704 24.8473 1.17488 26.0636C1.94273 27.2798 3.03946 28.2536 4.33802 28.8722C5.63658 29.4907 7.08383 29.7287 8.51208 29.5586C9.94034 29.3884 11.2912 28.817 12.408 27.9107C13.717 28.974 15.3854 29.612 17.204 29.612C19.0227 29.612 20.691 28.974 22 27.9107C23.309 28.974 24.9774 29.612 26.796 29.612C28.6147 29.612 30.283 28.974 31.592 27.9107C32.5381 28.6785 33.6547 29.2079 34.848 29.4545C36.0412 29.7011 37.2762 29.6576 38.4492 29.3278C39.6221 28.9979 40.6988 28.3913 41.5886 27.559C42.4784 26.7266 43.1554 25.6928 43.5627 24.5444C43.97 23.3961 44.0956 22.1667 43.9291 20.9597C43.7626 19.7527 43.3087 18.6033 42.6057 17.6081C41.9027 16.6129 40.9711 15.801 39.8891 15.2407C38.8071 14.6803 37.6065 14.3879 36.388 14.388ZM31.592 25.421C30.8778 24.4234 30.4944 23.2269 30.4957 22C30.4957 20.724 30.9027 19.5433 31.592 18.579C32.2814 19.5433 32.6884 20.724 32.6884 22C32.6884 23.276 32.2814 24.4567 31.592 25.421ZM22 25.421C21.2858 24.4234 20.9024 23.2269 20.9037 22C20.9037 20.724 21.3107 19.5433 22 18.579C22.6894 19.5433 23.0964 20.724 23.0964 22C23.0964 23.276 22.6894 24.4567 22 25.421ZM12.408 25.421C11.6938 24.4234 11.3104 23.2269 11.3117 22C11.3117 20.724 11.7187 19.5433 12.408 18.579C13.0974 19.5433 13.5044 20.724 13.5044 22C13.5044 23.276 13.0974 24.4567 12.408 25.421ZM1.71969 22C1.72013 20.9005 2.02817 19.8231 2.60899 18.8896C3.18982 17.956 4.02025 17.2036 5.00638 16.7174C5.99251 16.2312 7.095 16.0306 8.18919 16.1383C9.28338 16.246 10.3256 16.6577 11.198 17.3268C10.1552 18.6611 9.58969 20.3065 9.59203 22C9.59203 23.7618 10.1934 25.3843 11.198 26.6732C10.3256 27.3423 9.28338 27.754 8.18919 27.8617C7.095 27.9694 5.99251 27.7688 5.00638 27.2826C4.02025 26.7964 3.18982 26.044 2.60899 25.1104C2.02817 24.1769 1.72013 23.0995 1.71969 22ZM13.618 26.6732C14.6609 25.3389 15.2264 23.6935 15.224 22C15.224 20.2382 14.6227 18.6157 13.618 17.3268C14.6457 16.5352 15.9068 16.1064 17.204 16.1077C18.5534 16.1077 19.7964 16.5623 20.79 17.3268C19.7472 18.6611 19.1817 20.3065 19.184 22C19.184 23.7618 19.7854 25.3843 20.79 26.6732C19.7624 27.4649 18.5013 27.8936 17.204 27.8923C15.9068 27.8936 14.6457 27.4649 13.618 26.6732ZM23.21 26.6732C24.2529 25.3389 24.8184 23.6935 24.816 22C24.816 20.2382 24.2147 18.6157 23.21 17.325C24.2037 16.5623 25.4467 16.1058 26.796 16.1058C28.1454 16.1058 29.3884 16.5605 30.382 17.325C29.3392 18.6593 28.7737 20.3047 28.776 21.9982C28.776 23.76 29.3774 25.3825 30.382 26.6713C29.3544 27.463 28.0933 27.8918 26.796 27.8905C25.499 27.8923 24.2379 27.4642 23.21 26.6732ZM36.388 27.8923C35.0908 27.8936 33.8297 27.4649 32.802 26.6732C33.8436 25.3382 34.4089 23.6933 34.408 22C34.408 20.2382 33.8067 18.6157 32.802 17.3268C33.5449 16.7563 34.413 16.3711 35.3344 16.2032C36.2559 16.0352 37.2041 16.0894 38.1004 16.3611C38.9968 16.6328 39.8154 17.1143 40.4885 17.7656C41.1616 18.4169 41.6697 19.2193 41.9708 20.1062C42.2718 20.9932 42.357 21.9391 42.2195 22.8655C42.0819 23.792 41.7254 24.6723 41.1797 25.4335C40.6339 26.1947 39.9145 26.8148 39.0812 27.2424C38.2479 27.67 37.3246 27.8928 36.388 27.8923Z" fill="#0F0F0F"/>
  </g>
  <defs>
    <clipPath id="clip0_2710_17932">
      <rect width="44" height="44" fill="white"/>
    </clipPath>
  </defs>
</svg>