<svg xmlns="http://www.w3.org/2000/svg" width="37" height="12" viewBox="0 0 37 12" fill="none">
    <path d="M15.8776 7.54559C16.5915 8.06203 17.4675 8.30413 18.3452 8.22758C19.5662 8.20008 20.7011 7.80775 20.7011 6.67292C20.6691 6.41474 20.5627 6.17146 20.3946 5.97284C20.2266 5.77423 20.0044 5.62888 19.7551 5.55458C19.6249 5.51058 19.6542 5.37125 19.7551 5.33642C19.94 5.22559 20.0967 5.07337 20.2128 4.89172C20.3289 4.71007 20.4013 4.50395 20.4242 4.28959C20.4242 3.73959 19.8431 2.90908 18.1711 2.90908C17.3396 2.85273 16.5168 3.10612 15.8611 3.62042C15.9291 3.66979 15.986 3.73278 16.0283 3.80538C16.0706 3.87798 16.0973 3.95859 16.1067 4.04208V7.05058C16.086 7.23605 16.0055 7.40976 15.8776 7.54559ZM18.2334 3.54342C18.4035 3.52789 18.5743 3.56415 18.7235 3.64745C18.8726 3.73075 18.993 3.8572 19.069 4.01018C19.145 4.16317 19.1729 4.33555 19.1492 4.5047C19.1254 4.67386 19.0511 4.83187 18.9359 4.95802C18.8207 5.08416 18.6701 5.17253 18.5038 5.21154C18.3375 5.25054 18.1633 5.23835 18.004 5.17657C17.8448 5.11479 17.708 5.0063 17.6115 4.86535C17.515 4.72439 17.4634 4.55756 17.4634 4.38675C17.4549 4.17313 17.531 3.96478 17.6752 3.8069C17.8193 3.64902 18.0199 3.55435 18.2334 3.54342ZM18.3342 5.74342C18.5166 5.73795 18.6965 5.78702 18.8508 5.88436C19.0051 5.9817 19.1269 6.12287 19.2005 6.28982C19.2741 6.45676 19.2962 6.64187 19.264 6.82146C19.2318 7.00105 19.1467 7.16694 19.0197 7.29791C18.8927 7.42887 18.7295 7.51895 18.5509 7.5566C18.3724 7.59426 18.1867 7.57778 18.0176 7.50928C17.8485 7.44079 17.7037 7.32338 17.6017 7.1721C17.4997 7.02082 17.4452 6.84254 17.4451 6.66009C17.4426 6.54135 17.4638 6.42331 17.5073 6.31279C17.5507 6.20228 17.6157 6.10148 17.6984 6.01623C17.7811 5.93099 17.8799 5.86298 17.989 5.81616C18.0981 5.76933 18.2155 5.74461 18.3342 5.74342ZM21.5407 8.16342C21.9557 7.88283 22.2983 7.50795 22.5405 7.06947C22.7826 6.631 22.9175 6.14139 22.9341 5.64075C22.9149 5.14356 22.7783 4.65796 22.5355 4.22366C22.2927 3.78936 21.9506 3.41868 21.5371 3.14192C20.5592 2.4743 19.4028 2.11715 18.2187 2.11715C17.0347 2.11715 15.8782 2.4743 14.9004 3.14192C14.4869 3.41868 14.1448 3.78936 13.902 4.22366C13.6592 4.65796 13.5226 5.14356 13.5034 5.64075C13.5197 6.14123 13.6543 6.63073 13.8962 7.0692C14.1381 7.50766 14.4803 7.88263 14.8949 8.16342C15.8727 8.83545 17.0313 9.19521 18.2178 9.19521C19.4043 9.19521 20.5629 8.83545 21.5407 8.16342ZM13.7179 5.64075C13.7364 5.17659 13.8649 4.72346 14.0928 4.31866C14.3207 3.91387 14.6415 3.56899 15.0287 3.31242C15.9701 2.674 17.0813 2.33272 18.2187 2.33272C19.3561 2.33272 20.4674 2.674 21.4087 3.31242C21.796 3.56899 22.1168 3.91387 22.3447 4.31866C22.5725 4.72346 22.701 5.17659 22.7196 5.64075C22.702 6.10773 22.5744 6.56396 22.3473 6.97235C22.1201 7.38075 21.7998 7.72978 21.4124 7.99109C20.4722 8.6359 19.3588 8.981 18.2187 8.981C17.0787 8.981 15.9653 8.6359 15.0251 7.99109C14.6376 7.72978 14.3173 7.38075 14.0902 6.97235C13.8631 6.56396 13.7355 6.10773 13.7179 5.64075ZM23.1541 6.36675C23.128 6.46327 23.0981 6.55868 23.0642 6.65275C23.3466 7.20275 23.5849 7.06525 23.7132 7.01942C23.8416 6.97358 24.0176 6.80125 23.8874 6.64175C23.7572 6.48225 23.5391 6.26408 23.3209 5.98725L23.1541 6.36675ZM23.7132 5.20442C23.8287 5.14575 23.9167 5.03025 23.7994 4.82675C23.6821 4.62325 23.3796 4.30425 23.2329 4.41975C23.0734 4.57925 23.3209 4.91475 23.3649 5.03025C23.399 5.09067 23.4504 5.13953 23.5125 5.17056C23.5745 5.20159 23.6444 5.21338 23.7132 5.20442ZM24.4539 4.95692C24.7307 4.77358 24.3824 4.52242 24.2357 4.36108C24.1056 4.28958 23.7866 3.99442 23.6399 4.15758C23.4932 4.32075 23.8874 4.72592 23.9901 4.84142C24.0927 4.95692 24.2357 5.11825 24.4539 4.95692ZM21.3721 1.32325C21.1887 1.80359 21.5902 2.05658 21.8377 2.25458C22.151 2.43631 22.4112 2.69699 22.5923 3.01063C22.7734 3.32427 22.8691 3.67991 22.8699 4.04208C23.0734 3.95408 23.3502 3.91192 23.1614 3.49208C23.0441 3.25925 22.4776 2.50209 22.6114 2.15375C22.7452 1.80542 23.1797 1.52859 24.1532 1.48459C25.1267 1.44059 26.4926 1.48458 26.9582 1.41308C27.4239 1.34158 29.2847 0.863085 29.6624 0.817252C29.8219 0.787919 29.8219 0.714585 29.7192 0.699918C29.2847 0.699918 27.8309 0.787919 27.3066 0.787919C26.7822 0.787919 25.5631 0.758585 25.1267 0.729251C24.4344 0.685549 23.74 0.685549 23.0477 0.729251C22.5784 0.771418 21.5627 0.844752 21.3721 1.32325ZM21.6892 1.16925C21.8007 1.08606 21.9198 1.01363 22.0449 0.952919C22.0738 0.938575 22.1073 0.93631 22.1379 0.946625C22.1685 0.956939 22.1937 0.978988 22.2081 1.00792C22.2224 1.03685 22.2247 1.07029 22.2144 1.10089C22.204 1.13149 22.182 1.15674 22.1531 1.17108C22.0421 1.22156 21.9365 1.28298 21.8377 1.35442C21.7662 1.40942 21.7149 1.46075 21.7112 1.50292C21.7046 1.56889 21.716 1.63542 21.7442 1.69542C21.8038 1.79142 21.8847 1.87235 21.9807 1.93192C21.9937 1.94107 22.0048 1.95269 22.0133 1.96612C22.0218 1.97954 22.0276 1.99451 22.0303 2.01018C22.0331 2.02584 22.0327 2.04188 22.0292 2.0574C22.0257 2.07291 22.0192 2.08758 22.0101 2.10058C22.0009 2.11359 21.9893 2.12466 21.9759 2.13317C21.9624 2.14168 21.9475 2.14746 21.9318 2.15018C21.9162 2.15291 21.9001 2.15252 21.8846 2.14904C21.8691 2.14556 21.8544 2.13907 21.8414 2.12992C21.7117 2.05007 21.604 1.93918 21.5279 1.80725C21.4756 1.70763 21.4551 1.59437 21.4692 1.48275C21.4832 1.4185 21.5099 1.35769 21.5477 1.30386C21.5855 1.25004 21.6336 1.20427 21.6892 1.16925ZM24.9929 4.23092C24.8462 4.15758 24.4099 3.79458 24.2797 3.95408C24.1202 4.13742 24.4631 4.40509 24.6281 4.53709C24.9196 4.79742 25.4567 4.53708 24.9929 4.23092ZM25.8216 1.61475C25.1625 1.59386 24.5027 1.60855 23.8452 1.65875C23.6524 1.66383 23.463 1.71053 23.2899 1.79565C23.1168 1.88077 22.9641 2.0023 22.8424 2.15192C22.6829 2.42875 22.9597 2.88525 23.0899 3.06858C23.2933 3.31045 23.5172 3.53433 23.7591 3.73775C23.8892 3.83858 24.1367 3.67908 23.9186 3.43158C24.1954 3.59108 24.5437 3.56175 24.3842 3.16942C24.6299 3.37292 25.0369 3.38759 24.7912 2.87975C24.9507 3.00992 25.4164 2.99525 25.1249 2.60292C25.3724 2.67625 25.6474 2.52959 25.4586 2.28392C25.7794 2.32609 25.9536 2.10058 25.6419 1.91725C25.9371 2.00708 26.0251 1.64408 25.8216 1.61475ZM23.9754 5.58209C23.8617 5.62955 23.7446 5.66877 23.6252 5.69942C23.8191 6.20158 24.1849 6.61866 24.6574 6.87642C24.9636 7.02125 25.0937 6.69308 24.9196 6.50975C24.6427 6.28058 24.2357 5.84425 23.9754 5.58209ZM29.7467 5.68475C28.5263 5.31263 27.3315 4.86128 26.1699 4.33359C26.0365 4.47635 25.8789 4.59429 25.7042 4.68192C26.5243 5.27261 27.4458 5.70761 28.4231 5.96525C28.8777 6.08838 29.3534 6.11276 29.8182 6.03675C30.1244 5.92675 29.9924 5.74342 29.7467 5.68475ZM26.2707 6.38142C26.1112 6.26592 25.1377 5.62609 24.7161 5.33642C24.6281 5.37859 24.4099 5.45192 24.3237 5.48125C24.5256 5.80974 24.7943 6.09212 25.1123 6.31005C25.4304 6.52798 25.7907 6.6766 26.1699 6.74625C26.5952 6.77375 26.4889 6.52808 26.2707 6.38142ZM33.1622 4.17225C32.5939 4.10075 28.7622 3.49025 27.7246 3.21342C27.3029 3.11259 27.1141 3.15475 27.0572 3.27208C27.0004 3.38942 27.0132 3.59109 27.3029 3.69375C27.5926 3.79642 30.9952 4.57925 31.6204 4.62325C32.1583 4.665 32.6981 4.57041 33.1897 4.34825C33.3786 4.20158 33.1622 4.17225 33.1622 4.17225ZM34.3979 3.14009C33.9891 3.14009 29.1344 2.77342 28.1169 2.55892C27.7686 2.52958 27.5357 2.51492 27.5064 2.66158C27.4771 2.80825 27.4917 2.87975 27.7832 2.96592C29.6722 3.35818 31.5858 3.62036 33.5106 3.75058C34.1211 3.73775 34.8324 3.15475 34.3979 3.14009ZM35.5602 2.05109C34.9644 2.06575 31.9981 2.08042 31.6497 2.06575C31.3014 2.05108 28.6266 1.90442 28.3057 1.88242C27.9849 1.86042 27.6952 1.94108 27.6952 2.04375C27.6952 2.14642 27.7686 2.22708 28.1316 2.30409C30.1967 2.59216 32.2798 2.73307 34.3649 2.72575C34.8364 2.74203 35.2961 2.5759 35.6482 2.26192C35.8206 2.03642 35.6317 2.05109 35.5602 2.05109ZM36.1707 0.756752C35.1386 0.756752 32.7699 0.830085 32.3207 0.830085C30.8978 0.929081 29.4811 1.10349 28.0766 1.35258C27.8584 1.42592 27.7997 1.65875 28.0766 1.67342C28.3534 1.68809 31.7249 1.73025 32.2181 1.73025C32.7112 1.73025 36.0846 1.78892 36.5502 1.19309C36.8619 0.756752 36.4604 0.771419 36.1707 0.756752ZM26.9106 3.82392C26.6337 3.73592 26.5329 3.82392 26.4889 3.92659C26.4694 3.95409 26.4564 3.98573 26.451 4.01905C26.4457 4.05237 26.448 4.08648 26.458 4.11874C26.4679 4.15099 26.4851 4.18053 26.5083 4.20507C26.5314 4.22961 26.5599 4.24849 26.5916 4.26025C27.8657 4.80679 29.1962 5.21133 30.5589 5.46659C30.9115 5.45489 31.2578 5.37063 31.5764 5.21909C31.7084 5.14758 31.6497 5.14758 31.6204 5.03575C31.2134 4.94408 27.8786 4.18692 26.9106 3.82392ZM28.0747 6.12108C27.1745 5.78732 26.3037 5.3789 25.4714 4.90009C25.3365 4.99188 25.1956 5.07456 25.0497 5.14758C25.4619 5.47953 25.8941 5.78567 26.3441 6.06425C26.8188 6.38204 27.3888 6.52583 27.9574 6.47125C28.2049 6.44008 28.3204 6.20725 28.0747 6.12108ZM27.0407 2.83575C27.0847 2.69092 26.9399 2.55892 26.7657 2.54425C26.3147 2.45808 25.8931 2.36092 25.8491 2.48742C25.8051 2.61392 25.7776 2.64692 26.1992 2.86508C26.6209 3.08325 26.9839 3.00992 27.0407 2.83575ZM27.2461 1.51208C26.9252 1.51208 26.3587 1.52675 26.3441 1.69542C26.3294 1.86409 26.8097 1.94109 27.1874 1.95575C27.6806 1.97775 27.6806 1.51208 27.2461 1.51208ZM27.4056 2.26008C27.4331 2.17208 27.4331 2.07675 27.1874 2.02725C26.9252 1.99792 26.1552 1.91175 26.1552 2.05658C26.1552 2.20142 26.3881 2.37559 26.8097 2.43425C27.2314 2.49292 27.3616 2.34075 27.4056 2.26008ZM26.5769 3.08325C26.3917 2.97411 26.1972 2.88148 25.9957 2.80642C25.9371 2.79175 25.7482 2.71842 25.6602 2.86508C25.5722 3.01175 25.6034 3.23175 26.2286 3.40225C26.8537 3.57275 26.7364 3.17675 26.5769 3.08325ZM25.6602 4.31892C25.8931 3.99808 25.1671 3.75059 24.9269 3.64975C24.8938 3.62844 24.8547 3.61836 24.8154 3.621C24.7761 3.62364 24.7387 3.63886 24.7087 3.66442C24.5786 3.86792 25.1011 4.21442 25.2037 4.27492C25.3064 4.33542 25.5301 4.46008 25.6602 4.31892ZM26.1846 3.53242C25.7042 3.27209 25.1671 3.14008 25.0846 3.30142C25.0021 3.46275 25.3467 3.70842 25.8179 3.94125C26.2891 4.17408 26.4119 3.66442 26.1846 3.53242ZM12.9424 7.02675C13.0312 7.07698 13.1362 7.08994 13.2345 7.06279C13.3328 7.03563 13.4163 6.97058 13.4667 6.88192C13.3557 6.64537 13.2768 6.39504 13.2321 6.13758C13.0487 6.34292 12.8892 6.50425 12.7811 6.64908C12.6729 6.79392 12.8104 6.97725 12.9424 7.02675ZM12.8544 4.82675C12.7536 5.03025 12.8251 5.14575 12.9424 5.20442C12.9956 5.21318 13.0502 5.20946 13.1017 5.19355C13.1532 5.17764 13.2004 5.14998 13.2394 5.11275C13.2844 4.88183 13.3571 4.65716 13.4557 4.44358L13.4356 4.41975C13.2761 4.30425 12.9717 4.64342 12.8544 4.82675ZM7.01157 0.815418C7.38924 0.859418 9.22074 1.32325 9.70107 1.41125C10.1814 1.49925 11.5472 1.45525 12.5207 1.48275C13.4942 1.51025 13.9159 1.80358 14.0461 2.15192C14.1762 2.50025 13.6244 3.25192 13.5089 3.49025C13.3256 3.85692 13.5236 3.93575 13.7014 4.00725C13.7307 3.96081 13.7619 3.91559 13.7949 3.87159C13.8244 3.5383 13.9342 3.21712 14.1149 2.93552C14.2957 2.65392 14.5419 2.42028 14.8326 2.25458C15.0782 2.07125 15.4706 1.80359 15.2817 1.32325C15.0929 0.842919 14.0901 0.773252 13.6317 0.727419C12.94 0.683794 12.2463 0.683794 11.5546 0.727419C11.1182 0.756752 9.90457 0.786085 9.3729 0.786085C8.84124 0.786085 7.39657 0.698084 6.96024 0.698084C6.8374 0.712751 6.8374 0.793418 7.01157 0.815418ZM14.6089 0.952919C14.7373 1.01336 14.86 1.08515 14.9756 1.16742C15.0875 1.23935 15.1696 1.34943 15.2066 1.47725V1.48825C15.219 1.60044 15.1966 1.71373 15.1424 1.81275C15.0637 1.9392 14.9602 2.04834 14.8381 2.13358C14.8254 2.14448 14.8107 2.15264 14.7948 2.15757C14.7788 2.16249 14.762 2.16407 14.7455 2.1622C14.7289 2.16033 14.7129 2.15505 14.6985 2.1467C14.684 2.13835 14.6715 2.12711 14.6616 2.11367C14.6517 2.10024 14.6447 2.08491 14.641 2.06864C14.6373 2.05237 14.6371 2.03552 14.6402 2.01914C14.6434 2.00277 14.6499 1.98721 14.6593 1.97347C14.6687 1.95972 14.6809 1.94807 14.6951 1.93925C14.7901 1.8782 14.8698 1.79601 14.9279 1.69909C14.9586 1.64317 14.9714 1.57917 14.9646 1.51575C14.9339 1.45366 14.8862 1.40153 14.8271 1.36542C14.7272 1.29376 14.6203 1.23235 14.5081 1.18209C14.493 1.17546 14.4794 1.16594 14.4681 1.15407C14.4567 1.14219 14.4478 1.1282 14.4418 1.11287C14.4359 1.09755 14.433 1.08121 14.4333 1.06477C14.4337 1.04834 14.4373 1.03213 14.4439 1.01709C14.4505 1.00204 14.46 0.988442 14.4719 0.977073C14.4838 0.965705 14.4978 0.956788 14.5131 0.95083C14.5284 0.944871 14.5448 0.941988 14.5612 0.942347C14.5777 0.942705 14.5939 0.946298 14.6089 0.952919ZM12.0404 4.53709C12.1999 4.40509 12.5354 4.14292 12.3906 3.95408C12.2586 3.79458 11.8222 4.15758 11.6774 4.23092C11.1952 4.53708 11.7452 4.79742 12.0404 4.53709ZM12.1999 4.95692C12.4327 5.11825 12.5666 4.95692 12.6802 4.84142C12.7939 4.72592 13.1752 4.33358 13.0286 4.15758C12.8819 3.98158 12.5647 4.28958 12.4327 4.36108C12.2952 4.52242 11.9396 4.76808 12.1999 4.95692ZM12.3466 5.48125C12.2095 5.43698 12.0738 5.38868 11.9396 5.33642C11.5179 5.62609 10.5591 6.26592 10.3977 6.38142C10.1796 6.52808 10.0641 6.77375 10.5004 6.74808C10.8798 6.67822 11.2402 6.52932 11.5583 6.31106C11.8763 6.09281 12.1449 5.81008 12.3466 5.48125ZM11.7452 6.51342C11.5619 6.69675 11.6866 7.02125 12.0056 6.88009C12.4723 6.61516 12.836 6.20045 13.0377 5.70308C12.9135 5.67042 12.7912 5.63126 12.6711 5.58575C12.4181 5.84425 12.0257 6.28059 11.7452 6.51342ZM2.30174 2.73309C4.38688 2.74041 6.46991 2.59949 8.53507 2.31142C8.90174 2.23992 8.95674 2.15192 8.95674 2.05109C8.95674 1.95025 8.66707 1.86775 8.34624 1.88975C8.0254 1.91175 5.3524 2.05108 5.01874 2.07308C4.68507 2.09508 1.70407 2.07309 1.10824 2.05842C1.02024 2.05842 0.84607 2.04375 1.00557 2.27658C1.36675 2.58304 1.82823 2.74557 2.30174 2.73309ZM9.3619 3.69375C9.6534 3.59109 9.6534 3.38758 9.6094 3.27208C9.5654 3.15658 9.3619 3.11259 8.94024 3.21342C7.90807 3.49025 4.0709 4.10075 3.48974 4.17225C3.48974 4.17225 3.28624 4.20159 3.47507 4.35559C3.96753 4.57729 4.50775 4.67185 5.04624 4.63058C5.67324 4.57925 9.06124 3.79459 9.3619 3.69375ZM9.46824 1.94842C9.86057 1.93375 10.3262 1.83292 10.3262 1.68808C10.3262 1.54325 9.74324 1.50475 9.42424 1.50475C8.99524 1.51209 8.97324 1.97775 9.46824 1.94842ZM4.45407 1.73025C4.94724 1.73025 8.30407 1.68625 8.5809 1.67342C8.85774 1.66059 8.81374 1.42592 8.5809 1.35258C7.18126 1.10401 5.76946 0.929596 4.3514 0.830085C3.88574 0.830085 1.51707 0.756752 0.501403 0.756752C0.209903 0.771419 -0.211763 0.756752 0.123737 1.19309C0.572904 1.78892 3.95907 1.73025 4.45407 1.73025ZM9.16207 2.66158C9.13274 2.51492 8.90174 2.52958 8.55157 2.55892C7.53407 2.77708 2.6849 3.14009 2.25774 3.14009C1.83057 3.14009 2.54924 3.73775 3.15974 3.75058C5.08455 3.62036 6.99816 3.35818 8.88707 2.96592C9.17857 2.87975 9.1914 2.81008 9.16207 2.66158ZM11.6187 5.14758C11.5179 5.10358 11.2997 4.96425 11.1824 4.90009C10.3507 5.37881 9.48055 5.78722 8.5809 6.12108C8.3334 6.20725 8.45074 6.44009 8.69824 6.46942C9.26698 6.52554 9.83751 6.38162 10.3116 6.06242C10.7658 5.78488 11.2024 5.47935 11.6187 5.14758ZM10.1796 3.92659C10.1374 3.82392 10.0347 3.74325 9.7579 3.82392C8.79907 4.19059 5.45507 4.94409 5.04807 5.03025C5.02057 5.14759 4.9619 5.14758 5.09207 5.21358C5.40612 5.36319 5.74731 5.4474 6.0949 5.46108C7.45934 5.21044 8.79092 4.80574 10.0641 4.25475C10.0964 4.24481 10.126 4.22742 10.1504 4.20398C10.1748 4.18054 10.1933 4.15171 10.2046 4.11979C10.2158 4.08788 10.2194 4.05377 10.215 4.02022C10.2107 3.98666 10.1986 3.95459 10.1796 3.92659ZM10.5004 4.33359C9.33878 4.86128 8.14396 5.31263 6.92357 5.68475C6.6779 5.74342 6.5459 5.93225 6.8374 6.03309C7.30716 6.1084 7.78751 6.08403 8.24724 5.96158C9.22383 5.70374 10.1448 5.26875 10.9642 4.67825C10.7906 4.59154 10.6335 4.47486 10.5004 4.33359ZM10.4271 3.40225C11.0669 3.21892 11.0962 3.00992 11.0082 2.86508C10.9202 2.72025 10.7186 2.79175 10.6746 2.80642C10.4718 2.87839 10.2771 2.97116 10.0934 3.08325C9.9339 3.17675 9.8019 3.56175 10.4271 3.40225ZM13.8151 2.15192C13.6931 2.00207 13.5402 1.88041 13.3668 1.79528C13.1933 1.71014 13.0035 1.66357 12.8104 1.65875C12.1511 1.60835 11.4895 1.59367 10.8286 1.61475C10.6452 1.64408 10.7277 2.00708 11.0321 1.91908C10.6984 2.10242 10.8872 2.32608 11.1916 2.28575C11.0082 2.53142 11.2942 2.67808 11.5417 2.60475C11.2502 2.99708 11.7251 3.01175 11.8754 2.88158C11.6279 3.38942 12.0349 3.37475 12.2824 3.17125C12.1229 3.56358 12.4657 3.59292 12.7481 3.43342C12.5299 3.68092 12.7774 3.84042 12.9076 3.73958C13.0524 3.60758 13.4301 3.24459 13.5767 3.07042C13.7234 2.89625 13.9892 2.42875 13.8151 2.15192ZM11.4592 4.27675C11.5619 4.21809 12.0697 3.86975 11.9396 3.66625C11.8956 3.59292 11.7782 3.62225 11.7361 3.65158C11.5032 3.75242 10.7754 3.99992 11.0027 4.32075C11.1402 4.46009 11.3786 4.33359 11.4592 4.27675ZM9.8459 2.42875C10.2822 2.37008 10.5151 2.19592 10.5151 2.05109C10.5151 1.90625 9.74324 1.99242 9.4829 2.02175C9.2354 2.06575 9.2354 2.16658 9.26474 2.25458C9.29407 2.34258 9.42424 2.50025 9.8459 2.42875ZM10.8286 3.94125C11.3089 3.70842 11.6426 3.47558 11.5619 3.30142C11.4812 3.12725 10.9532 3.27209 10.4619 3.53242C10.2676 3.66442 10.3684 4.17225 10.8286 3.94125ZM10.4711 2.86508C10.8927 2.64692 10.8634 2.60292 10.8194 2.48742C10.7754 2.37192 10.3409 2.45808 9.8899 2.54425C9.7304 2.55892 9.58374 2.69092 9.62774 2.83575C9.6864 3.00992 10.0641 3.06858 10.4711 2.86508ZM20.2776 10.7374L19.6542 9.24142C19.5272 9.26864 19.3994 9.29248 19.2711 9.31292C19.2618 9.32833 19.2586 9.34659 19.2619 9.36425L19.6396 10.9483L19.6634 11.0326C19.6852 11.1266 19.7431 11.2083 19.8247 11.2599C19.8945 11.2953 19.975 11.3031 20.0502 11.2819L20.1052 11.2673L20.1382 11.2563C20.1735 11.2443 20.206 11.2253 20.2338 11.2004C20.2615 11.1755 20.2839 11.1452 20.2996 11.1114C20.3358 11.0132 20.3358 10.9053 20.2996 10.8071L20.2776 10.7374ZM18.5542 11.0271L18.4222 9.41375V9.39542H18.0207V9.41009L17.8887 11.0234V11.0913C17.8803 11.1966 17.9117 11.3013 17.9767 11.3846C18.0364 11.4437 18.1164 11.4778 18.2004 11.4799H18.2939C18.3286 11.479 18.3627 11.471 18.3942 11.4565C18.4257 11.442 18.454 11.4213 18.4772 11.3956C18.5351 11.3218 18.5667 11.2308 18.5671 11.1371C18.561 11.1065 18.5567 11.0699 18.5542 11.0271ZM16.5412 9.22675C16.545 9.21776 16.547 9.20809 16.547 9.19833C16.547 9.18858 16.545 9.17892 16.5412 9.16992C16.4128 9.13664 16.2856 9.09873 16.1599 9.05625L15.3404 10.4349C15.2717 10.5394 15.2407 10.6642 15.2524 10.7888C15.2635 10.8355 15.2847 10.8792 15.3145 10.9169C15.3442 10.9546 15.3819 10.9853 15.4247 11.0069C15.4712 11.0316 15.5224 11.0461 15.5749 11.0492C15.6274 11.0524 15.68 11.0442 15.7291 11.0253C15.8321 10.9636 15.908 10.8654 15.9417 10.7503L15.9729 10.6604L16.0664 10.4331L16.5376 9.23775L16.5412 9.22675ZM16.7979 10.9538L17.1756 9.36792C17.1818 9.35137 17.1818 9.33314 17.1756 9.31658C17.0472 9.29615 16.9195 9.27231 16.7924 9.24509L16.2644 10.5101L16.1397 10.8254C16.1084 10.9194 16.1084 11.0211 16.1397 11.1151C16.1556 11.1491 16.1783 11.1795 16.2063 11.2044C16.2344 11.2293 16.2673 11.2482 16.3029 11.2599L16.3377 11.2709L16.3744 11.2819C16.4526 11.3072 16.5376 11.3006 16.6109 11.2636C16.7002 11.2054 16.7653 11.1168 16.7942 11.0143L16.7979 10.9538ZM19.0511 9.36975L19.0401 9.34408C18.9121 9.35908 18.7837 9.37069 18.6551 9.37892C18.6448 9.39261 18.6396 9.40947 18.6404 9.42659L18.7357 10.7686L18.7559 11.0106V11.0693C18.7592 11.1825 18.8013 11.2913 18.8751 11.3773C18.9144 11.4093 18.96 11.4329 19.0089 11.4465C19.0578 11.4601 19.109 11.4633 19.1592 11.4561C19.2073 11.4503 19.2534 11.4333 19.2939 11.4066C19.3343 11.3799 19.3679 11.3441 19.3921 11.3021C19.4406 11.1858 19.4477 11.0563 19.4122 10.9354L19.0511 9.36975ZM17.7952 9.42475C17.7961 9.40764 17.7909 9.39077 17.7806 9.37708C17.6501 9.36835 17.5199 9.35612 17.3901 9.34042V9.36975L17.0234 10.9373C16.9879 11.0582 16.995 11.1876 17.0436 11.3039C17.0677 11.3459 17.1014 11.3817 17.1418 11.4084C17.1822 11.4352 17.2283 11.4521 17.2764 11.4579C17.3264 11.4649 17.3772 11.4615 17.4258 11.4479C17.4744 11.4344 17.5196 11.4109 17.5587 11.3791C17.6346 11.2942 17.6775 11.1849 17.6797 11.0711V11.0124L17.6999 10.7723L17.7952 9.42842V9.42475ZM20.2776 9.06542C20.1512 9.10732 20.0234 9.14462 19.8944 9.17725C19.8884 9.19572 19.8884 9.21562 19.8944 9.23408L20.3656 10.4294L20.4609 10.6568L20.4939 10.7503C20.5272 10.8651 20.6024 10.9633 20.7047 11.0253C20.7538 11.0442 20.8064 11.0524 20.8589 11.0492C20.9114 11.0461 20.9626 11.0316 21.0091 11.0069C21.0507 10.9861 21.0872 10.9561 21.1157 10.9193C21.1443 10.8825 21.1642 10.8398 21.1741 10.7943C21.191 10.6664 21.1625 10.5366 21.0934 10.4276L20.2776 9.06542ZM15.1956 2.15192C14.6868 2.44761 14.3055 2.92105 14.1249 3.48109C14.6711 2.96445 15.3139 2.56057 16.0163 2.29255C16.7188 2.02452 17.4672 1.89762 18.2187 1.91908C19.0435 1.88695 19.865 2.04025 20.6227 2.36769C21.3804 2.69513 22.055 3.18837 22.5967 3.81108C22.5437 3.4701 22.4155 3.14517 22.2214 2.8598C22.0274 2.57444 21.7723 2.33578 21.4747 2.16108C21.2126 1.93008 20.9797 1.72475 21.2914 1.12892C21.3071 1.09919 21.3255 1.07095 21.3464 1.04458C20.3899 0.623966 19.3583 0.400521 18.3135 0.387606C17.2686 0.374691 16.2319 0.572572 15.2652 0.969419C15.3163 1.01441 15.3586 1.0685 15.3899 1.12892C15.6741 1.71009 15.4559 1.92092 15.1956 2.15192ZM24.4117 7.16975C24.3218 7.14171 24.2341 7.10677 24.1496 7.06525C23.9167 7.60425 23.0881 7.37142 22.7966 7.21008C22.2392 8.04647 21.4224 8.67647 20.4719 9.00309L21.2547 10.3213C21.8112 10.0809 22.3318 9.76504 22.8021 9.38258C23.5263 8.80168 24.0821 8.03769 24.4117 7.16975ZM13.6977 7.28892C13.3311 7.42458 12.7169 7.51809 12.5207 7.06525C12.3693 7.13963 12.2073 7.19033 12.0404 7.21558C12.3739 8.06319 12.9238 8.8085 13.6354 9.37708C14.1056 9.75954 14.6263 10.0754 15.1827 10.3158L15.9656 8.99575C15.0481 8.68111 14.254 8.0835 13.6977 7.28892ZM18.2187 0.175584C19.3524 0.168692 20.4736 0.412212 21.5022 0.888751C21.5642 0.849487 21.6285 0.813979 21.6947 0.782418C20.6262 0.276042 19.46 0.00909487 18.2776 0.000228359C17.0952 -0.00863815 15.9251 0.24079 14.8491 0.731085C14.9225 0.758249 14.9942 0.790092 15.0636 0.826419C16.0593 0.394598 17.1334 0.173027 18.2187 0.175584ZM15.0947 10.4973C14.5238 10.2501 13.9896 9.92565 13.5071 9.53292C12.7519 8.92857 12.1726 8.13277 11.8296 7.22842C11.7683 7.2266 11.7071 7.22171 11.6462 7.21375C11.5636 7.19911 11.4834 7.1732 11.4079 7.13675C11.751 8.18209 12.3874 9.10675 13.2412 9.80058C13.7914 10.2538 14.4047 10.6243 15.0617 10.9006L15.0452 10.8383C15.0368 10.783 15.0368 10.7267 15.0452 10.6714C15.0545 10.6115 15.0711 10.553 15.0947 10.4973ZM22.9286 9.52925C22.4457 9.92341 21.9109 10.2491 21.3391 10.4973C21.36 10.5528 21.3742 10.6106 21.3812 10.6696C21.986 10.409 22.5508 10.0639 23.0587 9.64475C23.841 9.00988 24.4366 8.17482 24.7821 7.22842C24.7246 7.23086 24.6684 7.22597 24.6134 7.21375C24.2708 8.12338 23.6887 8.92345 22.9286 9.52925ZM18.6441 11.5019H18.7137L18.6752 11.4543L18.6441 11.5019ZM15.9271 11.1408L15.8757 11.1793L15.9491 11.2013L15.9271 11.1408ZM16.8346 11.3314L16.7777 11.3901L16.8676 11.4048L16.8346 11.3314ZM20.4902 11.1939L20.5654 11.1719L20.5141 11.1334L20.4902 11.1939ZM17.7237 11.4983H17.8007L17.7622 11.4433L17.7237 11.4983ZM19.5992 11.3369C19.5992 11.3571 19.5827 11.3773 19.5736 11.3974L19.6597 11.3828L19.5992 11.3369Z" fill="#0F0F0F"/>
</svg>