<svg xmlns="http://www.w3.org/2000/svg" width="44" height="44" viewBox="0 0 44 44" fill="none">
  <path d="M22 12.0377H21.7525C18.9535 12.0704 16.2811 13.2094 14.3192 15.206C12.3573 17.2026 11.2652 19.8945 11.2816 22.6936C11.2979 25.4928 12.4213 28.1717 14.4064 30.1453C16.3916 32.1188 19.077 33.2266 21.8762 33.2266C24.6754 33.2266 27.3609 32.1188 29.346 30.1453C31.3311 28.1717 32.4545 25.4928 32.4709 22.6936C32.4872 19.8945 31.3952 17.2026 29.4332 15.206C27.4713 13.2094 24.799 12.0704 22 12.0377ZM31.218 22.5078H21.9046V31.823C19.4368 31.8254 17.0691 30.8476 15.3223 29.1045C13.5754 27.3614 12.5924 24.9958 12.5895 22.528V22.5078H21.9046V13.2C23.1265 13.1985 24.3366 13.4378 25.466 13.904C26.5954 14.3703 27.6219 15.0544 28.4869 15.9173C29.3519 16.7803 30.0384 17.8052 30.5074 18.9334C30.9763 20.0617 31.2184 21.2713 31.2198 22.4932L31.218 22.5078ZM13.6235 12.8828C13.7651 12.7517 13.8716 12.5872 13.9333 12.4043C13.9504 12.3303 13.944 12.2527 13.9151 12.1825C13.8862 12.1122 13.8362 12.0526 13.772 12.012C13.7115 11.9706 13.64 11.9482 13.5666 11.9478C13.4928 11.9517 13.4204 11.9704 13.354 12.0028C13.2188 12.0861 13.0981 12.1907 12.9965 12.3127C12.6078 12.7142 11.4216 13.9627 11.4216 13.9627L12.0541 14.5658L13.6235 12.8828ZM12.584 11.1558C12.574 11.1052 12.5539 11.0572 12.525 11.0145C12.4961 10.9718 12.4589 10.9354 12.4157 10.9073C12.3724 10.8793 12.324 10.8602 12.2732 10.8513C12.2224 10.8423 12.1704 10.8436 12.1201 10.8552C11.9959 10.8983 11.8836 10.9699 11.792 11.0642C11.2254 11.6141 10.6916 12.1969 10.1933 12.8095L10.7983 13.387C10.7983 13.387 12.0211 12.1037 12.3511 11.737C12.4338 11.6659 12.4981 11.576 12.5386 11.4749C12.5791 11.3737 12.5947 11.2643 12.584 11.1558ZM22 5.09482C18.6559 5.09446 15.3869 6.08578 12.6063 7.9434C9.82563 9.80103 7.65833 12.4415 6.37845 15.5309C5.09858 18.6204 4.76361 22.02 5.41591 25.2998C6.06821 28.5796 7.67848 31.5923 10.0431 33.9569C12.4077 36.3215 15.4204 37.9317 18.7002 38.584C21.98 39.2364 25.3796 38.9014 28.469 37.6215C31.5584 36.3416 34.1989 34.1743 36.0565 31.3937C37.9142 28.6131 38.9055 25.344 38.9051 22C38.9054 19.7799 38.4683 17.5815 37.6188 15.5304C36.7693 13.4792 35.5241 11.6155 33.9543 10.0457C32.3844 8.47586 30.5207 7.23064 28.4696 6.38116C26.4184 5.53168 24.2201 5.09458 22 5.09482ZM19.3893 6.46799C19.8892 6.41177 20.3872 6.37205 20.8835 6.34882L21.8698 8.79999L21.9046 8.98332L21.9395 8.79999L22.9166 6.34882C23.4153 6.37205 23.9134 6.41177 24.4108 6.46799L24.5758 10.9028C24.2205 10.8441 23.8635 10.797 23.5051 10.7617L23.4006 7.76599L23.4153 7.55882L23.3548 7.75682L22.3666 9.99899H21.45L20.4471 7.75499L20.383 7.55882L20.4031 7.76599L20.2968 10.7617C19.9301 10.7965 19.5818 10.8442 19.228 10.9028L19.3893 6.46799ZM8.87147 13.0002C9.23813 12.5308 9.61825 12.0719 10.0118 11.6233C11.1485 10.3547 11.5683 9.98432 12.111 9.92749C12.3999 9.89335 12.6906 9.9751 12.9195 10.1548C13.0824 10.2815 13.2041 10.4535 13.2694 10.6493C13.3346 10.8451 13.3404 11.0558 13.2861 11.2548L13.2715 11.2933L13.3136 11.2787C13.5281 11.1821 13.7676 11.1556 13.998 11.203C14.2284 11.2504 14.438 11.3693 14.597 11.5427C15.1763 12.2155 14.85 12.9158 14.2725 13.5263C13.4548 14.388 13.035 14.8097 11.9991 15.9573L8.87147 13.0002ZM24.2165 33.2567C23.4925 33.4049 22.7555 33.4799 22.0165 33.4803C21.6448 33.4802 21.2734 33.4612 20.9036 33.4235C18.1059 33.1377 15.5247 31.7888 13.6927 29.6551C11.8606 27.5214 10.9176 24.7658 11.0583 21.9571C11.199 19.1483 12.4125 16.5007 14.4486 14.5608C16.4846 12.6208 19.1877 11.5365 22 11.5317H22.2511C24.9532 11.5836 27.5411 12.6309 29.5187 14.4729C31.4964 16.3149 32.7246 18.822 32.9681 21.5135C33.2116 24.2051 32.4532 26.8919 30.8382 29.0589C29.2233 31.2259 26.8654 32.7206 24.2165 33.2567ZM31.4673 15.5833C31.215 15.2557 30.9489 14.9388 30.6698 14.6337L31.8028 12.4447L31.9055 12.3035L31.768 12.408L29.568 13.5428C29.3205 13.3155 28.9336 12.9928 28.6385 12.7563L30.9833 9.09882C31.3133 9.35366 31.57 9.56266 31.8413 9.79182L30.3068 12.111L30.1711 12.2705L30.3435 12.1532L32.3876 11.1283L33.11 11.8507L32.0833 13.8948L31.966 14.0672L32.1236 13.9297L34.4428 12.4007C34.6872 12.6805 34.9182 12.9659 35.1358 13.2568L31.4673 15.5833ZM22 3.66666C18.374 3.66666 14.8294 4.74189 11.8145 6.75638C8.79961 8.77087 6.44978 11.6341 5.06218 14.9841C3.67457 18.3341 3.31151 22.0203 4.0189 25.5766C4.7263 29.133 6.47238 32.3997 9.03634 34.9636C11.6003 37.5276 14.867 39.2737 18.4233 39.9811C21.9796 40.6884 25.6659 40.3254 29.0158 38.9378C32.3658 37.5502 35.2291 35.2003 37.2436 32.1854C39.2581 29.1705 40.3333 25.626 40.3333 22C40.3284 17.1392 38.3953 12.4788 34.9582 9.04173C31.5211 5.60461 26.8608 3.67151 22 3.66666ZM22 39.831C18.4733 39.831 15.0259 38.7852 12.0936 36.8259C9.1613 34.8666 6.87586 32.0818 5.52627 28.8236C4.17669 25.5654 3.82357 21.9802 4.51159 18.5213C5.1996 15.0625 6.89784 11.8853 9.39155 9.39157C11.8853 6.89786 15.0624 5.19962 18.5213 4.51161C21.9802 3.82359 25.5654 4.17671 28.8236 5.52629C32.0818 6.87588 34.8666 9.16132 36.8259 12.0936C38.7852 15.0259 39.831 18.4734 39.831 22C39.8256 26.7274 37.9453 31.2597 34.6025 34.6025C31.2597 37.9453 26.7274 39.8256 22 39.831Z" fill="#0F0F0F"/>
</svg>
