<svg xmlns="http://www.w3.org/2000/svg" width="44" height="18" viewBox="0 0 44 18" fill="none">
    <path d="M5.1095 3.86467H8.96683L8.23717 2.5465H21.3253V3.861H21.7617V2.09183H3.91417L5.1095 3.86467ZM5.47983 5.60267H21.758V4.2845H5.269L5.47983 5.60267ZM9.614 7.81H5.83733L5.544 6.0115H21.7617V7.81H21.3235V6.43317H9.4765L9.614 7.81ZM15.6622 9.07867H21.7598V10.0228H15.6622V9.07867ZM22.242 2.09183H28.3965V4.73917H22.242V2.09183ZM6.7155 12.3017C6.8145 12.4593 6.99967 12.6427 7.61383 12.8168C7.8815 12.8847 8.173 12.9525 8.558 13.0405L8.70467 13.0753H15.235V12.1403H6.62933C6.65378 12.1966 6.68189 12.2503 6.71367 12.3017H6.7155ZM15.235 10.8735H6.3415L5.90517 8.2335H15.235V10.8735ZM15.6603 14.5787C17.9392 15.0425 20.1648 15.4733 21.7635 15.7337V11.3007H15.6603V14.5787ZM38.1663 7.81H28.8163V5.16083H38.5935L38.1663 7.81ZM28.8163 2.93333V3.87383L38.8722 3.87017L39.5028 2.93333H28.8163ZM0 0L2.96267 4.34317C3.28717 6.1875 4.136 10.9413 4.23317 11.4015L4.24417 11.4602C4.5155 12.7545 4.68233 13.5483 7.15917 14.1607C10.505 14.9857 18.1537 16.5862 21.9982 17.2113C25.8427 16.5862 33.495 14.9838 36.8427 14.1607C39.3177 13.5483 39.4827 12.7545 39.7558 11.4602L39.7668 11.4015C39.864 10.9377 40.7128 6.1875 41.0373 4.34317L44 0H0ZM39.3323 4.28083L38.8245 7.42867C38.5312 9.251 38.335 10.4665 38.2378 11.0055L38.225 11.0697L38.203 11.198C37.9702 12.4667 37.8675 13.035 36.5347 13.4072C33.7553 14.091 25.7033 15.8088 22.0018 16.3882C18.3022 15.8088 10.2502 14.0892 7.47267 13.4072C6.13983 13.035 6.03717 12.4667 5.80433 11.1962L5.7695 11.0055C5.67233 10.4775 5.4835 9.3005 5.20117 7.5405L4.675 4.279L2.33933 0.814H41.6643L39.3323 4.28083ZM22.6783 10.0228H22.242V8.2335H38.1003L37.807 10.0265H34.133C34.1898 9.713 34.298 8.81833 34.3145 8.68817H22.6783V10.0228ZM22.242 11.7498H37.499L37.7447 10.4372H22.242V11.7498ZM22.242 6.01333H28.3983V6.95933H22.242V6.01333ZM22.242 12.1403V15.7318C26.1195 15.0718 33.6508 13.5227 36.3917 12.8132C37.0113 12.6537 37.1947 12.4593 37.2937 12.3017C37.3264 12.2507 37.3541 12.1967 37.3762 12.1403H22.242ZM26.4513 14.4907L25.6905 14.641C25.3055 14.718 24.4713 14.8702 23.738 15.0058L22.6802 15.2002V12.5932H33.4602C32.9652 13.1982 31.9715 13.3943 26.4513 14.4907Z" fill="#0F0F0F"/>
</svg>