<svg xmlns="http://www.w3.org/2000/svg" width="44" height="15" viewBox="0 0 44 15" fill="none">
    <path d="M43.8256 3.10933H29.1864V0.289667C29.1866 0.251714 29.1794 0.214088 29.165 0.178954C29.1506 0.143821 29.1295 0.111874 29.1027 0.0849514C29.076 0.0580291 29.0442 0.0366636 29.0091 0.0220841C28.9741 0.00750459 28.9365 -7.69829e-07 28.8986 0H15.1027C15.0648 -7.69829e-07 15.0272 0.00750459 14.9921 0.0220841C14.9571 0.0366636 14.9253 0.0580291 14.8985 0.0849514C14.8718 0.111874 14.8506 0.143821 14.8363 0.178954C14.8219 0.214088 14.8146 0.251714 14.8149 0.289667V3.10933H4.32272C4.16322 3.10933 3.96888 3.23767 3.88822 3.399L0.0363829 10.945C-0.0461171 11.1063 0.0162163 11.2328 0.17755 11.2328H14.8131V14.0562C14.8131 14.2138 14.9414 14.344 15.1009 14.344H28.8967C29.0562 14.344 29.1846 14.2157 29.1846 14.0562V11.2328H39.6767C39.8362 11.2328 40.0306 11.1045 40.1131 10.945L43.9631 3.399C44.0456 3.2395 43.9832 3.10933 43.8237 3.10933M39.2514 4.93533L36.9707 9.40317H27.3787V12.5345H16.6281V9.40317H4.75722L7.03972 4.93533H16.6317V1.80583H27.3824V4.93533H39.2514Z" fill="#0F0F0F"/>
</svg>