<svg xmlns="http://www.w3.org/2000/svg" width="37" height="8" viewBox="0 0 37 8" fill="none">
    <path d="M12.551 4.23181H14.3972C14.5333 4.25588 14.6654 4.29909 14.7895 4.36015C14.964 4.45174 15.1572 4.50192 15.3542 4.50681H21.0778C21.2748 4.50192 21.468 4.45174 21.6425 4.36015C21.7666 4.29909 21.8987 4.25588 22.0348 4.23181C22.1228 4.22081 22.6948 4.23181 23.881 4.23181C26.785 4.24281 32.186 4.26298 35.1322 4.03565C35.387 4.01731 35.8453 3.94765 36.1222 3.90365C35.9132 3.88715 22.6527 3.80831 22.5188 3.80648C22.3226 3.81891 22.1276 3.84711 21.9358 3.89082C21.7796 3.94859 21.626 4.01343 21.4757 4.08515C21.2923 4.16765 21.0577 4.26848 20.9513 4.30515C20.658 4.39315 18.1793 4.39681 18.073 4.39681V4.32531L18.062 4.39315C17.3635 4.39315 15.7318 4.37481 15.4953 4.30515C15.389 4.27215 15.1763 4.17682 14.971 4.08515C14.7657 3.99348 14.6043 3.92015 14.5108 3.89082C14.3173 3.84682 14.1205 3.81862 13.9223 3.80648C13.7922 3.80648 0.539 3.88715 0.322667 3.90548C0.601334 3.94948 1.056 4.01731 1.31267 4.03748C4.24417 4.26298 9.647 4.24281 12.551 4.23181ZM22.6692 4.76715H13.7353C13.7353 4.82948 13.8013 5.01648 14.1973 5.36298C14.4057 5.55673 14.6555 5.70037 14.9278 5.78297C15.2001 5.86558 15.4876 5.88496 15.7685 5.83965H18.1152H20.6323C20.9131 5.8852 21.2005 5.86611 21.4728 5.78382C21.7451 5.70154 21.995 5.55824 22.2035 5.36481C22.6032 5.01648 22.6618 4.82948 22.6692 4.76715ZM15.3542 5.13381C15.2873 5.12461 15.22 5.1191 15.1525 5.11731C15.0003 5.11731 14.9068 5.15398 14.9068 5.24015C14.9068 5.32631 15.0058 5.36298 15.1525 5.36298C15.2199 5.36181 15.2873 5.35691 15.3542 5.34831H15.3725L15.3578 5.43082C15.2783 5.44218 15.198 5.44831 15.1177 5.44915C14.8408 5.44915 14.707 5.36115 14.707 5.23465C14.707 5.10815 14.8427 5.02198 15.125 5.02198C15.2029 5.02314 15.2807 5.02926 15.3578 5.04031L15.3743 5.12281H15.356L15.3542 5.13381ZM16.335 5.43631H16.1315V5.28598H15.807V5.43631H15.609V5.03665H15.807V5.18515H16.1315V5.03848H16.335V5.43631ZM17.0555 5.43631L16.8355 5.23648H16.9932C17.0482 5.22548 17.0757 5.20715 17.0757 5.18148C17.0757 5.15398 17.0573 5.13748 17.0005 5.12832H16.797V5.43448H16.6027V5.03665H16.8997C16.9796 5.03469 17.0595 5.04145 17.138 5.05681C17.2462 5.08065 17.2755 5.11915 17.2755 5.16681C17.2755 5.21081 17.2462 5.22915 17.1875 5.24748C17.1538 5.25925 17.1186 5.26604 17.083 5.26765L17.3067 5.42715L17.0555 5.43631ZM18.0272 5.12465L17.8438 5.27865V5.44548H17.6422V5.28231L17.3562 5.04398H17.5908L17.787 5.21265L17.9575 5.05865L17.974 5.04215H18.1115L18.0272 5.12465ZM18.5295 5.46198C18.4249 5.4605 18.3206 5.45008 18.2178 5.43082L18.2362 5.34648H18.2545V5.33365C18.3413 5.35964 18.4315 5.37262 18.5222 5.37215C18.6413 5.37215 18.6817 5.35565 18.6817 5.32815L18.6725 5.30981C18.6068 5.29071 18.5391 5.27903 18.4708 5.27498C18.3278 5.25848 18.2215 5.23465 18.2215 5.14298C18.2215 5.05131 18.4048 5.02198 18.5387 5.02198C18.6431 5.02164 18.7474 5.03023 18.8503 5.04765L18.8357 5.12465H18.8173V5.13748C18.7416 5.11956 18.6642 5.10972 18.5863 5.10815C18.4672 5.10815 18.4433 5.11915 18.4433 5.14481V5.15765C18.4965 5.1758 18.5522 5.18569 18.6083 5.18698C18.8247 5.21265 18.8998 5.24931 18.8998 5.32081C18.909 5.41615 18.722 5.45098 18.5295 5.45098V5.46198ZM19.7835 5.44365H19.1327V5.03665H19.3325V5.35198H19.7762L19.7835 5.44365ZM20.6158 5.44365H19.954V5.03665H20.6085V5.10265H20.5902V5.11182H20.1593V5.19981H20.5993V5.26581H20.1593V5.35931H20.6177L20.6158 5.44365ZM21.2923 5.44365L21.0668 5.23648H21.2282C21.2819 5.22548 21.3094 5.20715 21.3107 5.18148C21.3107 5.15398 21.2923 5.13748 21.2355 5.12832H21.032V5.44548H20.8303V5.03665H21.1365C21.2187 5.03785 21.3008 5.04459 21.3822 5.05681C21.4922 5.08248 21.5233 5.12281 21.5233 5.16865C21.5233 5.21448 21.4922 5.23465 21.4317 5.25481C21.3973 5.26614 21.3615 5.27231 21.3253 5.27315L21.5545 5.43815L21.2923 5.44365ZM35.1432 4.17315C32.1915 4.40048 26.7832 4.38031 23.881 4.36931H22.0477C21.9246 4.391 21.8054 4.43052 21.6938 4.48665C21.5004 4.5853 21.2875 4.63977 21.0705 4.64615H15.3542C15.1371 4.63977 14.9242 4.5853 14.7308 4.48665C14.6198 4.43069 14.5012 4.39117 14.3788 4.36931C13.7678 4.35756 13.1566 4.35756 12.5455 4.36931C9.63967 4.38031 4.23317 4.40048 1.28333 4.17315C0.8965 4.14382 0.0825 4.00815 0.0476667 4.00265H0.0275002V4.02465C0.0268134 4.05382 0.0330986 4.08273 0.0458335 4.10898L0 4.08515C0.317938 4.49261 0.737887 4.80884 1.21733 5.00181C1.70671 5.28823 2.25719 5.45413 2.82333 5.48581L5.14617 5.84148C8.80183 6.41898 14.256 7.25315 14.3367 7.26415C14.3367 7.26415 14.5988 7.30081 14.927 7.33748C15.4646 7.41657 16.0088 7.44114 16.5513 7.41081C16.8107 7.30742 17.0797 7.23004 17.3543 7.17981C17.6252 7.14877 17.8975 7.13286 18.1702 7.13215C18.4765 7.12186 18.7831 7.13719 19.0868 7.17798C19.3621 7.22809 19.6317 7.30547 19.8917 7.40898C20.4336 7.43918 20.9772 7.41461 21.5142 7.33565C21.7114 7.31475 21.9082 7.2903 22.1045 7.26231C22.1852 7.24948 27.6393 6.41898 31.295 5.83965L33.6178 5.48398C34.1822 5.44264 34.7306 5.27739 35.2238 4.99998C35.7131 4.82471 36.1375 4.50506 36.4412 4.08331L36.3953 4.10715C36.4081 4.0809 36.4144 4.05198 36.4137 4.02281V3.99715H36.3678C36.344 4.00815 35.53 4.14382 35.1432 4.17315ZM12.9598 6.13665C12.1495 5.79015 11.0532 4.99265 10.8075 4.89365C10.6478 4.83162 10.4758 4.80776 10.3052 4.82398C10.3052 4.82398 4.67133 4.59665 4.02967 4.54898C3.388 4.49765 2.244 4.36565 2.244 4.36565L10.5362 4.49765C10.6844 4.50567 10.8316 4.52652 10.9762 4.55998C11.1074 4.60105 11.2312 4.66295 11.3428 4.74332H13.4493C13.4493 4.74332 12.7288 4.76348 12.6702 4.79281C12.6115 4.82215 12.65 4.84232 12.65 4.84232H11.1338L11.1925 4.90281L11.6472 4.96148L11.9918 5.24748H13.6418C13.5161 5.27125 13.3932 5.30812 13.2752 5.35748L13.2165 5.40515L13.9388 5.54815H12.4722H12.4813C12.8392 5.77802 13.2273 5.95696 13.6345 6.07982C14.296 6.25025 14.9646 6.39215 15.6383 6.50515C14.7331 6.50371 13.8322 6.38038 12.9598 6.13848M20.636 5.90015H15.7227C15.3348 5.9259 14.9461 5.86322 14.586 5.71682C14.415 5.63144 14.2569 5.52218 14.1167 5.39232C13.5667 4.92848 13.6327 4.71581 13.6327 4.71581H13.6693V4.69198H22.7205V4.71581H22.7572C22.7572 4.71581 22.8232 4.92848 22.2732 5.39415C22.1328 5.52336 21.9748 5.632 21.8038 5.71682C21.4437 5.86322 21.0551 5.9259 20.6672 5.90015H20.636ZM32.428 4.54898C31.7863 4.59848 26.1525 4.82582 26.1525 4.82582C25.9819 4.80959 25.8099 4.83345 25.6502 4.89548C25.4027 4.99448 24.3082 5.79381 23.4978 6.13848C22.6311 6.38528 21.7352 6.51476 20.834 6.52348C20.834 6.52348 22.1173 6.30531 22.8378 6.09815C23.2449 5.9733 23.6333 5.79449 23.9928 5.56648H24.002H22.4858L23.21 5.42348H23.2412L23.1825 5.37398C23.0644 5.32525 22.9415 5.28899 22.8158 5.26581H24.4658L24.8105 4.97981L25.2652 4.92115L25.3238 4.86065H23.815C23.815 4.86065 23.8517 4.84231 23.7948 4.81115C23.7362 4.78181 23.0157 4.76165 23.0157 4.76165H25.1167C25.2283 4.68128 25.3521 4.61938 25.4833 4.57831C25.6279 4.54486 25.7751 4.524 25.9233 4.51598L34.2155 4.38215C34.2155 4.38215 33.066 4.51048 32.428 4.55631V4.54898ZM15.8895 1.73848V1.90531H16.7622V1.19031L17.9098 0.172816V0.103149H17.3195L17.105 0.295648L16.5073 0.801648L15.884 0.295648L15.664 0.103149H14.6502V0.170982L15.8895 1.20132V1.73848ZM31.6195 1.84115V0.480816C31.7387 0.480816 31.8707 0.458816 32.076 0.458816C32.2407 0.455062 32.4055 0.462412 32.5692 0.480816C32.7892 0.517483 32.8882 0.581648 32.912 0.664148C32.8845 0.757648 32.7653 0.847482 32.527 0.873149C32.3786 0.890816 32.2292 0.899387 32.0797 0.898815H31.8157V1.00881L32.8057 1.91082H33.9185V1.73848L33.0733 1.17015C33.1779 1.15463 33.281 1.1301 33.3813 1.09681C33.6472 1.01065 33.7773 0.873148 33.7792 0.719148V0.638482C33.7771 0.565234 33.7531 0.494297 33.7102 0.434823C33.6674 0.375348 33.6078 0.330066 33.539 0.304815C33.4195 0.245038 33.2925 0.201862 33.1613 0.176482C32.807 0.106765 32.4462 0.0760264 32.0852 0.0848151C31.4563 0.0848151 30.8018 0.108649 30.745 0.112316V1.91815H31.6195V1.84115ZM11.8727 1.84115V0.480816C11.9937 0.480816 12.1257 0.458816 12.331 0.458816C12.4951 0.455144 12.6592 0.462494 12.8223 0.480816C13.046 0.517483 13.1432 0.581648 13.167 0.664148C13.1395 0.757648 13.0203 0.847481 12.7857 0.871315C12.636 0.889131 12.4854 0.897703 12.3347 0.896981H12.0688V1.00698L13.0625 1.90898H14.1717V1.73848L13.3265 1.17015C13.4311 1.15463 13.5341 1.1301 13.6345 1.09681C13.9003 1.01065 14.0323 0.873148 14.0323 0.719148V0.638482C14.0302 0.565234 14.0062 0.494297 13.9634 0.434823C13.9206 0.375348 13.861 0.330066 13.7922 0.304815C13.6727 0.245038 13.5456 0.201862 13.4145 0.176482C13.06 0.108169 12.6993 0.0774427 12.3383 0.0848151C11.7113 0.0848151 11.055 0.108649 11 0.112316V1.91815H11.8727V1.84115ZM4.0205 1.98415C4.37437 1.9777 4.72758 1.95077 5.07833 1.90348L5.15533 1.47082V1.39748C4.83892 1.43604 4.52071 1.45807 4.202 1.46348C3.55483 1.46348 3.102 1.32415 3.06533 0.981315C3.10933 0.614649 3.5365 0.467983 4.21667 0.467983C4.5308 0.472295 4.84434 0.49679 5.15533 0.541316V0.460648L5.11867 0.295648L5.07833 0.112316C4.73656 0.061757 4.39165 0.0354132 4.04617 0.033482C3.56269 0.00464392 3.07959 0.0959737 2.64 0.299316C2.51258 0.349776 2.40287 0.436696 2.3246 0.549201C2.24634 0.661707 2.203 0.794797 2.2 0.931815V1.04548C2.2 1.60282 2.79217 1.98415 4.0205 1.98415ZM21.6168 1.38098V1.24715C21.6168 0.955648 21.2868 0.807149 20.35 0.697149C19.9962 0.660483 19.6167 0.632982 19.5617 0.513815C19.5983 0.436815 19.745 0.400148 20.218 0.400148C20.5837 0.402975 20.9479 0.447882 21.3033 0.533982L21.3657 0.167315V0.125149C20.9151 0.0480713 20.4588 0.00943269 20.0017 0.00964948C19.5635 -0.0320461 19.1232 0.0620408 18.7403 0.279148C18.7039 0.308166 18.6745 0.344965 18.6542 0.386841C18.6339 0.428718 18.6233 0.47461 18.623 0.521148V0.607315C18.623 1.01065 19.0887 1.10598 19.723 1.18482C20.2583 1.25082 20.5553 1.27831 20.6397 1.36815C20.57 1.44698 20.3592 1.48915 19.9192 1.48915C19.5016 1.4853 19.086 1.43051 18.6817 1.32598C18.6817 1.34065 18.5992 1.76048 18.5992 1.76048C18.5947 1.78349 18.5947 1.80714 18.5992 1.83015C19.0448 1.92268 19.4989 1.96754 19.954 1.96398C20.8047 1.98415 21.6168 1.83748 21.6168 1.38098ZM29.5918 1.74215V1.46715H27.555V1.17381H29.5167V0.779648H27.555V0.464315H29.5533L29.557 0.170982V0.103149H26.6823V1.90898H29.5937V1.84115L29.5918 1.74215ZM7.25817 1.83931V1.19948H8.77433V1.90715H9.647V0.103149H8.77433V0.777815H7.25817V0.103149H6.38367V1.90898H7.25817V1.83931ZM25.7088 1.74031V1.43598H23.727V0.103149H22.8543V1.90898H25.7088V1.84115V1.74031ZM0.548167 3.98981H0.315334C0.23189 4.00645 0.153444 4.04222 0.086167 4.09432C0.16402 4.04499 0.250474 4.01078 0.341 3.99348L0.548167 3.98981Z" fill="#0F0F0F"/>
</svg>