<svg xmlns="http://www.w3.org/2000/svg" width="44" height="44" viewBox="0 0 44 44" fill="none">
  <path d="M21.1622 0C21.1622 0 21.1439 0.2585 21.065 0.416167C21.0064 0.553667 20.8487 0.650833 20.8689 0.749833C20.889 0.848833 20.9862 0.968 21.1439 1.04683C21.3015 1.12567 21.3584 1.1825 21.516 1.22283C21.6535 1.26133 21.8534 1.36217 21.8919 1.243C21.9524 1.12567 21.8735 0.966167 21.7745 0.828667C21.6169 0.572 21.5362 0.513333 21.3199 0.1595C21.2795 0.0806667 21.241 0 21.1622 0ZM22.4052 0C22.3649 0.0201667 22.3062 0.319 22.2072 0.573833C22.0899 0.869 22.1669 1.0065 22.2255 1.12383C22.3044 1.243 22.4052 1.32183 22.2072 1.441C22.011 1.55833 21.7525 1.51983 21.7525 1.51983C21.7525 1.51983 21.5362 1.47767 21.3584 1.3805L20.8084 1.14217C20.8084 1.14217 20.4527 1.045 20.2162 1.06517C19.9797 1.08533 19.9595 1.1055 19.7835 1.12567C19.6845 1.12567 19.646 1.12383 19.547 1.144C19.4682 1.16233 19.371 1.10733 19.371 1.2045C19.371 1.30167 19.5672 1.3035 19.7047 1.36217C19.8422 1.42083 20.1575 1.419 20.0989 1.49783C20.02 1.57667 19.7249 1.59683 19.7047 1.57667C19.6864 1.57667 19.4902 1.53817 19.3325 1.53817C19.0759 1.5565 19.0575 1.5565 18.6854 1.73433C18.6249 1.75267 18.645 1.892 18.7624 1.85167C18.9418 1.79997 19.1275 1.77344 19.3142 1.77283C19.5525 1.77283 19.6864 1.8535 19.9229 1.914C20.1209 1.97267 20.1392 2.00933 20.4362 2.04967C20.4949 2.04967 20.6104 2.00933 20.6104 2.08817C20.6104 2.1285 20.5315 2.189 20.5315 2.189C20.5315 2.189 20.3555 2.22567 20.3739 2.28617C20.4142 2.365 20.5719 2.28617 20.6489 2.28617C20.7295 2.28617 20.8505 2.30817 20.8285 2.38517L20.79 2.44383C20.6079 2.48937 20.4296 2.54882 20.2565 2.62167C19.7634 2.81967 19.569 3.05617 19.096 3.29267C18.6432 3.509 17.9154 3.78217 17.9154 3.78217C17.9154 3.78217 17.699 3.90133 17.3837 3.97833C17.0702 4.059 17.05 4.04067 16.8337 4.07917C16.6585 4.09145 16.4888 4.14551 16.3387 4.23683C16.2342 4.29008 16.1408 4.36289 16.0637 4.45133L15.7887 4.8675L15.6292 5.10033C15.5907 5.17917 15.5522 5.21767 15.5339 5.2965C15.4935 5.3955 15.4734 5.43583 15.455 5.53483C15.3964 5.7695 15.455 5.90883 15.4935 6.14533C15.5137 6.204 15.5137 6.24433 15.5339 6.303C15.554 6.36167 15.6292 6.42217 15.6292 6.42217L15.708 6.4405C15.708 6.4405 15.9867 6.42217 16.1627 6.38183C16.3405 6.34333 16.5972 6.281 16.5972 6.281L16.929 6.18567L17.149 6.10683C17.149 6.10683 17.2865 6.10683 17.3067 6.18567C17.325 6.24433 17.2664 6.34333 17.2664 6.34333C17.2664 6.34333 17.1472 6.39833 17.0482 6.43867C16.9492 6.479 16.7127 6.53767 16.6944 6.55783L16.4377 6.63667L16.2214 6.65683C16.2214 6.65683 16.181 6.677 16.1425 6.73567C16.1022 6.79617 16.1022 6.79433 16.1022 6.83283C16.1425 6.87317 16.1627 6.91167 16.203 6.952C16.2819 7.01067 16.3204 7.04917 16.4175 7.06933C16.555 7.128 16.6339 7.10967 16.7714 7.10967C16.9434 7.1092 17.113 7.06839 17.2664 6.9905C17.424 6.8915 17.4827 6.89333 17.699 6.8145C17.7694 6.79304 17.842 6.78011 17.9154 6.776C18.2894 6.73567 18.502 6.79433 18.8779 6.85483C19.2519 6.9135 19.4315 7.03267 19.8055 7.09133C20.1997 7.15 20.4344 7.26733 20.8469 7.17017C21.0449 7.12983 21.164 7.03083 21.263 7.227C21.3602 7.40483 21.3419 7.502 21.3419 7.502C21.3419 7.502 21.34 7.623 21.2025 7.997C21.0632 8.371 20.6324 9.29683 20.6324 9.29683L20.3354 9.88717C20.3354 9.88717 20.097 10.3583 19.547 10.9688L18.9604 11.616C18.9604 11.616 18.6652 11.8342 18.37 12.2082C18.0749 12.5822 18.0712 12.7197 17.7962 12.9965C17.6184 13.1725 17.5212 13.2715 17.3049 13.4108C17.0885 13.5483 16.8319 13.508 16.1425 13.9792C15.5522 14.3935 15.2369 14.7308 15.1965 14.7107C15.158 14.6923 14.96 14.531 14.8812 14.4907C14.8225 14.454 13.6822 13.6858 13.6822 13.6858L13.2092 13.3705L12.991 13.2312L12.9525 13.1523L12.837 12.9947C12.837 12.9947 12.6592 12.7783 12.4429 12.6023C12.2199 12.3839 11.9395 12.2333 11.6344 12.1678C11.2989 12.0707 11.0844 12.0102 10.7507 12.1293C10.562 12.1915 10.3918 12.2999 10.2557 12.4447C10.0595 12.6408 10.0192 12.7985 9.86155 13.035C9.70388 13.2715 9.54621 13.4897 9.46738 13.607C9.38855 13.7262 9.23088 14.0415 9.23088 14.0415C9.23088 14.0415 8.83855 14.6703 8.62221 15.0828C8.36555 15.5357 8.26838 15.8143 8.03188 16.247C7.65788 16.9363 7.12438 17.644 6.98688 17.9575L6.83288 18.3132C6.83288 18.3132 6.79071 18.4873 6.77238 18.6065C6.75221 18.7238 6.75221 18.9218 6.73205 19.0007C6.71603 19.0796 6.68286 19.1541 6.63488 19.2188C6.61655 19.2372 6.39838 19.69 6.31955 19.9852C6.24071 20.2803 6.06288 21.2062 6.28105 21.3235C6.49738 21.4427 8.09055 20.7552 8.30688 20.0842C8.44621 19.6515 7.87421 19.4333 8.03188 19.0392C8.09055 18.9017 8.13088 18.8833 8.22805 18.7458C8.38571 18.4892 8.32705 17.9593 8.62221 17.468C8.83855 17.1142 9.27121 16.6577 9.86155 15.9885C10.2355 15.576 10.5912 14.9068 10.5912 14.9068C10.5912 14.9068 10.67 14.6703 10.8295 14.7107C11.0055 14.7492 11.1614 14.729 11.1614 14.729L11.2402 14.7895L11.3979 14.9472L11.6344 15.301C11.6344 15.301 12.0304 15.8693 12.166 16.0288C12.3054 16.1865 12.4429 16.3038 12.6409 16.4615C12.8572 16.6577 12.9342 16.7567 13.2092 16.9748C13.6034 17.2883 13.464 17.4075 12.9525 17.1307C12.7389 17.0248 12.5154 16.9401 12.2852 16.8777C12.0505 16.8172 11.1632 16.5807 10.7104 16.522C10.2777 16.4633 10.197 16.4835 10.197 16.4835C10.197 16.4835 9.98071 16.4615 9.72588 16.6192C9.46921 16.7768 9.33171 16.8942 9.33171 16.8942C9.33171 16.8942 9.03655 17.2297 9.01638 17.2883C8.99621 17.347 8.85871 17.5817 8.85871 17.5817C8.85871 17.5817 8.77805 17.7027 8.75971 17.8383C8.71938 17.9777 8.74138 18.1152 8.74138 18.1152L8.75971 18.4085L8.77988 18.6835C8.77988 18.6835 8.84038 19.3747 8.97788 20.064C9.01638 20.2602 9.05671 20.5755 9.05671 20.5755L9.15205 21.285C9.15205 21.285 9.21255 22.0348 9.27121 22.2897C9.32988 22.528 9.37021 22.5463 9.41055 22.7022C9.48938 22.9973 9.35188 23.1348 9.48938 23.4905C9.62688 23.8443 9.74605 23.8022 9.88355 24.0203C9.98255 24.178 10.0192 24.2165 10.098 24.4145C10.1769 24.6107 10.4335 25.2633 10.7287 25.7345C11.044 26.2277 11.4584 26.8363 11.7352 26.7777C12.0102 26.7172 12.2064 26.2863 12.2064 26.2863C12.2064 26.2863 12.5217 25.4375 12.3255 24.6107C12.1275 23.7637 11.2219 24.1615 11.1045 23.551C11.0862 23.4135 11.1045 23.1972 11.1045 23.1972C11.1045 23.1972 11.0825 22.9387 11.044 22.8598C11.0055 22.781 10.6884 22.1925 10.571 21.6993C10.472 21.3253 10.4922 20.1227 10.4134 19.7872C10.197 18.9218 10.1769 18.9988 10.2942 18.843C10.4335 18.6853 10.5527 18.7238 10.5527 18.7238L10.7287 18.7458L10.868 18.8027L11.1229 18.9603C11.2017 19.019 11.4767 19.2353 11.4767 19.2353L12.1459 19.6698C12.1459 19.6698 12.5217 19.888 12.6794 19.9668C12.837 20.0457 12.9727 20.1428 12.9727 20.1428L13.1487 20.2602L13.4457 20.4802L13.5025 20.5352L13.5429 20.614C13.5429 20.614 13.6822 20.9312 14.2725 21.2667C14.7455 21.5417 15.1599 21.461 15.3359 21.6792C15.3762 21.7177 15.708 22.1742 15.8675 22.4492C16.0637 22.7627 16.3002 23.1348 16.379 23.254C16.4579 23.3713 16.951 23.98 16.951 23.98L17.6 24.6895L18.4489 25.4778L19.2152 26.1287L19.7047 26.5228C19.7047 26.5228 20.1392 26.9372 20.6324 27.2708C21.1054 27.5862 21.1237 27.6247 21.439 27.8392C21.6737 27.9987 21.989 28.2168 22.3044 28.4533C22.6197 28.71 22.9754 29.1793 22.8379 29.337C22.7389 29.3957 22.561 29.1427 22.2255 28.8475C22.0077 28.6499 21.7781 28.4657 21.538 28.2957C21.1842 28.0207 21.0045 27.8795 20.6104 27.643C20.4142 27.5257 20.0604 27.3112 20.042 27.3497C19.9045 27.764 19.921 28.1563 19.9412 28.6678C19.9595 29.0217 20.02 29.3755 20.1374 29.8283C20.2364 30.261 20.3354 30.4993 20.493 30.9118C20.6507 31.3262 20.9477 31.9752 20.9477 31.9752L21.3987 32.8827L21.813 33.5702L22.0294 33.924L22.1082 34.0413C22.1082 34.0413 22.2054 34.2797 22.1082 34.4355C22.011 34.5913 21.89 34.9287 21.714 34.9488C21.5362 34.9873 21.1237 35.0093 21.1237 35.0093L18.7807 34.969L17.5597 34.87C17.5597 34.87 17.424 34.7912 16.7164 34.7912C16.302 34.7912 15.9665 34.9672 15.73 34.9873C15.5339 35.0057 14.5677 34.9287 13.9187 35.1835C13.3082 35.4402 13.0314 35.4988 12.815 35.893C12.6574 36.1882 13.585 36.663 14.3514 36.839C15.5925 37.114 15.2369 36.5823 15.708 36.2487C15.7685 36.2083 15.7887 36.1717 15.8492 36.1515C16.1627 36.0525 16.3387 36.3055 16.6559 36.3055C17.0079 36.3055 17.2059 36.1882 17.5597 36.1295C19.3509 35.893 22.1467 36.7382 22.1467 36.7382C22.1467 36.7382 22.8379 36.9545 23.1532 36.8958C23.5272 36.817 23.4465 36.6795 23.5639 36.4632C23.6629 36.2853 23.6244 36.2487 23.6427 36.0507C23.6427 35.9333 23.6244 35.8747 23.6042 35.7573C23.5254 35.4218 23.3109 34.9488 23.3109 34.9488C23.3109 34.9488 23.1514 34.595 23.0909 34.4172C23.0139 34.1623 22.935 34.0028 22.8947 33.7278C22.7774 32.9982 22.7975 33.0587 22.7975 32.6462C22.7975 31.8982 22.8764 31.4838 23.0725 30.756C23.3695 29.6927 23.9214 29.2398 24.3339 28.2168C24.453 27.9418 24.4512 27.5477 24.5905 27.5073C24.7464 27.489 24.728 28.0005 24.6492 28.2957C24.3925 29.3187 23.7637 29.7513 23.4685 30.7945C23.2522 31.6012 23.133 32.0723 23.1935 32.8992C23.2119 33.352 23.3897 34.0633 23.3897 34.0633C23.3897 34.0633 23.6262 34.8498 23.7435 35.145C23.8627 35.4402 24.0974 35.9333 24.0974 35.9333L24.629 36.8775L24.904 37.3285C24.904 37.3285 25.0984 37.5063 25.0012 37.8015C24.9022 38.0967 24.7079 38.2782 24.4695 38.533C23.8022 39.3213 22.2475 40.48 21.8534 40.755C21.3034 41.1693 21.3199 41.2885 21.2795 41.4077C21.0632 42.0383 20.4325 42.0567 19.745 42.8047C19.5874 42.9623 19.1749 43.3932 19.2537 43.7672C19.2922 43.9047 20.9862 44.2017 21.9707 43.7892C22.7407 43.4537 22.0697 43.0778 22.286 42.7038C22.4437 42.4288 22.836 42.4288 23.0139 42.1905C23.3072 41.7982 23.111 41.8183 23.3677 41.5048C24.2147 40.48 24.7665 39.8915 26.2827 38.9657C26.4202 38.8868 26.6769 38.7695 26.6769 38.7695C26.6769 38.7695 26.8914 38.6687 26.9702 38.5495C27.0692 38.3918 27.049 38.2562 27.049 38.0783C27.049 37.9592 27.0307 37.9023 27.0307 37.785C27.0307 37.6457 27.049 37.5668 27.0087 37.4293C26.9702 37.213 26.8345 37.0352 26.7557 36.916C26.6045 36.7269 26.5025 36.5033 26.4587 36.2652C26.3523 35.9024 26.3736 35.5141 26.5192 35.1652C26.6769 34.7527 27.0307 34.419 27.0307 34.419L27.9144 33.8268C27.9144 33.8268 28.6844 33.275 28.9227 33.0568C29.1775 32.8405 29.6689 32.3877 30.0227 31.8762C30.437 31.306 30.6534 30.9503 30.8294 30.2628C30.888 30.0062 30.9485 29.6138 30.9485 29.6138C30.9485 29.6138 30.9485 29.3388 31.1062 29.3205C31.2639 29.3022 31.3024 29.3572 31.3024 29.3572C31.3024 29.3572 31.438 29.4342 31.4784 29.8283C31.4967 30.2225 31.3812 30.6772 31.3812 30.6772C31.3812 30.6772 31.262 31.1282 31.2235 31.4032C31.2052 31.581 31.2015 31.6782 31.2015 31.8762C31.2015 32.2117 31.3409 32.4885 31.3409 32.4885C31.3409 32.4885 31.4197 32.5472 31.4197 32.4097C31.4303 32.1964 31.4641 31.9849 31.5205 31.779C31.5792 31.5828 31.6177 31.6195 31.735 31.284C31.8927 30.8513 31.7534 30.8935 31.8322 30.6368C31.8725 30.5195 31.9715 30.4003 32.0889 30.4003C32.2062 30.4003 32.2264 30.558 32.2264 30.558C32.2264 30.558 32.3455 31.0713 32.2484 31.5425C32.1494 32.0155 31.7937 32.6645 31.7937 32.6645L31.5205 33.1357C31.5205 33.1357 31.3244 33.4712 31.2455 33.6875C31.1667 33.924 31.1447 34.023 31.185 34.2375C31.2437 34.4758 31.4234 34.793 31.5205 34.7325C31.5994 34.6738 31.4032 34.4758 31.6397 34.0028C31.8762 33.5298 32.186 33.2365 32.186 33.2365C32.186 33.2365 32.6205 32.7232 32.8167 32.3308C32.9945 31.977 33.1724 31.4032 33.1724 31.4032C33.1724 31.4032 33.3117 30.8898 33.2714 30.4572C33.253 30.0447 33.1724 29.8283 33.1724 29.8283L32.9964 29.513L32.8955 29.2802L32.9359 29.1408C32.9744 29.1207 33.1137 29.2197 33.2329 29.3773C33.3767 29.5622 33.4769 29.7772 33.5262 30.0062C33.5805 30.185 33.607 30.3711 33.605 30.558C33.605 30.7157 33.5482 31.3647 33.7829 31.779C33.8819 31.977 34.1184 32.428 34.1385 32.23C34.177 31.7772 33.979 31.5627 33.9992 31.1483C34.0175 30.6772 34.1385 30.7945 34.177 30.558C34.2174 30.3013 34.2742 30.2408 34.2357 29.9072C34.1936 29.6608 34.1348 29.4177 34.0597 29.1793L33.9204 28.864L33.8617 28.7467C33.8617 28.7467 33.9002 28.6898 33.9589 28.6898L34.4319 28.5322C34.4319 28.5322 35.0442 28.2572 35.2807 28.0592C35.5374 27.8813 35.8307 27.5642 35.8307 27.5642C35.8307 27.5642 36.2249 27.0747 36.4229 26.7208C36.8959 25.8335 36.894 24.7115 36.8739 24.1982C36.8555 23.7068 36.7162 23.056 36.7162 23.056C36.7162 23.056 36.5585 22.2677 36.5989 21.7562C36.6392 21.2447 36.6777 21.0082 36.6777 21.0082C36.6777 21.0082 36.6594 20.4967 37.092 19.9448C37.5247 19.393 37.719 19.041 37.7979 18.6267C37.8767 18.2728 37.7575 17.7027 37.5999 17.919C37.4239 18.1555 37.3487 18.6285 37.092 19.0208C36.7382 19.5727 36.223 20.2418 35.9682 20.2418C35.8307 20.2418 35.7922 19.9265 35.7922 19.9265C35.7922 19.9265 35.6162 19.3948 35.9114 18.7238C36.1277 18.2508 36.2432 18.1152 36.52 17.7613C36.7767 17.4258 36.9325 17.248 37.1104 16.8942C37.268 16.5788 37.3047 16.5202 37.4037 16.0288C37.422 15.9097 37.3854 15.6548 37.268 15.6732C37.1104 15.6732 36.6777 16.621 36.2249 17.1527C35.7922 17.644 34.9837 18.2728 34.9837 18.2728C34.9837 18.2728 34.9049 18.3297 34.9049 18.172C34.8865 18.0345 34.8645 17.622 34.9434 17.2498C35.0415 16.7817 35.2222 16.3347 35.4769 15.9298C35.8509 15.2808 36.322 14.8298 36.5585 14.5915C36.6575 14.4943 36.9527 14.3147 36.7969 14.2157C36.6575 14.1368 36.2432 14.4907 35.9279 14.729C35.5355 15.0223 35.398 15.1048 35.0057 15.5778C34.6115 16.049 34.5107 16.247 34.5107 16.247C34.5107 16.247 34.1367 16.8557 34.0377 17.446C33.9387 18.0363 33.9405 18.37 33.9405 18.37C33.9405 18.37 33.9405 18.9035 33.9992 19.2188C34.0377 19.5525 34.177 20.0622 34.177 20.0622C34.177 20.0622 34.375 20.636 34.452 20.9917C34.5327 21.3455 34.6684 22.3868 34.6684 22.3868C34.6684 22.3868 34.7674 23.1367 34.7069 23.8443C34.6482 24.5538 34.5895 24.9663 34.5107 25.1827C34.4319 25.4008 34.2174 25.971 33.8617 26.3652C33.528 26.7392 33.4474 26.7978 33.4474 26.7978C33.4474 26.7978 33.0935 27.0912 32.7984 27.2488C32.4998 27.4088 32.1904 27.5478 31.8725 27.665C31.7102 27.695 31.5461 27.714 31.3812 27.7218H31.1264L31.0475 27.6668L31.0054 27.5073C31.0054 27.5073 30.811 26.7392 30.5764 26.2478C30.3784 25.8335 29.964 25.2633 29.964 25.2633C29.964 25.2633 29.2545 24.2972 28.7027 23.7655C28.072 23.1367 27.3644 22.6655 26.9299 22.33C26.7722 22.2127 26.4184 21.9927 26.4184 21.9927C26.4184 21.9927 24.9829 20.5572 24.4714 19.415C24.1157 18.6267 23.881 18.0583 23.98 17.1912C23.9984 16.995 24.0772 16.6192 24.1157 16.6192L24.3724 16.698C24.3944 16.7163 24.629 16.9345 24.8472 17.0133C24.9645 17.0518 25.179 17.0922 25.179 17.0922C25.179 17.0922 25.3569 17.1105 25.454 17.1307C25.553 17.171 25.7309 17.2297 25.8482 17.2883C25.9674 17.347 26.1415 17.468 26.1415 17.468L26.4789 17.721L26.8345 17.996C26.8345 17.996 27.0289 18.1353 27.0875 18.1555C27.1462 18.1757 27.1865 18.194 27.2067 18.194H27.2855C27.2855 18.194 27.3662 18.172 27.3845 18.0932C27.4047 17.996 27.2874 18.0748 27.1095 17.8787C26.9998 17.7843 26.9069 17.6722 26.8345 17.5468C26.8345 17.5468 26.7942 17.3873 26.6365 17.2095C26.4789 17.0317 26.2827 16.8758 26.2827 16.8758C26.2827 16.8758 26.1434 16.7787 25.9454 16.7182C25.7492 16.6595 25.6887 16.6577 25.6704 16.5788C25.652 16.5 25.9069 16.5403 25.9069 16.5403C25.9069 16.5403 26.2039 16.5788 26.4385 16.698C26.6769 16.8153 26.8125 16.9547 26.8125 16.9547L26.9702 17.0922L27.071 17.1912L27.1664 17.2498C27.1664 17.2498 27.2654 17.347 27.2855 17.2095C27.3039 17.0922 27.2654 16.9932 27.2452 16.973L27.148 16.8758L26.7557 16.5403C26.6614 16.4369 26.5556 16.3447 26.4404 16.2653C26.2812 16.153 26.1088 16.0607 25.927 15.9903C25.7309 15.9097 25.6135 15.9298 25.4155 15.8308C25.278 15.7722 25.1589 15.7337 25.08 15.6163C25.0599 15.598 24.9627 15.5155 25.1405 15.5558C25.3165 15.5943 25.4339 15.6548 25.63 15.6952C25.9454 15.774 26.1434 15.7722 26.4404 15.8712C26.5577 15.9097 26.7154 15.9885 26.7154 15.9885L27.0875 16.1462C27.0875 16.1462 27.6009 16.423 27.9547 16.4432C28.217 16.4633 28.4804 16.4232 28.7247 16.3258C28.8678 16.2676 29.0009 16.1872 29.1189 16.0875C29.1546 16.0518 29.1866 16.0125 29.2142 15.9702L29.2545 15.8712V15.7923C29.1555 15.6732 28.9612 15.9903 28.6459 16.049C28.3104 16.1095 28.3287 16.1462 28.1124 16.1077C27.9019 16.0851 27.7067 15.9875 27.5624 15.8327C27.2452 15.5357 27.1297 15.2607 26.7154 15.0828C26.5394 15.004 26.2204 14.9252 26.2204 14.9252C26.2204 14.9252 25.7877 14.7877 25.5512 14.6502C25.3752 14.5512 25.0049 14.4925 25.1222 14.3348C25.1809 14.256 25.6539 14.531 26.0059 14.5713C26.2625 14.6098 26.4404 14.5915 26.6365 14.5915C26.8327 14.5915 27.1095 14.531 27.1499 14.531C27.1884 14.5127 27.3442 14.531 27.4817 14.5713C27.6192 14.6117 27.698 14.6685 27.8355 14.729C27.973 14.7895 28.1344 14.8867 28.1729 14.8867L28.2517 14.9068L28.292 14.8683L28.3104 14.828L28.292 14.7895L28.2297 14.7492L28.1124 14.6703C28.1124 14.6703 27.9364 14.5713 27.7787 14.4137C27.621 14.256 27.4817 14.08 27.247 14.0012C27.0087 13.9223 26.7337 13.8838 26.7337 13.8838L26.4587 13.8618L26.3395 13.8435C26.3395 13.8435 26.1434 13.783 26.301 13.7445C26.3911 13.7179 26.483 13.6983 26.576 13.6858C26.7267 13.6536 26.8831 13.6599 27.0307 13.7042C27.1884 13.7628 27.445 13.9003 27.4634 13.9003C27.4835 13.9205 27.72 14.1002 27.9767 14.1588C28.2334 14.2175 28.567 14.2377 28.567 14.2377L28.7247 14.1992L28.8035 14.1772L28.8604 14.1368L28.842 14.0415C28.842 14.0415 28.842 13.9608 28.7247 13.9407C28.5189 13.9165 28.322 13.8429 28.1509 13.7262C27.9345 13.5685 27.7787 13.4108 27.7787 13.4108C27.7787 13.4108 27.621 13.2715 27.3057 13.1908C27.0124 13.1138 26.9134 13.1138 26.9134 13.1138L26.8125 13.0735L26.598 12.9782C26.598 12.9782 26.4972 12.9177 26.4184 12.8205C26.3395 12.7215 26.224 12.5418 26.5577 12.6408C26.8932 12.7398 26.9702 12.7985 26.9702 12.7985C26.9702 12.7985 27.148 12.9763 27.3057 12.9947C27.4047 13.0148 27.4835 13.035 27.544 12.9562C27.6412 12.8572 27.3644 12.7398 27.1664 12.6005C27.0402 12.5032 26.9333 12.3832 26.851 12.2467C26.851 12.2467 26.7355 12.1495 26.9134 12.1898C27.0894 12.2283 27.4029 12.4263 27.4029 12.4263C27.4029 12.4263 27.5605 12.5033 27.6412 12.5235C27.698 12.5418 27.8575 12.6408 27.9364 12.6793C27.995 12.6995 28.1747 12.7398 28.2902 12.7985C28.4479 12.8975 28.5285 13.0552 28.6055 13.1138C28.6844 13.1725 28.7449 13.2733 28.8439 13.2917C28.941 13.3118 28.9594 13.3503 29.018 13.31L29.0969 13.2532C29.0969 13.2532 29.1152 13.211 29.018 13.1523C28.9209 13.0937 28.8035 12.9378 28.8035 12.9378L28.7632 12.859L28.743 12.7802L28.6459 12.6225L28.4662 12.3658C28.4662 12.3658 28.1912 11.9918 27.9364 11.8525C27.6999 11.715 27.522 11.638 27.522 11.638C27.522 11.638 27.4047 11.5812 27.346 11.5408C27.247 11.462 27.2067 11.3997 27.126 11.3025C27.0289 11.1833 26.9922 11.1082 26.873 10.9908C26.6567 10.7745 25.9875 10.6535 26.2424 10.4958C26.3817 10.417 26.5577 10.4592 26.6365 10.4775C26.7154 10.4958 26.8932 10.5728 27.071 10.6315C27.1884 10.6718 27.2672 10.6755 27.3845 10.714C27.5037 10.7543 27.6412 10.7708 27.6999 10.8112C27.7585 10.8515 27.819 10.9303 27.8575 10.9505C27.8777 10.9688 28.0335 11.2255 28.3085 11.363C28.5835 11.5005 28.7247 11.5977 28.9997 11.616C29.216 11.6362 29.568 11.561 29.568 11.561C29.568 11.561 29.6689 11.5188 29.59 11.4198C29.4929 11.3208 29.491 11.3025 29.4122 11.2842C29.0969 11.165 28.8439 11.2053 28.6055 10.9688C28.5084 10.8698 28.4662 10.8497 28.3874 10.6938C28.3085 10.5362 28.3507 10.4977 28.292 10.4005C28.2517 10.3015 28.1509 10.1622 28.1509 10.1622C28.1509 10.1622 27.8575 9.8065 27.5422 9.6305C27.3255 9.51976 27.1204 9.38772 26.9299 9.23633C26.8712 9.196 26.7557 9.03833 26.7557 9.03833L26.6549 8.88067L26.598 8.76333C26.5577 8.547 26.95 8.82383 27.1664 8.90267C27.522 9.02 27.6999 9.17767 28.0555 9.29683C28.2517 9.3555 28.3709 9.35367 28.567 9.4325C28.9007 9.57 28.9997 9.9055 29.3554 9.94583C29.5515 9.96417 29.9457 10.043 29.8669 9.86517C29.788 9.669 29.3939 9.669 29.1977 9.4325C29.0987 9.3335 29.0987 9.23817 28.9997 9.13917C28.842 8.94117 28.468 8.76333 28.468 8.76333C28.468 8.76333 28.3507 8.66617 28.2114 8.39117C28.094 8.11617 27.7989 7.9145 27.2672 7.65967C26.9134 7.48367 26.2039 7.44333 26.4789 7.2655C26.6365 7.14817 26.774 7.16833 26.9922 7.227C27.2085 7.30583 27.2855 7.40667 27.4634 7.48367C27.6412 7.56433 27.72 7.58267 27.7567 7.60283C27.797 7.62117 27.9345 7.68167 27.995 7.68167C28.0317 7.7 28.3305 7.74033 28.4094 7.7605L28.8035 7.85767L29.1189 7.975C29.1189 7.975 29.2747 8.0355 29.3719 8.0355C29.469 8.0355 29.6304 7.997 29.6304 7.997L29.7477 7.91817L29.766 7.87783C29.766 7.87783 29.8265 7.78067 29.6689 7.7605C29.5912 7.74814 29.5128 7.74079 29.4342 7.7385L29.293 7.7L29.238 7.68167C29.238 7.68167 28.9612 7.46533 28.7247 7.36633L28.4277 7.249L28.3305 7.227L28.2132 7.20867C28.2132 7.20867 28.1124 7.20867 27.9547 7.06933C27.797 6.93183 27.7384 6.853 27.6009 6.7155L27.4249 6.5395C27.4249 6.5395 27.2672 6.4185 27.2672 6.3195C27.2855 6.16367 27.621 6.49917 27.621 6.49917L27.8594 6.65683C27.8594 6.65683 28.0555 6.79617 28.4094 6.8145C28.7632 6.83467 29.1977 6.7155 29.1977 6.7155C29.1977 6.7155 29.2545 6.67883 29.4507 6.73567C29.6469 6.7925 29.8064 6.91167 29.8064 6.91167L29.964 7.051L30.2005 7.30583L30.239 7.2875C30.2574 7.26917 30.3582 7.16833 30.1822 6.952C30.0044 6.73383 29.7092 6.5395 29.7092 6.5395C29.7092 6.5395 29.315 6.303 28.9209 6.22417C28.5285 6.14533 28.3489 6.14533 28.3489 6.14533C28.3489 6.14533 28.0537 6.14533 27.8759 5.94917C27.698 5.75117 27.5825 5.555 27.5825 5.555L27.522 5.28C27.522 5.28 27.4249 5.16083 27.2287 5.082C27.0509 5.00317 26.851 4.88583 26.851 4.88583C26.851 4.88583 26.5577 4.78683 26.5357 4.6475C26.477 4.39267 27.0307 4.6475 27.324 4.70617C27.599 4.76483 27.7182 4.86567 27.9932 4.92617C28.1979 4.98503 28.4121 5.00371 28.6239 4.98117C28.7614 4.98117 28.8402 4.9665 28.9777 4.9445C29.117 4.9445 29.216 4.92617 29.3554 4.9445C29.5515 4.98483 29.6304 5.082 29.8265 5.16083C29.9457 5.2195 30.0044 5.27633 30.1419 5.2965C30.261 5.31667 30.4975 5.39733 30.4572 5.27817L30.3967 5.19933C30.2977 5.06183 30.1822 5.06183 30.063 4.96467C29.8064 4.76667 29.689 4.61083 29.3939 4.47333C29.2269 4.38651 29.0476 4.32592 28.8622 4.29367C28.7027 4.27533 28.5854 4.31567 28.4277 4.27533C28.2499 4.21667 28.193 4.13783 28.0152 4.04067C27.7402 3.883 27.5807 3.74367 27.2855 3.6245C27.1111 3.56304 26.9336 3.51042 26.7539 3.46683L26.6145 3.4485L26.5595 3.42833C26.2827 3.32933 27.049 3.11483 27.4029 3.01583C27.5807 2.97733 27.6595 2.93517 27.8355 2.95533C27.9932 2.97367 28.171 3.19367 28.3489 3.09467C28.6055 2.95717 28.0537 2.58133 27.8759 2.52267C27.6394 2.42367 27.2269 2.50433 27.2269 2.50433L26.3212 2.48233L26.0645 2.44383C26.0645 2.44383 25.9069 2.44383 25.7895 2.30633C25.6704 2.16883 25.2194 1.61517 24.7079 1.53633C24.1762 1.4575 24.0185 1.53633 23.98 1.49967C23.5272 0.788333 23.0524 0.6325 22.6967 0.298833C22.5995 0.199833 22.4437 -0.0183333 22.4034 0.00183333L22.4052 0ZM24.5557 2.09H24.6492L24.7464 2.1505C24.8282 2.22922 24.8948 2.32247 24.9425 2.4255C24.9627 2.50433 24.7079 2.40717 24.6107 2.38517C24.5102 2.35873 24.4165 2.31124 24.3357 2.24583C24.3357 2.24583 24.2935 2.18717 24.3907 2.1285C24.4418 2.10233 24.4983 2.09034 24.5557 2.09ZM25.0177 3.06167C25.0654 3.06167 25.1002 3.07267 25.1002 3.07267L25.1974 3.135C25.2792 3.21372 25.3458 3.30697 25.3935 3.41C25.4137 3.48883 25.1589 3.39167 25.0617 3.36967C24.9612 3.34323 24.8675 3.29574 24.7867 3.23033C24.7867 3.23033 24.7464 3.17167 24.8655 3.113C24.909 3.07946 24.9628 3.06197 25.0177 3.0635V3.06167ZM21.5674 3.08733C21.6164 3.08486 21.6655 3.08732 21.714 3.09467C21.714 3.09467 21.7929 3.09467 21.9102 3.1515C22.0294 3.23033 22.1082 3.46683 22.1082 3.46683C22.1082 3.46683 22.1265 3.50717 22.0294 3.50717C21.9689 3.50717 21.9689 3.41 21.9102 3.36967C21.8314 3.311 21.7727 3.29083 21.6737 3.25233C21.5765 3.21383 21.439 3.27067 21.4207 3.1735C21.4207 3.11483 21.494 3.09283 21.5674 3.08733ZM20.02 3.3165C20.097 3.2945 20.02 3.4485 20.02 3.4485C20.02 3.4485 19.7652 3.861 19.4114 4.01867C19.0575 4.17633 18.821 4.257 18.15 4.31567C18.0529 4.31567 18.095 4.25517 18.095 4.25517C18.095 4.25517 18.8595 4.04067 19.294 3.80417C19.5011 3.68889 19.6985 3.55707 19.8844 3.41C19.9248 3.37285 19.9705 3.34012 20.02 3.3165ZM21.3987 3.4265C21.3987 3.4265 21.5179 3.43017 21.6554 3.52733C21.7947 3.62633 21.912 3.96183 21.912 3.96183C21.912 3.96183 21.9524 4.17633 21.8534 4.25517C21.7544 4.334 21.5967 4.19833 21.516 4.07917C21.4457 3.97996 21.3413 3.91013 21.2227 3.883C21.065 3.82433 20.8285 4.00033 20.79 3.883C20.79 3.84267 20.8084 3.74367 20.8084 3.74367C20.8084 3.74367 20.8487 3.62633 21.0265 3.52917C21.1842 3.43017 21.3987 3.42833 21.3987 3.42833V3.4265ZM25.0617 4.18733C25.1405 4.19467 25.2505 4.25517 25.3367 4.25517C25.5934 4.25517 25.8079 4.25517 25.9857 4.29367C26.1434 4.334 26.1819 4.43117 26.103 4.43117C26.0459 4.44736 25.9864 4.45417 25.927 4.45133C25.751 4.45133 25.7694 4.3725 25.5347 4.49167C25.2964 4.609 25.4742 4.55217 25.1405 4.6695C24.8252 4.78867 24.9022 4.47333 24.9022 4.47333C24.9022 4.47333 24.926 4.41283 24.9645 4.25333C24.9792 4.1965 25.014 4.18183 25.0617 4.18733ZM16.181 5.10033C16.3002 5.10033 16.5184 5.181 16.5184 5.357C16.5367 5.53483 16.3974 5.456 16.2984 5.51467C16.2415 5.555 16.203 5.57517 16.1242 5.63383C16.0252 5.71267 15.9262 5.90883 15.8675 5.84833C15.7869 5.78967 15.8272 5.57333 15.8272 5.57333C15.8272 5.57333 15.8877 5.41567 15.9665 5.258C16.0655 5.10033 16.181 5.10033 16.181 5.10033ZM25.5989 5.30383C25.6299 5.30482 25.6607 5.30975 25.6905 5.3185C25.6905 5.3185 25.7492 5.33683 25.7877 5.37533C25.828 5.41567 25.9857 5.555 25.9857 5.632C25.9857 5.6925 25.7309 5.59167 25.6135 5.57333C25.4944 5.55317 25.3385 5.43583 25.3385 5.43583C25.3385 5.43583 25.2982 5.39917 25.4155 5.3405C25.4725 5.31264 25.5356 5.30001 25.5989 5.30383ZM22.1247 5.46517C22.1455 5.46394 22.1394 5.49389 22.1064 5.555C22.0294 5.71267 21.7929 5.90883 21.7929 5.90883C21.7929 5.90883 21.5179 6.30117 21.4592 6.35983C21.2025 6.55783 20.8872 6.4405 20.7497 6.46067C20.6324 6.479 20.7112 6.35983 20.7112 6.35983C20.7112 6.35983 21.0467 6.22417 21.2612 6.10683C21.5509 5.962 22.044 5.46517 22.1247 5.46517ZM18.0767 5.81167C18.1189 5.81167 18.1519 5.83 18.1519 5.8905C18.172 6.028 17.9172 6.12517 17.9172 6.12517C17.9172 6.12517 17.8402 6.14533 17.82 6.00783C17.7999 5.87033 17.9172 5.85017 17.9172 5.85017C17.9172 5.85017 18.0089 5.80617 18.0767 5.81167ZM22.9534 6.02617C22.9864 6.00783 22.9589 6.204 22.9589 6.204C22.9589 6.204 22.8984 6.4625 22.7609 6.54133C22.5849 6.64033 22.1485 6.75767 22.11 6.699C22.11 6.65867 22.6802 6.479 22.935 6.04817L22.9534 6.02617ZM25.619 6.09767C25.6512 6.09714 25.6832 6.10084 25.7144 6.10867C25.7144 6.10867 25.7694 6.127 25.8299 6.16367C25.8885 6.22417 26.0279 6.38367 26.048 6.4625C26.0682 6.54133 25.7914 6.44417 25.6539 6.424C25.5365 6.40383 25.3569 6.26633 25.3569 6.26633C25.3569 6.26633 25.3202 6.20583 25.4394 6.14717C25.494 6.11547 25.5559 6.09842 25.619 6.09767ZM23.2339 6.545C23.2705 6.534 23.2119 6.699 23.2119 6.699C23.2119 6.699 23.133 6.95567 22.9754 7.01433C22.7792 7.073 22.033 7.09133 22.0129 7.03267C21.9945 6.97217 22.8782 6.89333 23.2119 6.55967L23.2339 6.545ZM25.6795 6.88417C25.7165 6.88413 25.7533 6.88781 25.7895 6.89517C25.7895 6.89517 25.85 6.9135 25.9087 6.95383C25.9674 7.0125 26.125 7.19217 26.1452 7.28933C26.1635 7.4085 25.8702 7.28933 25.7327 7.25083C25.6089 7.21531 25.494 7.15409 25.3954 7.07117C25.3954 7.07117 25.3569 7.01433 25.4742 6.9355C25.5361 6.89858 25.6075 6.88072 25.6795 6.88417ZM25.6795 7.86867C25.7165 7.86863 25.7533 7.87231 25.7895 7.87967C25.7895 7.87967 25.85 7.898 25.9087 7.93833C25.9674 7.997 26.125 8.17667 26.1452 8.27383C26.1635 8.37283 25.8702 8.25367 25.7327 8.21333C25.6092 8.17891 25.4943 8.11895 25.3954 8.03733C25.3954 8.03733 25.3569 7.99883 25.4742 7.92C25.5363 7.88372 25.6077 7.8665 25.6795 7.8705V7.86867ZM22.8049 8.811C22.957 8.855 22.8177 9.96417 22.5244 10.4793C22.1468 11.112 21.6896 11.6936 21.164 12.21C20.889 12.4062 21.0669 12.0523 21.0669 12.0523C21.0669 12.0523 21.8332 10.9908 22.1889 10.2428C22.4455 9.71117 22.6032 9.0035 22.7205 8.86417C22.756 8.82383 22.7841 8.80611 22.8049 8.811ZM25.6465 8.82567C25.6893 8.82684 25.7317 8.83299 25.773 8.844C25.773 8.844 25.85 8.86233 25.9087 8.92283C25.9674 8.98333 26.1654 9.19967 26.1837 9.29867C26.1837 9.416 25.85 9.2565 25.6942 9.23817C25.5574 9.19965 25.4304 9.13212 25.322 9.04017C25.322 9.04017 25.2799 8.96133 25.4174 8.8825C25.4854 8.83881 25.566 8.81883 25.6465 8.82567ZM25.5219 9.779C25.5588 9.77836 25.5956 9.78143 25.6319 9.78817C25.6319 9.78817 25.6924 9.81017 25.751 9.8505C25.8097 9.90917 25.9674 10.0852 25.9875 10.1823C26.0059 10.2813 25.7125 10.164 25.575 10.1438C25.4528 10.1089 25.3392 10.049 25.2414 9.96783C25.2414 9.96783 25.2047 9.90733 25.3202 9.8285C25.3813 9.79291 25.4513 9.77572 25.5219 9.779ZM25.465 10.6333H25.553L25.6539 10.6938C25.7364 10.7724 25.8035 10.8657 25.8519 10.9688C25.8519 11.0495 25.6135 10.9505 25.4962 10.9322C25.3789 10.9138 25.2212 10.7947 25.2212 10.7947C25.2212 10.7947 25.1809 10.736 25.3 10.6773C25.3508 10.6499 25.4074 10.6348 25.465 10.6333ZM25.3569 11.4712L25.4394 11.4822L25.5182 11.5225C25.5567 11.561 25.6722 11.6783 25.6722 11.737C25.6722 11.8158 25.4577 11.7187 25.3789 11.7187C25.2995 11.6961 25.2262 11.656 25.1644 11.6013C25.1644 11.6013 25.1424 11.5592 25.2194 11.5005C25.2597 11.4712 25.311 11.4693 25.3569 11.4712ZM25.1919 12.2448L25.2597 12.2485L25.3385 12.2888C25.3789 12.3273 25.4742 12.4263 25.4742 12.485C25.4559 12.5253 25.278 12.4465 25.1992 12.4465C25.1302 12.4221 25.0643 12.3894 25.003 12.3493C25.003 12.3493 24.9847 12.309 25.0635 12.2705C25.1044 12.2543 25.1479 12.2456 25.1919 12.2448ZM11.242 12.6243C11.4584 12.6647 11.4987 12.683 11.4785 12.782C11.4969 12.881 11.2237 12.8792 11.2237 12.8792C11.2237 12.8792 10.8277 12.9598 10.8882 12.8223C10.967 12.683 11.242 12.6243 11.242 12.6243ZM25.0122 12.8535C25.0525 12.8535 25.0855 12.8608 25.0855 12.8608L25.1644 12.9012C25.2029 12.9397 25.3 13.0387 25.3 13.0973C25.2799 13.156 25.102 13.079 25.025 13.0588C24.9444 13.0387 24.827 12.958 24.827 12.958C24.827 12.958 24.8087 12.9177 24.8875 12.8792C24.9273 12.8634 24.9695 12.8547 25.0122 12.8535ZM24.7922 13.5447L24.8472 13.5483L24.9059 13.5887C24.9242 13.607 25.0232 13.706 25.0232 13.7463C25.0232 13.805 24.8839 13.7463 24.805 13.728C24.7464 13.7097 24.651 13.6492 24.651 13.6492C24.651 13.6492 24.6327 13.6088 24.6914 13.5703C24.7213 13.5526 24.7574 13.5437 24.7922 13.5447ZM19.1804 13.7647C19.2918 13.7663 19.4032 13.773 19.514 13.7848C20.064 13.8637 20.5957 14.3568 20.515 14.4155C20.4344 14.4742 20.3189 14.4155 20.2785 14.4155L20.0824 14.3183L19.7854 14.2395C19.7854 14.2395 19.2537 14.1203 18.8614 14.1387C18.469 14.157 18.1134 14.2963 18.1134 14.2963C18.1134 14.2963 17.9557 14.377 17.9172 14.278C17.897 14.1607 17.9777 14.1002 17.9777 14.1002L17.996 14.0598C17.996 14.0598 18.447 13.761 19.1804 13.7647ZM9.80655 13.9993L9.82488 14.003L9.86338 14.0433C9.84505 14.0433 9.92205 14.2395 9.74605 14.4357C9.56821 14.6337 9.01821 15.6768 8.90088 15.499C8.78171 15.3615 9.43255 14.3752 9.57005 14.179C9.67271 14.0158 9.76621 13.9993 9.80655 13.9993ZM24.5649 14.2138L24.6125 14.2175L24.6694 14.2395L24.7702 14.3752C24.75 14.4338 24.6309 14.3953 24.5722 14.3752C24.5135 14.3752 24.4329 14.2963 24.4329 14.2963C24.4329 14.2963 24.4145 14.278 24.4732 14.2413C24.5008 14.2242 24.5324 14.2147 24.5649 14.2138ZM12.1294 14.7693C12.1605 14.7583 12.1825 14.784 12.2082 14.7913L12.3054 14.8298L12.3659 14.8885L12.5639 15.0847C12.6427 15.202 12.8572 15.598 12.8169 15.6347C12.6409 15.8125 12.5822 15.576 12.3274 15.2808C12.0707 15.0058 12.1294 14.7693 12.1294 14.7693ZM24.2899 14.861L24.3357 14.8702L24.3944 14.8885L24.4934 15.0278C24.4934 15.0663 24.3742 15.0058 24.3155 15.0058C24.255 15.0058 24.178 14.927 24.178 14.927C24.178 14.927 24.1377 14.9087 24.1964 14.8885C24.2247 14.8717 24.257 14.8628 24.2899 14.8628V14.861ZM15.4 15.5778C15.4642 15.5833 15.3762 15.697 15.3762 15.697C15.3762 15.697 15.0389 16.148 14.8427 16.4248C14.586 16.797 14.2707 17.3672 14.212 17.3085C14.1534 17.2498 14.4889 16.6228 14.6667 16.2873C14.8629 15.8748 15.158 15.6585 15.2754 15.6182C15.3143 15.598 15.3565 15.5849 15.4 15.5797V15.5778ZM9.80471 17.0537L9.84321 17.094C9.84321 17.094 9.86338 17.171 9.72588 17.3873C9.58838 17.6037 9.48755 17.6055 9.48755 17.6055C9.48755 17.5872 9.45088 17.5083 9.56821 17.2718C9.68555 17.0353 9.80471 17.0537 9.80471 17.0537ZM7.39021 17.8237C7.40171 17.8265 7.41199 17.8329 7.41955 17.842C7.47821 17.9208 7.30221 18.2747 7.30221 18.2747C7.30221 18.2747 7.12438 18.6468 7.06388 18.4892C7.00521 18.3517 7.12621 18.0968 7.12621 18.0968C7.26371 17.9758 7.32421 17.8108 7.39021 17.8237ZM23.0927 18.3315C23.2687 18.3517 23.2504 18.6872 23.2504 18.766C23.309 19.3362 23.5474 19.91 23.98 20.5993C24.5905 21.5637 25.575 22.3117 25.5347 22.3722C25.4357 22.4693 24.453 21.7012 24.0974 21.2685C23.507 20.559 23.0707 19.7908 22.935 18.8265C22.8947 18.6102 22.8947 18.293 23.0927 18.3315ZM11.4987 18.6065C11.5372 18.6065 11.7132 18.6688 11.7132 18.6688L12.1459 18.8448C12.1642 18.8448 12.3842 18.9438 12.562 19.041L12.991 19.316L13.112 19.4168C13.112 19.4572 13.2495 19.6735 12.9727 19.6148C12.6977 19.5543 12.1074 19.1015 11.8709 18.9842C11.6325 18.8668 11.242 18.8265 11.4199 18.6688C11.4382 18.6505 11.4584 18.6065 11.4987 18.6065ZM9.40871 19.6937H9.44905C9.56821 19.6937 9.56821 19.789 9.56821 19.789V19.8495C9.56821 19.8495 9.56638 20.2052 9.58655 20.4802C9.58655 20.559 9.80471 21.4445 9.80471 21.4445C9.80471 21.4445 9.84321 21.5233 9.76438 21.5233C9.70571 21.5233 9.64705 21.4042 9.64705 21.4042C9.64705 21.4042 9.48755 21.1695 9.42705 20.9935C9.37021 20.8358 9.35005 20.5773 9.35005 20.5773C9.35005 20.5773 9.30971 20.2437 9.30971 20.1263C9.32988 19.9687 9.32988 19.8293 9.35005 19.7505C9.35296 19.7365 9.35989 19.7237 9.36998 19.7136C9.38008 19.7035 9.39474 19.6966 9.40871 19.6937ZM6.67705 20.1648C6.69528 20.1621 6.71382 20.1621 6.73205 20.1648C6.84938 20.185 6.78888 20.3995 6.78888 20.4985C6.78888 20.5975 6.67521 20.7735 6.63488 20.7735C6.59638 20.7735 6.51571 20.5975 6.53588 20.4985C6.55421 20.4123 6.56705 20.1923 6.67705 20.1648ZM16.654 21.802C16.8777 21.7837 17.5249 22.7132 18.4654 23.727C19.5287 24.871 20.768 25.9545 20.8084 26.092C20.8872 26.3285 19.9412 25.5787 19.4297 25.1863C18.0712 24.1413 16.4175 22.0165 16.6155 21.8203C16.6263 21.8105 16.6397 21.8042 16.654 21.802ZM35.4879 22.7608C35.5245 22.7572 35.5557 22.8048 35.5557 22.8048L35.596 22.8617C35.596 22.902 35.8307 23.826 35.8105 24.4163C35.7702 25.2413 35.7335 25.8335 35.2422 26.4642C34.65 27.2323 33.6252 28.0225 33.8415 27.3918C33.979 27.0178 34.8865 26.5448 35.2404 25.5017C35.4384 24.871 35.4787 24.2788 35.4787 24.2788L35.4384 23.0798C35.4384 23.0798 35.4164 22.9827 35.4164 22.8433C35.4384 22.7847 35.464 22.7645 35.4879 22.7608ZM25.4449 24.8142C25.6282 24.8343 25.7107 24.9498 25.4944 25.1075C25.2377 25.2835 25.1405 25.2633 24.981 25.4393C24.805 25.6557 24.7482 26.3872 24.5704 26.092C24.3944 25.7968 24.5117 25.3825 24.8087 25.0672C24.8879 24.9785 24.9865 24.9093 25.0969 24.8651C25.2073 24.8209 25.3264 24.8046 25.4449 24.8142ZM11.1467 25.619C11.2219 25.6043 11.4199 25.7547 11.4199 25.7547C11.517 25.773 11.616 25.9527 11.616 25.9527C11.616 25.9527 11.6564 26.092 11.5372 26.1305C11.4199 26.1892 11.341 26.07 11.341 26.07C11.341 26.07 11.0844 25.7162 11.121 25.6373C11.1237 25.6326 11.1274 25.6284 11.1318 25.6253C11.1362 25.6221 11.1413 25.62 11.1467 25.619ZM30.0429 28.4148C30.0814 28.4148 30.162 28.4552 30.261 28.6532C30.36 28.8512 30.1034 30.2445 29.788 30.0465C29.6102 29.9292 29.8852 29.5772 29.8852 29.282C29.8852 29.0455 29.8449 28.8658 29.8449 28.6697C29.8449 28.4735 30.0429 28.4148 30.0429 28.4148ZM24.2 30.844C24.2697 30.8513 24.288 30.9503 24.1927 31.1483C24.0552 31.4435 24.0167 31.5425 23.9965 31.8193C23.9562 32.1127 24.1359 32.9377 23.8609 32.626C23.7619 32.4867 23.6629 31.8377 23.7417 31.5223C23.8279 31.0787 24.0827 30.8348 24.2 30.844ZM22.6967 34.727C22.7627 34.7178 22.7957 34.7508 22.7957 34.7508C22.836 34.8297 22.7554 34.9103 22.7352 34.9305C22.6615 34.9701 22.5815 34.9967 22.4987 35.0093C22.3814 35.0277 22.4437 34.9305 22.4437 34.9305C22.4437 34.9305 22.5189 34.8095 22.6179 34.7508C22.642 34.737 22.669 34.7289 22.6967 34.727ZM17.4222 35.145C17.5799 35.145 17.5799 35.2238 17.5799 35.2238C17.5799 35.2825 17.5194 35.3045 17.3599 35.2843C17.2242 35.266 17.2059 35.2257 17.226 35.2055C17.226 35.1872 17.2645 35.145 17.4222 35.145ZM18.6175 35.2018L18.6615 35.2055C18.6615 35.2055 19.3307 35.3228 19.7634 35.3412C20.0787 35.3613 20.2364 35.3833 20.5517 35.3632C20.7295 35.3632 20.6305 35.3412 20.9055 35.3412C21.0045 35.3228 20.9459 35.4622 20.867 35.4823C20.5719 35.5612 20.4527 35.519 20.1979 35.5392C19.9797 35.5575 19.8807 35.5777 19.6644 35.5777C19.2904 35.5777 19.2537 35.5997 18.722 35.442C18.623 35.4035 18.502 35.2843 18.5424 35.2458C18.5513 35.2338 18.5625 35.2236 18.5754 35.2161C18.5883 35.2085 18.6027 35.2037 18.6175 35.2018ZM14.1534 35.321C14.3844 35.3265 14.311 35.4035 14.311 35.4035C14.311 35.4035 14.3092 35.4805 14.1717 35.5777C14.0324 35.6767 13.9755 35.618 13.9554 35.618C13.9352 35.618 13.7977 35.5392 13.7977 35.4603C13.8179 35.3815 14.036 35.3247 14.036 35.3247L14.1534 35.321ZM26.5485 38.0343L26.5962 38.038L26.6347 38.1168C26.6347 38.1352 26.477 38.3552 26.3982 38.3552C26.301 38.3332 26.3377 38.2177 26.3377 38.2177C26.3377 38.2177 26.2992 38.0985 26.4165 38.06C26.4586 38.0434 26.5033 38.0347 26.5485 38.0343ZM25.0782 38.6173C25.0953 38.6173 25.1094 38.621 25.1204 38.6283V38.7072C25.1387 38.7677 24.6254 39.3397 24.2715 39.6752C23.9379 39.9905 23.3659 40.4232 23.3659 40.4232H23.287V40.3223L23.309 40.2838L23.3475 40.2252L23.3879 40.1647L23.4264 40.1097L23.5455 39.9685L23.8205 39.7137L24.0955 39.457L24.53 39.0225C24.53 39.0225 24.6859 38.8483 24.7445 38.808C24.8032 38.7695 24.8435 38.7292 24.9022 38.6907C24.9609 38.6613 25.0305 38.621 25.0782 38.6173ZM22.231 40.9878C22.2473 40.985 22.2639 40.9858 22.2798 40.9902C22.2957 40.9947 22.3103 41.0026 22.3227 41.0135C22.3832 41.151 22.286 41.1895 22.286 41.1895L22.1064 41.3288C22.0862 41.3288 21.9689 41.4278 21.9304 41.3673C21.89 41.3087 21.9487 41.2298 21.9487 41.2097C21.9487 41.1895 22.0679 41.0538 22.1669 41.0135C22.1864 41.001 22.2082 40.9922 22.231 40.9878ZM20.3115 42.8102C20.3922 42.801 20.4509 42.922 20.4509 42.922C20.4509 42.922 20.4912 42.9788 20.4912 43.0577C20.4912 43.1182 20.3134 43.098 20.2162 43.1768C20.097 43.2557 20.3354 43.494 19.9595 43.4738C19.745 43.4555 19.8624 43.2575 19.8825 43.2373L20.0182 43.0412C20.1172 42.9018 20.1777 42.8817 20.2749 42.8212L20.3115 42.8102Z" fill="#0F0F0F"/>
</svg>
