<svg xmlns="http://www.w3.org/2000/svg" width="44" height="44" viewBox="0 0 44 44" fill="none">
    <g clip-path="url(#clip0_2710_17960)">
        <path d="M38.8209 11.4583C39.7174 13.563 40.1519 15.9353 40.1519 18.711C40.1519 20.2107 40.0272 21.8093 39.7742 23.5987C39.2499 27.2837 37.8529 31.1337 36.5659 33.671C36.3569 34.0798 36.1901 34.3512 35.8546 34.6482C35.2679 35.1652 34.7509 35.2935 34.5602 35.1817C34.4062 35.09 34.3201 34.628 34.3512 33.9478C34.3769 33.3685 34.5144 32.9395 34.7252 32.2538C35.7129 29.0056 36.4484 25.6859 36.9252 22.3245C37.6311 17.4405 37.6036 13.0478 36.5567 10.3712C36.4513 10.0963 36.316 9.83377 36.1534 9.58833C36.0397 9.42333 35.9591 9.339 35.9591 9.339C33.7939 7.17017 27.9474 6.083 22.0991 6.083C16.2507 6.083 10.4061 7.17017 8.24273 9.339C8.24273 9.339 8.16023 9.4215 8.0484 9.58833C7.88248 9.83146 7.74645 10.0937 7.64323 10.3693C6.59457 13.046 6.5689 17.4405 7.27473 22.3245C7.7514 25.6373 8.50673 29.1445 9.52423 32.4152C9.70023 32.978 9.8139 33.3612 9.8414 33.9552C9.87073 34.6317 9.7864 35.0918 9.6324 35.1835C9.44173 35.2935 8.91923 35.1652 8.33073 34.6427C7.90907 34.2668 7.69823 33.9002 7.4324 33.3575C6.18573 30.8183 4.87857 27.1297 4.37623 23.5987C4.13571 21.9803 4.00951 20.3471 3.99856 18.711C3.99856 15.9353 4.4349 13.5648 5.32957 11.462C6.0024 9.88533 7.13173 8.56533 8.59657 7.64317C12.1969 5.36685 16.3103 4.02931 20.5609 3.75283C21.0584 3.72244 21.5567 3.70654 22.0551 3.70517H22.0917C22.5953 3.70639 23.0952 3.72228 23.5914 3.75283C27.7751 4.00583 31.9129 5.35333 35.5539 7.64317C37.0054 8.55403 38.145 9.88363 38.8209 11.4583ZM30.0887 38.0893C29.9274 38.1242 29.4269 38.2415 28.9301 38.3772C28.4846 38.5 28.0446 38.5972 27.8356 38.6393C25.9528 38.994 24.0406 39.1689 22.1247 39.1618H22.0734C20.0256 39.1618 18.0822 38.973 16.3644 38.6393C16.0197 38.569 15.6773 38.4877 15.3377 38.3955C14.9705 38.2974 14.6013 38.207 14.2304 38.1242C13.4641 37.95 12.7711 37.8253 12.7326 37.972C12.6867 38.1425 13.0296 38.5 13.4677 38.8373C13.5704 38.9143 13.8252 39.094 14.1222 39.2407C14.3972 39.3745 14.7089 39.4753 14.8299 39.5157C16.8429 40.1665 19.1309 40.436 22.0551 40.436H22.0954C24.9609 40.436 27.2177 40.1757 29.2032 39.5505C29.8834 39.336 30.2849 39.1637 30.7671 38.7805C31.1704 38.4615 31.4729 38.1333 31.4289 37.9738C31.3922 37.8363 30.7909 37.9353 30.0887 38.0893ZM25.4907 19.1822C25.2249 17.6972 24.9041 16.5568 24.5411 15.7905L24.5374 15.7832H24.4989L23.2486 15.7722H23.2302L23.1807 21.2685H25.7951L25.7932 21.2502C25.7932 21.241 25.6906 20.2932 25.4907 19.1822ZM36.0507 22.275C35.4604 26.3597 34.4374 30.7505 33.0074 34.5602C32.7691 35.2018 32.5527 35.4402 32.0357 35.8435C30.7026 36.7843 29.1826 37.4271 27.5789 37.7282C25.9344 38.049 24.0809 38.2268 22.1266 38.2268H22.0734C20.2449 38.2341 18.4198 38.0671 16.6229 37.7282C15.018 37.4276 13.4966 36.7848 12.1624 35.8435C11.6454 35.4402 11.4309 35.2018 11.1962 34.5602C9.76256 30.7505 8.73956 26.3597 8.15106 22.275C7.46723 17.5505 7.5094 13.3888 8.48106 10.9047C8.6039 10.593 8.73407 10.3693 8.8294 10.2282C8.91373 10.109 8.9724 10.0448 8.9724 10.0448C10.9304 8.08317 16.4157 7.01617 22.0991 7.01617C27.7824 7.01617 33.2696 8.08317 35.2257 10.0467C35.2257 10.0467 35.2844 10.1072 35.3687 10.23C35.4641 10.3693 35.5961 10.5912 35.7171 10.9047C36.6906 13.3888 36.7327 17.5505 36.0507 22.275ZM16.3241 13.8692L11.4071 13.8417L11.8966 30.9595L13.9536 30.9815L13.9242 23.1898H15.7832V21.1787H13.9242V15.8767H16.3259V13.8673L16.3241 13.8692ZM19.7634 13.8325L17.2609 13.838L17.5927 30.9797H19.7139L19.7634 13.8325ZM26.0847 13.8582H21.0761L21.2741 30.9705H23.2761L23.2926 23.2302H25.8922L25.8959 23.243C26.1306 24.7042 26.1489 30.8898 26.1489 30.9522V30.9797H28.0977L28.1142 30.1015C28.2022 25.6648 28.3526 18.2417 26.0847 13.8582ZM34.0047 13.8343L27.8741 13.8582V15.8327H29.7037V15.851L29.6267 30.9797H31.7021L32.2062 15.8327H34.0047V13.8343ZM43.9542 22C43.9542 34.1312 34.1056 44 21.9982 44C9.89456 44 0.0458984 34.1312 0.0458984 22C0.0458984 9.86883 9.89457 0 22.0001 0C34.1074 0 43.9542 9.86883 43.9542 22ZM43.3492 21.9853C43.3401 10.1952 33.7664 0.605 21.9964 0.605C10.3437 0.605 0.843398 10.0155 0.656398 21.6535C0.915192 21.0578 1.35361 20.5579 1.9104 20.2235C3.11123 19.5122 3.4394 17.6843 3.54757 16.5917L3.56957 16.478C3.49807 17.2022 3.44123 17.9263 3.44123 18.711C3.44123 20.2363 3.56956 21.8607 3.82623 23.6757C4.58156 28.9923 7.15006 34.6885 8.66073 36.432L8.74506 36.5237L9.09706 36.894L9.1099 36.905C12.7949 39.9245 16.1811 40.9933 22.0551 40.9933H22.0954C27.9676 40.9933 31.3537 39.9245 35.0387 36.905L35.0552 36.894L35.3944 36.5328L35.4897 36.4302C37.0041 34.6812 39.5707 28.9923 40.3261 23.6757C40.5827 21.8607 40.7092 20.2363 40.7092 18.711C40.7092 17.8799 40.6701 17.0799 40.5919 16.3112L40.6029 16.3222C40.7129 17.4167 41.2977 20.2473 42.4271 21.0632C42.8096 21.3394 43.117 21.6468 43.3492 21.9853Z" fill="#0F0F0F"/>
    </g>
    <defs>
        <clipPath id="clip0_2710_17960">
            <rect width="44" height="44" fill="white"/>
        </clipPath>
    </defs>
</svg>