<svg xmlns="http://www.w3.org/2000/svg" width="44" height="44" viewBox="0 0 44 44" fill="none">
  <path d="M22 15.0993C10.7653 15.0993 1.65917 18.205 1.65917 22.0037C1.65917 25.8023 10.7653 28.9062 22 28.9062C33.2328 28.9062 42.339 25.8023 42.339 22.0037C42.339 18.205 33.2328 15.0993 22 15.0993ZM11.5537 26.5393C10.351 26.5485 9.29317 25.806 9.17033 24.5208C9.1015 23.8513 9.29467 23.181 9.70933 22.6508C10.0668 22.1852 10.6718 21.7983 11.1833 21.703C11.3483 21.6718 11.5738 21.692 11.6673 21.802C11.8122 21.9725 11.77 22.1577 11.6252 22.231C11.2347 22.4308 10.7635 22.7718 10.5307 23.2393C10.425 23.4379 10.375 23.6613 10.386 23.8859C10.3969 24.1106 10.4685 24.328 10.593 24.5153C11.0752 25.2432 12.4208 25.2633 13.6712 24.1028C13.981 23.8168 14.2578 23.5455 14.5383 23.2228C15.0883 22.5922 15.2717 22.3612 16.005 21.3455C16.0136 21.3333 16.016 21.3223 16.0123 21.3125C16.0074 21.3003 15.9952 21.2942 15.9757 21.2942C15.4862 21.307 15.059 21.4537 14.6465 21.7617C14.5273 21.8497 14.355 21.8368 14.2798 21.7232C14.1955 21.5948 14.256 21.4243 14.3935 21.329C15.059 20.8652 15.7868 20.7827 16.5312 20.6562C16.5312 20.6562 16.5825 20.6598 16.6247 20.6012C16.9308 20.2107 17.16 19.8587 17.4863 19.4627C17.8127 19.0593 18.238 18.6927 18.5607 18.414C19.0117 18.0253 19.3013 17.8952 19.5947 17.7357C19.6735 17.6953 19.5855 17.6458 19.5617 17.6458C17.919 17.3378 16.2122 16.9382 14.5805 17.5432C13.4512 17.9648 12.9543 18.8595 13.1927 19.459C13.3632 19.8825 13.9205 19.954 14.4448 19.6973C14.9008 19.4712 15.2877 19.1268 15.565 18.7C15.7245 18.4543 16.06 18.6303 15.8785 19.0575C15.4018 20.1777 14.4907 21.0687 13.3797 21.1072C12.4337 21.1365 11.8232 20.4417 11.825 19.5837C11.8287 17.8897 13.7133 16.775 15.6933 16.61C18.0785 16.412 20.3372 17.0482 22.7058 17.3342C24.519 17.5542 26.2588 17.5597 28.0812 17.1398C28.2975 17.094 28.4478 17.2315 28.435 17.4478C28.4167 17.7632 28.1728 18.0657 27.5733 18.3938C26.8895 18.7678 26.1745 18.8815 25.4283 18.8888C23.6243 18.9035 21.9432 18.1995 20.2033 17.8218C20.207 17.897 20.2253 17.9887 20.1612 18.0363C19.1987 18.7477 18.3278 19.47 17.7448 20.482C17.7247 20.5058 17.7357 20.5278 17.7687 20.526C18.2765 20.4985 18.7312 20.4857 19.2042 20.449C19.2867 20.4417 19.2903 20.4215 19.283 20.361C19.2571 20.1736 19.2769 19.9826 19.3408 19.8045C19.4046 19.6264 19.5106 19.4663 19.6497 19.338C19.965 19.0575 20.3592 19.0263 20.6213 19.228C20.9147 19.459 20.8908 19.8752 20.7277 20.1868C20.655 20.3237 20.5556 20.4445 20.4353 20.5422C20.315 20.6398 20.1762 20.7123 20.0273 20.7552C20.0273 20.7552 19.9723 20.7662 19.9797 20.8175C19.9907 20.8963 20.3463 21.0943 20.3775 21.1475C20.4087 21.197 20.3922 21.2758 20.339 21.3345C20.3181 21.3606 20.2916 21.3815 20.2614 21.3958C20.2313 21.4101 20.1982 21.4174 20.1648 21.417C20.1043 21.417 20.0677 21.395 19.9888 21.3528C19.7996 21.2535 19.6315 21.1184 19.4938 20.955C19.4498 20.8982 19.426 20.8963 19.3123 20.9018C18.8008 20.933 18.0033 21.01 17.4625 21.0778C17.3323 21.0925 17.3122 21.1182 17.2865 21.164C16.4248 22.5848 15.5045 24.1157 14.4943 25.1423C13.409 26.2423 12.5088 26.532 11.5537 26.5393ZM34.925 19.635C34.7582 19.9247 31.5352 24.8307 31.3317 25.3367C31.2675 25.498 31.2583 25.6208 31.3243 25.7107C31.493 25.938 31.8688 25.8042 32.1035 25.641C32.802 25.1607 33.286 24.5777 33.8213 24.068C33.8525 24.0442 33.9057 24.035 33.9405 24.068C34.0193 24.1413 34.1348 24.2348 34.2155 24.3192C34.2227 24.3257 34.2285 24.3337 34.2325 24.3425C34.2366 24.3514 34.2389 24.3609 34.2392 24.3706C34.2396 24.3804 34.238 24.3901 34.2345 24.3992C34.2311 24.4083 34.2259 24.4166 34.2192 24.4237C33.728 25.038 33.1724 25.598 32.5618 26.0938C31.7002 26.7612 30.8403 26.9317 30.4132 26.5045C30.2615 26.348 30.1705 26.1426 30.1565 25.9252C30.1528 25.8207 30.0997 25.8152 30.0502 25.8628C29.5405 26.367 28.6568 26.9243 27.8538 26.5265C27.1828 26.1965 27.027 25.3935 27.1517 24.7188C27.1535 24.7042 27.1407 24.6088 27.0582 24.6638C26.8887 24.7865 26.7037 24.8864 26.5082 24.9608C26.2978 25.0571 26.0685 25.1053 25.8372 25.102C25.6709 25.1035 25.5071 25.0615 25.362 24.9801C25.217 24.8988 25.0957 24.7809 25.0103 24.6382C24.9022 24.4431 24.8425 24.2249 24.8362 24.002C24.8343 23.9818 24.805 23.9433 24.7757 23.9928C24.2257 24.8307 23.7142 25.641 23.1715 26.4917C23.1422 26.532 23.1165 26.5577 23.0615 26.5595L21.9853 26.5613C21.9193 26.5613 21.8882 26.51 21.923 26.4458C22.1137 26.0792 23.1587 24.5575 23.8663 23.2632C24.0625 22.9075 24.0222 22.7242 23.9012 22.6453C23.749 22.5463 23.4465 22.6948 23.1917 22.8892C22.4968 23.4153 21.9138 24.2367 21.6168 24.6033C21.4427 24.8178 21.2777 25.1368 20.823 25.63C20.1062 26.4092 19.1547 26.8565 18.2417 26.5467C18.0007 26.4647 17.7834 26.3249 17.6089 26.1395C17.4344 25.9542 17.308 25.7289 17.2407 25.4833C17.2132 25.388 17.16 25.3623 17.1068 25.4247C16.9602 25.608 16.6577 25.8812 16.4047 26.0517C16.3772 26.0718 16.3093 26.1122 16.2507 26.0828C16.1429 25.9734 16.0492 25.8508 15.972 25.718C15.9609 25.6936 15.9578 25.6663 15.9631 25.64C15.9684 25.6136 15.9817 25.5896 16.0013 25.5713C16.3625 25.2542 16.5605 25.0745 16.7182 24.8747C16.8355 24.728 16.9253 24.563 17.0298 24.2972C17.2498 23.7435 17.7503 22.7095 18.7495 22.1742C19.1184 21.9647 19.5243 21.8284 19.9448 21.7727C20.1282 21.7543 20.2803 21.7763 20.3353 21.9193C20.3555 21.9798 20.4068 22.1118 20.438 22.209C20.4582 22.2677 20.4435 22.3135 20.3738 22.3392C19.7872 22.5628 19.195 22.9093 18.788 23.4575C18.3242 24.0772 18.1995 24.8252 18.5093 25.2542C18.7348 25.5658 19.0997 25.6208 19.4517 25.509C19.9833 25.3403 20.438 24.8435 20.6727 24.2935C20.9257 23.6903 20.966 22.979 20.779 22.352C20.7497 22.2438 20.7772 22.1613 20.8468 22.1027C20.988 21.9872 21.1842 21.8973 21.241 21.868C21.297 21.8381 21.3621 21.8299 21.4237 21.8452C21.4853 21.8604 21.5391 21.8979 21.5747 21.9505C21.769 22.2383 21.8735 22.6435 21.8863 23.0633C21.8973 23.1532 21.934 23.155 21.978 23.1092C22.3263 22.7388 22.649 22.3428 23.0193 22.0458C23.3585 21.7763 23.793 21.5563 24.1982 21.5655C24.7225 21.5765 24.9828 21.9322 24.9663 22.5665C24.9645 22.6472 25.0213 22.6398 25.0598 22.5867C25.1816 22.4043 25.3299 22.2412 25.4998 22.1027C25.8616 21.8044 26.235 21.6688 26.62 21.6957C27.0967 21.7323 27.478 22.1668 27.3992 22.6618C27.3802 22.8184 27.3233 22.968 27.2336 23.0977C27.1438 23.2273 27.0238 23.3332 26.884 23.4062C26.7666 23.4693 26.6328 23.4954 26.5002 23.481C26.3677 23.4666 26.2426 23.4124 26.1415 23.3255C26.0635 23.2508 26.0063 23.1571 25.9755 23.0536C25.9446 22.9501 25.9412 22.8404 25.9655 22.7352C25.9747 22.6893 25.916 22.6472 25.8665 22.6985C25.4008 23.1825 25.366 23.8095 25.6703 24.0918C26.0058 24.4035 26.51 24.1945 26.8767 23.9543C27.5477 23.5162 28.0683 22.9222 28.6715 22.4638C29.0712 22.1595 29.5277 21.8882 30.0392 21.8203C30.3202 21.7774 30.6075 21.8103 30.8715 21.9157C31.2382 22.0642 31.4692 22.374 31.4985 22.6417C31.5058 22.7205 31.5645 22.7297 31.614 22.66C31.9037 22.209 33.4565 19.8788 33.5848 19.635C33.6215 19.5598 33.6655 19.5488 33.748 19.5488H34.859C34.9232 19.5488 34.9525 19.5855 34.925 19.635ZM30.6717 23.6757C30.6657 23.6868 30.6622 23.6991 30.6612 23.7118C30.6603 23.7244 30.662 23.7371 30.6662 23.749C30.6717 23.7857 30.7212 23.8223 30.7688 23.8407C30.7872 23.8462 30.7963 23.859 30.7762 23.8993C30.6387 24.1927 30.514 24.3613 30.3417 24.6162C30.1888 24.8409 30.0034 25.0417 29.7917 25.212C29.4653 25.4815 29.0143 25.7748 28.6403 25.5787C28.4753 25.4925 28.402 25.2597 28.4075 25.0727C28.4148 24.5447 28.6495 24.002 29.084 23.4685C29.612 22.8177 30.1968 22.4803 30.58 22.6655C30.976 22.8543 30.8513 23.3163 30.6717 23.6757ZM19.7652 20.2272C19.7517 20.1101 19.7667 19.9914 19.8088 19.8813C19.8509 19.7712 19.919 19.6729 20.0072 19.5947C20.1117 19.503 20.251 19.481 20.3372 19.5543C20.4325 19.6368 20.3867 19.8422 20.2895 19.9833C20.184 20.1423 20.0244 20.2576 19.8403 20.3078C19.8073 20.3152 19.778 20.3005 19.7652 20.2272ZM22 13.75C9.79 13.75 0 17.4112 0 22C0 26.5613 9.86883 30.25 22 30.25C34.1312 30.25 44 26.5467 44 22C44 17.4533 34.1312 13.75 22 13.75ZM22 29.5313C10.3565 29.5313 0.916667 26.1617 0.916667 22.0037C0.916667 17.8438 10.3583 14.4742 22 14.4742C33.6417 14.4742 43.0797 17.8438 43.0797 22.0037C43.0797 26.1617 33.6417 29.5313 22 29.5313Z" fill="#0F0F0F"/>
</svg>
