<svg xmlns="http://www.w3.org/2000/svg" width="44" height="44" viewBox="0 0 44 44" fill="none">
  <path d="M22.1688 29.0987C23.9361 29.0987 25.7016 29.0235 27.4561 28.9153C29.2829 28.9329 31.0976 28.6173 32.8113 27.984C33.5981 27.6512 34.2763 27.1051 34.7693 26.4073C35.2498 25.6456 35.5929 24.8054 35.7831 23.925C36.2238 22.0466 36.4932 20.1321 36.5879 18.205C36.7424 16.2595 36.7773 14.3064 36.6924 12.3567C36.7597 10.6261 36.1918 8.93076 35.0956 7.59001C33.878 6.58347 32.3639 6.00388 30.7854 5.94001C27.9272 5.58576 25.0487 5.42162 22.1688 5.44867C19.2888 5.42162 16.4103 5.58576 13.5521 5.94001C11.9736 6.00388 10.4596 6.58347 9.24192 7.59001C8.14573 8.93076 7.57778 10.6261 7.64509 12.3567C7.56017 14.3064 7.59507 16.2595 7.74959 18.205C7.84434 20.1321 8.11372 22.0466 8.55442 23.925C8.7454 24.8028 9.08852 25.6405 9.56826 26.4C10.0612 27.0978 10.7394 27.6439 11.5263 27.9767C13.2399 28.6099 15.0546 28.9255 16.8814 28.908C18.6378 29.0241 20.4002 29.0877 22.1688 29.0987ZM26.1214 27.6008C25.9381 27.632 25.3441 27.632 24.6823 27.6467C23.8438 27.665 23.006 27.6723 22.1688 27.6687C21.3309 27.6668 20.4949 27.6687 19.6553 27.6467C18.9934 27.632 18.3939 27.632 18.2143 27.6008C18.0346 27.5697 17.8476 27.5587 17.9063 27.3607C17.9649 27.1627 18.7643 24.5667 18.7643 24.5667C19.2923 22.8415 19.3289 22.7333 20.6856 22.462C21.6646 22.265 22.673 22.265 23.6519 22.462C25.0086 22.7278 25.0453 22.8415 25.5733 24.5667C25.5733 24.5667 26.3781 27.1608 26.4313 27.3607C26.4844 27.5605 26.3011 27.5697 26.1214 27.6008ZM29.7276 26.3523C30.0356 23.9201 30.28 21.483 30.4609 19.041L30.5013 18.634C30.9021 14.953 31.0961 11.2524 31.0824 7.54967C31.1085 7.50591 31.1456 7.46971 31.19 7.44464C31.2343 7.41956 31.2845 7.40648 31.3354 7.40667C31.6618 7.50201 31.9991 7.59001 32.3273 7.71834L32.4703 7.77517H32.4831C32.6802 7.85622 32.8724 7.94865 33.0588 8.05201C33.25 8.16233 33.4273 8.29529 33.5868 8.44801L33.5959 8.45901C33.6622 8.52335 33.7234 8.5926 33.7793 8.66617L33.8471 8.75051C34.7257 10.4516 35.075 12.3767 34.8499 14.278C34.8907 16.5652 34.7602 18.8523 34.4594 21.12L34.3824 21.7122V21.7397L34.3183 22.2218L34.2871 22.4327L34.2523 22.6673L34.1936 23.012L34.1496 23.243L34.1093 23.4355C34.0704 23.6267 34.0239 23.8163 33.9699 24.0038C33.9504 24.0772 33.9284 24.1487 33.9039 24.2183C33.8801 24.2898 33.8489 24.387 33.8196 24.4677C33.7903 24.5483 33.7683 24.6088 33.7389 24.6767C33.6979 24.7826 33.6521 24.8866 33.6014 24.9883C33.4437 25.3286 33.2347 25.6427 32.9818 25.9197C32.5968 26.334 29.6964 28.0262 29.6818 26.851C29.6854 26.7496 29.7007 26.5833 29.7276 26.3523ZM11.3668 25.9252C11.1138 25.6482 10.9048 25.3342 10.7471 24.9938C10.6663 24.8208 10.5923 24.6447 10.5253 24.4658L10.4446 24.2257C10.4189 24.1432 10.3988 24.0808 10.3786 24.0075L10.3218 23.7967C10.2924 23.6793 10.2643 23.5571 10.2374 23.43L10.1989 23.2467L10.1531 23.0138L10.0963 22.6673L10.0614 22.4382L10.0303 22.2163L9.97342 21.7947L9.95692 21.67L9.88542 21.12C9.58469 18.8523 9.45416 16.5652 9.49492 14.278C9.27041 12.3769 9.61899 10.4521 10.4959 8.75051L10.5601 8.67167C10.6159 8.5981 10.6772 8.52885 10.7434 8.46451L10.7544 8.45351C10.9133 8.30424 11.0893 8.17438 11.2788 8.06667C11.4668 7.96188 11.6609 7.86822 11.8599 7.78617L12.0084 7.72934C12.3348 7.60834 12.6721 7.51301 12.9984 7.41767C13.0494 7.41748 13.0995 7.43056 13.1439 7.45564C13.1882 7.48071 13.2253 7.51691 13.2514 7.56067C13.2377 11.2634 13.4317 14.964 13.8326 18.645L13.8729 19.052C14.0563 21.4903 14.2928 23.9232 14.6063 26.3523L14.6613 26.8712C14.6429 28.0298 11.7444 26.3395 11.3668 25.9252ZM15.9171 7.06934C17.9911 6.82016 20.0805 6.72151 22.1688 6.77417C24.257 6.72151 26.3464 6.82016 28.4204 7.06934C28.5249 7.11151 28.5341 7.18851 28.4846 7.37001C27.8649 9.62501 27.1499 12.617 26.5119 14.8867C26.0023 16.698 25.4119 19.0337 23.2119 19.2647C22.8679 19.3036 22.5222 19.3262 22.1761 19.3325C21.8223 19.338 21.4703 19.2995 21.1403 19.2647C18.9274 19.0337 18.3426 16.698 17.8403 14.8867C17.2023 12.6207 16.4873 9.62867 15.8676 7.37001C15.8016 7.18851 15.8126 7.11151 15.9171 7.06934ZM22.9883 32.5398L23.5676 32.6113C23.7711 32.637 23.8188 32.8075 23.8188 33.0037V35.0588L21.6188 32.164C21.5817 32.107 21.5308 32.0604 21.4709 32.0283C21.411 31.9963 21.3439 31.9799 21.2759 31.9807H18.3426V32.5435L18.8926 32.6077C19.0888 32.637 19.1603 32.7378 19.1603 33.0092V35.112C19.1603 35.3613 19.0924 35.4787 18.8834 35.5117L18.3334 35.5758V36.1258H20.9899V35.5758L20.4198 35.5117C20.3426 35.4973 20.2738 35.4545 20.2269 35.3916C20.18 35.3287 20.1585 35.2505 20.1668 35.1725V33.0605L22.3778 35.9718C22.4191 36.0229 22.4713 36.0641 22.5307 36.0923C22.59 36.1205 22.6549 36.1351 22.7206 36.135H24.8069V32.9872C24.8069 32.8405 24.8454 32.637 25.0599 32.6205L25.6393 32.5563V31.9935H22.9809L22.9883 32.5398ZM14.7804 31.8212C12.4319 31.8212 11.3796 32.7378 11.3796 34.0395C11.3796 35.376 12.4319 36.2817 14.7804 36.2817C17.1289 36.2817 18.1648 35.376 18.1648 34.0395C18.1648 32.7342 17.1124 31.8212 14.7804 31.8212ZM14.7804 35.4878C13.8344 35.4878 13.2973 35.1377 13.2973 34.045C13.2973 32.9523 13.8344 32.6187 14.7804 32.6187C15.7264 32.6187 16.2654 32.9688 16.2654 34.045C16.2654 35.1212 15.7173 35.4897 14.7713 35.4897L14.7804 35.4878ZM7.88342 32.5398L8.46276 32.6113C8.65892 32.637 8.71576 32.7947 8.71576 32.9963V33.6398H6.14909V32.9872C6.14909 32.7433 6.24626 32.6205 6.41859 32.6205L6.97959 32.5563V31.9935H3.66676V32.5563L4.21676 32.6205C4.43676 32.6462 4.49359 32.8038 4.48626 33.022V35.1248C4.48626 35.3613 4.42026 35.4915 4.20942 35.5245L3.65942 35.5887V36.1387H6.99242V35.5887L6.41676 35.5153C6.28659 35.4988 6.15642 35.4163 6.15642 35.1487V34.4667H8.72309V35.1047C8.72309 35.288 8.69009 35.4713 8.47009 35.4952L7.88342 35.5667V36.1368H11.2164V35.5667L10.6298 35.5007C10.5161 35.4842 10.3859 35.3943 10.3859 35.1578V33C10.3859 32.7782 10.4666 32.6333 10.6371 32.615L11.2164 32.5508V31.988H7.88342V32.5398ZM30.1016 31.9843H25.9894V32.5472L26.5046 32.6003C26.5457 32.6055 26.5853 32.6188 26.6212 32.6395C26.6571 32.6602 26.6885 32.6878 26.7136 32.7207C26.7387 32.7537 26.7569 32.7913 26.7673 32.8314C26.7777 32.8714 26.78 32.9132 26.7741 32.9542V35.189C26.7838 35.2633 26.7647 35.3385 26.7208 35.3992C26.6768 35.4599 26.6112 35.5014 26.5376 35.5153L25.9876 35.5868V36.1368H30.1016C31.9936 36.1368 32.8076 35.2202 32.8076 34.001C32.8168 32.9065 31.9936 31.9843 30.1016 31.9843ZM29.4654 35.3357H28.4058V32.769H29.4654C30.4774 32.769 30.9009 33.0073 30.9009 34.0523C30.9009 35.0973 30.4774 35.3357 29.4654 35.3357ZM39.7468 35.4988C39.5634 35.475 39.4461 35.2953 39.2976 35.0662L37.4313 32.2135C37.3937 32.1481 37.3406 32.0929 37.2766 32.053C37.2127 32.013 37.1398 31.9894 37.0646 31.9843H33.8673V32.5472L34.6006 32.6333C34.6397 32.6372 34.677 32.6517 34.7086 32.6752C34.7401 32.6987 34.7646 32.7303 34.7795 32.7667C34.7944 32.803 34.7991 32.8428 34.7931 32.8817C34.7871 32.9205 34.7706 32.957 34.7454 32.9872L33.3429 35.2697C33.3157 35.3316 33.2741 35.3861 33.2214 35.4285C33.1688 35.4709 33.1067 35.5001 33.0404 35.5135L32.4794 35.5777V36.1277H35.1359V35.5667L34.6794 35.5098C34.4961 35.4842 34.3696 35.3705 34.4961 35.1743L34.6923 34.8572H37.2443L37.4148 35.1175C37.5981 35.387 37.4148 35.4842 37.1948 35.5098L36.7383 35.5667V36.1295H40.3334V35.5667L39.7468 35.4988ZM35.1488 34.1293L35.9481 32.846L36.7621 34.1293H35.1488Z" fill="#0F0F0F"/>
</svg>
