<svg xmlns="http://www.w3.org/2000/svg" width="44" height="44" viewBox="0 0 44 44" fill="none">
  <path d="M22.0001 12.5968C11.8709 12.5968 3.66675 16.6485 3.66675 21.6462C3.66675 26.6438 11.8727 30.6992 22.0001 30.6992C32.1274 30.6992 40.3334 26.6457 40.3334 21.6462C40.3334 16.6467 32.1237 12.5968 22.0001 12.5968ZM20.2529 14.6135C23.8688 14.0718 27.5633 14.4715 30.9797 15.774C31.7516 16.5073 27.5312 18.8907 22.5079 19.9265C15.3341 21.3748 18.7477 15.8345 20.2547 14.6153L20.2529 14.6135ZM7.92558 25.333C6.33058 24.2092 3.25425 20.988 8.37658 17.633C10.2395 16.4794 12.3053 15.6917 14.4632 15.312C15.3671 15.1195 16.0087 15.3432 15.1966 16.0197C12.9578 18.738 11.0848 21.7377 9.62508 24.9425C9.37575 25.8188 8.85875 26.0425 7.92558 25.333ZM22.6747 29.0693C19.6479 29.3883 12.9177 28.3928 12.7747 27.5238C12.9086 25.4302 23.4777 21.9578 25.3807 23.8737C26.1874 25.3972 24.6401 28.9832 22.6747 29.0693ZM38.0747 22.9845C37.2992 24.7518 34.6904 26.752 29.2161 28.0922C28.3764 28.2847 28.0904 27.7732 28.6349 27.2873C30.8918 24.4157 32.8357 21.3114 34.4337 18.0272C34.7546 17.2938 35.3669 17.578 35.7537 17.8658C36.6727 18.3191 37.4061 19.0769 37.829 20.0103C38.2519 20.9436 38.3399 21.9947 38.0747 22.9845Z" fill="#0F0F0F"/>
</svg>
