<svg xmlns="http://www.w3.org/2000/svg" width="44" height="21" viewBox="0 0 44 21" fill="none">
    <path d="M3.5805 9.47283C3.5805 12.2412 6.9355 14.4045 12.0157 15.6035L20.8908 5.478H22L14.3183 20.2547C5.95833 18.8247 0 15.0957 0 10.5545C0 4.71717 9.856 0 22 0C34.144 0 44 4.71717 44 10.5545C44 15.0957 38.0417 18.8247 29.6817 20.2583L22 5.478H23.1092L31.9825 15.6035C37.0645 14.4045 40.4177 12.2412 40.4177 9.47283C40.4177 4.58883 32.197 0.526167 21.9982 0.526167C11.8012 0.526167 3.5805 4.58883 3.5805 9.47283Z" fill="#0F0F0F"/>
</svg>