<svg xmlns="http://www.w3.org/2000/svg" width="44" height="44" viewBox="0 0 44 44" fill="none">
    <path d="M40.2251 22.1155L39.9208 22.0183L39.0866 22.0513C38.6266 22.0022 38.181 21.862 37.7758 21.6388L36.8023 20.9568C35.6938 20.1782 34.5357 19.4727 33.3355 18.8448L31.1153 17.7448C29.6099 17.02 28.0813 16.3444 26.532 15.719L21.659 13.7848C21.0128 13.5189 20.3295 13.3544 19.6331 13.2972L17.8346 13.266C16.9012 13.2374 15.9682 13.3386 15.0626 13.5667L14.2816 13.794C13.915 13.9022 13.7628 14.0012 13.7738 14.0763L13.86 14.1405L14.8133 13.871L15.1158 13.838L15.4201 13.8912L15.7116 13.9242C15.7901 13.9189 15.8666 13.8969 15.9359 13.8596C16.0051 13.8223 16.0656 13.7705 16.1131 13.7078C16.2415 13.5465 16.5048 13.4781 16.9033 13.5025L17.3048 13.5447L16.5715 13.772L15.9866 14.2817C15.8049 14.2908 15.6235 14.2575 15.4568 14.1845L15.0021 14.0543L14.7198 14.2065L14.9691 14.4448C15.0742 14.6085 15.1266 14.8005 15.1195 14.9948C15.0241 14.8761 14.904 14.7797 14.7676 14.7122C14.6311 14.6447 14.4815 14.6079 14.3293 14.6043L13.7995 14.6483L13.4951 14.5182L12.9763 14.9728L12.9433 15.07L13.1028 15.0333L13.4163 14.85L13.1028 15.1745L13.0258 15.3707C13.016 15.62 13.0918 15.7496 13.2531 15.7593H13.3833C13.3729 15.6435 13.3901 15.5268 13.4337 15.419C13.4772 15.3112 13.5458 15.2152 13.6337 15.1391C13.7217 15.063 13.8264 15.0089 13.9394 14.9812C14.0524 14.9536 14.1703 14.9532 14.2835 14.9802C14.4009 14.9835 14.5164 15.0112 14.6224 15.0618C14.7285 15.1123 14.8229 15.1844 14.8995 15.2735C14.9707 15.3624 15.0236 15.4646 15.055 15.5741C15.0865 15.6836 15.0959 15.7983 15.0828 15.9115C15.0828 16.0584 15.0337 16.2012 14.9434 16.3171C14.853 16.433 14.7266 16.5154 14.5841 16.5513L14.509 16.5953L14.575 16.6833L14.8023 16.6503C15.0486 16.5802 15.2768 16.4578 15.4714 16.2914C15.666 16.1249 15.8224 15.9184 15.9298 15.686L16.5788 14.4943L18.3993 15.1782C18.8137 14.9938 19.1971 14.7464 19.536 14.4448C19.4101 14.7393 19.2461 15.0161 19.0483 15.268L18.5075 15.7227L16.8575 15.0938L16.5751 15.6585L18.1995 16.2745L18.601 16.4927L18.9805 16.8282L19.5305 16.8483C19.1638 16.4157 18.9988 16.115 19.0098 15.961C19.0673 15.7542 19.1757 15.5651 19.3251 15.411L19.91 14.641L19.5836 15.9518C19.7411 16.2788 19.9368 16.5859 20.1666 16.8667L21.5948 17.127L22.1155 17.3543L20.8816 17.2792L18.865 17.3213L17.8035 17.5817L17.369 18.3498L17.7356 19.0648L18.2453 19.1308L18.733 18.546L18.4946 18.1555L19.6973 18.0583L21.7763 18.3407H22.5775L23.1091 17.4845L22.1833 15.5503L22.1063 15.2258C22.1063 14.8592 22.2695 14.7052 22.594 14.7162C22.6713 14.7014 22.751 14.7034 22.8276 14.722C22.9041 14.7407 22.9757 14.7756 23.0376 14.8243C22.7137 14.8219 22.5518 14.9337 22.5518 15.1598C22.5497 15.2236 22.5642 15.2868 22.594 15.3432L23.65 17.3268C24.0878 17.4742 24.5435 17.5617 25.0048 17.5872C25.5096 17.6254 26.0167 17.6217 26.521 17.5762C26.2121 17.7507 25.8669 17.8511 25.5126 17.8695L24.2018 17.9337L23.5198 17.8365L23.1843 18.3865L24.651 18.6047C25.3329 18.632 26.0158 18.6246 26.697 18.5827L27.9968 18.5057C28.127 18.5167 28.3635 18.689 28.6898 19.0373L30.1858 20.6727C30.3993 20.9222 30.6557 21.1314 30.943 21.2905C31.2868 21.4563 31.6614 21.5487 32.043 21.5618L35.2715 21.7342L36.938 23.2393L37.9353 23.3163L38.2818 22.979L37.752 22.4052L37.2313 22.352C37.0553 22.3128 36.8916 22.231 36.7546 22.1137L35.2715 20.7588L34.144 20.6727C34.0098 20.673 33.8775 20.6407 33.7587 20.5784C33.6399 20.5161 33.538 20.4257 33.462 20.3152L32.6608 19.3288L31.5993 18.3553C32.5466 18.797 33.3915 19.4314 34.0798 20.218L35.1963 20.2932C35.4477 20.3351 35.679 20.4566 35.8563 20.6397L37.1671 21.8002C37.3857 21.908 37.6276 21.9597 37.8711 21.9505L38.2176 22.1577L38.7383 22.7535L39.908 22.6985C40.1768 22.6887 40.3211 22.5665 40.3406 22.3318L40.2251 22.1155ZM17.0885 26.4367V27.8447L16.2543 28.0078C15.9979 28.0136 15.7438 27.9575 15.5137 27.8442C15.2836 27.7309 15.0842 27.5638 14.9325 27.357C14.5826 26.8536 14.4109 26.2477 14.4448 25.6355C14.4104 24.985 14.6144 24.3442 15.0186 23.8333C15.2187 23.6158 15.4641 23.445 15.7375 23.3328C16.0109 23.2207 16.3056 23.17 16.6008 23.1843C17.1975 23.1836 17.7717 23.412 18.205 23.8223V22.7223C17.6146 22.5216 16.9952 22.4194 16.3716 22.4198C15.4831 22.3925 14.6194 22.7151 13.9663 23.3182C13.6561 23.6106 13.4117 23.9657 13.2492 24.3599C13.0868 24.754 13.01 25.1782 13.024 25.6043C13 26.0309 13.0678 26.4577 13.2227 26.8559C13.3777 27.254 13.6163 27.6144 13.9223 27.9125C14.5811 28.4929 15.4394 28.7953 16.3166 28.7558C17.0237 28.7831 17.7247 28.615 18.3425 28.27V25.7217H16.7731C16.9544 25.9186 17.0653 26.17 17.0885 26.4367ZM5.06363 23.144V27.401C5.08433 27.9543 4.99587 28.5062 4.80329 29.0253C4.54608 29.5316 4.15235 29.9558 3.66663 30.25H5.09663C5.53886 29.8119 5.87955 29.2821 6.09464 28.698C6.30974 28.1138 6.39399 27.4896 6.34146 26.8693V22.5592H4.83629C4.98288 22.7186 5.06404 22.9274 5.06363 23.144ZM12.397 27.8777L10.2318 22.5372H9.42879L7.37179 27.7145C7.24919 28.0666 7.02215 28.3729 6.72096 28.5927H8.41129C8.34519 28.555 8.28906 28.5021 8.2476 28.4383C8.20613 28.3745 8.18054 28.3017 8.17296 28.226L8.24813 27.9327L8.56346 27.0453H10.7085L11.0751 28.0958C11.1183 28.1838 11.1254 28.2852 11.095 28.3784C11.0645 28.4715 10.9988 28.5491 10.912 28.5945H12.9066C12.6674 28.4133 12.4895 28.1631 12.397 27.8777ZM8.82196 26.3395L9.64696 24.3137L10.4041 26.3395H8.82196ZM35.4915 28.0298L34.2356 25.6997C34.5667 25.5939 34.8558 25.3863 35.0619 25.1064C35.268 24.8266 35.3805 24.4889 35.3833 24.1413C35.3845 23.0878 34.6335 22.5604 33.1301 22.5592H31.0511C31.1993 22.7176 31.2807 22.9271 31.2785 23.144V28.6H32.8166C32.6537 28.4073 32.5722 28.1588 32.5893 27.907V23.2833L33.0678 23.2503C33.1971 23.2397 33.3272 23.2579 33.4486 23.3036C33.5701 23.3493 33.6798 23.4215 33.77 23.5148C33.8601 23.6081 33.9284 23.7203 33.97 23.8432C34.0115 23.9662 34.0252 24.0968 34.0101 24.2257C34.0301 24.393 34.013 24.5627 33.9601 24.7227C33.9071 24.8827 33.8197 25.0292 33.7039 25.1516C33.5881 25.2741 33.4468 25.3695 33.29 25.4313C33.1331 25.4931 32.9647 25.5196 32.7965 25.509L34.0963 28.2058C34.1379 28.3222 34.2141 28.4231 34.3147 28.4949C34.4153 28.5667 34.5355 28.6059 34.6591 28.6073H36.003C35.7892 28.458 35.6139 28.26 35.4915 28.0298ZM24.6711 22.5592H23.0028C23.1431 22.6638 23.2532 22.8038 23.3218 22.9648C23.3904 23.1258 23.415 23.3022 23.3933 23.4758V26.5302C23.3908 27.4322 22.9826 27.8838 22.1686 27.885C21.9859 27.9118 21.7995 27.8956 21.6242 27.8375C21.449 27.7795 21.2897 27.6812 21.1591 27.5507C21.0285 27.4201 20.9303 27.2608 20.8723 27.0856C20.8142 26.9103 20.798 26.7239 20.8248 26.5412V22.5592H19.2335C19.3267 22.6382 19.3997 22.7383 19.4466 22.8511C19.4934 22.964 19.5128 23.0864 19.503 23.2082V26.2625C19.4598 26.6025 19.4964 26.9479 19.6097 27.2713C19.7231 27.5947 19.9102 27.8874 20.1561 28.126C20.4021 28.3647 20.7002 28.5429 21.0269 28.6465C21.3536 28.75 21.6999 28.7762 22.0385 28.7228C22.3372 28.74 22.6364 28.696 22.9176 28.5935C23.1987 28.4911 23.4561 28.3323 23.6738 28.127C23.8825 27.9003 24.0429 27.6336 24.1453 27.343C24.2477 27.0525 24.29 26.7441 24.2696 26.4367V23.4795C24.2503 23.3044 24.2772 23.1273 24.3477 22.9658C24.4181 22.8043 24.5296 22.6641 24.6711 22.5592ZM30.1088 27.8777L27.9528 22.5372H27.1333L25.0745 27.7145C24.9523 28.0663 24.726 28.3727 24.4255 28.5927H26.136C26.0699 28.555 26.0137 28.5021 25.9723 28.4383C25.9308 28.3745 25.9052 28.3017 25.8976 28.226L25.9636 27.9327L26.2661 27.0453H28.4166L28.7961 28.0958C28.8345 28.1845 28.839 28.2842 28.809 28.3761C28.7789 28.4679 28.7163 28.5456 28.633 28.5945H30.6258C30.3793 28.419 30.1975 28.167 30.1088 27.8777ZM26.5448 26.3395L27.346 24.3137L28.1251 26.3395H26.5448Z" fill="#0F0F0F"/>
</svg>