<svg xmlns="http://www.w3.org/2000/svg" width="44" height="44" viewBox="0 0 44 44" fill="none">
  <path d="M26.477 18.6853C25.904 18.7199 25.344 18.87 24.8306 19.1267C24.3173 19.3835 23.8612 19.7414 23.4898 20.1791C23.1185 20.6167 22.8395 21.125 22.6698 21.6733C22.5001 22.2216 22.4431 22.7986 22.5023 23.3695C22.472 23.9348 22.5605 24.5002 22.762 25.0292C22.9636 25.5583 23.2739 26.0392 23.6727 26.4409C24.0715 26.8427 24.5501 27.1565 25.0777 27.3619C25.6052 27.5674 26.1699 27.66 26.7355 27.6338C29.2233 27.665 30.8715 26.0498 30.8715 24.8545H28.1215C28.0037 25.0927 27.8204 25.2922 27.593 25.4296C27.3656 25.567 27.1037 25.6365 26.8381 25.63C25.8683 25.63 25.3183 25.08 25.3183 23.7563H30.9063C30.9008 19.5892 28.8346 18.6853 26.477 18.6853ZM25.4081 22.077C25.4081 21.2043 25.7638 20.493 26.7648 20.493C26.9702 20.4866 27.1746 20.524 27.3644 20.6027C27.5542 20.6814 27.7251 20.7996 27.8657 20.9494C28.0064 21.0992 28.1135 21.2773 28.18 21.4717C28.2466 21.6661 28.271 21.8724 28.2516 22.077H25.4081ZM17.5431 18.6853C16.97 18.7196 16.4098 18.8696 15.8962 19.1262C15.3827 19.3828 14.9263 19.7408 14.5548 20.1784C14.1832 20.6161 13.9041 21.1245 13.7343 21.6729C13.5645 22.2213 13.5074 22.7984 13.5666 23.3695C13.5363 23.935 13.6248 24.5005 13.8265 25.0297C14.0282 25.5588 14.3386 26.0398 14.7376 26.4416C15.1367 26.8435 15.6155 27.1571 16.1433 27.3625C16.671 27.5678 17.236 27.6603 17.8016 27.6338C20.2895 27.665 21.9376 26.0498 21.9376 24.8545H19.1876C19.0699 25.0927 18.8865 25.2922 18.6592 25.4296C18.4318 25.567 18.1699 25.6365 17.9043 25.63C16.9345 25.63 16.3863 25.08 16.3863 23.7563H21.9743C21.9688 19.5892 19.9026 18.6853 17.5431 18.6853ZM16.4761 22.077C16.4761 21.2043 16.8318 20.493 17.8328 20.493C18.038 20.4869 18.2422 20.5245 18.4318 20.6033C18.6214 20.6821 18.7921 20.8003 18.9325 20.9501C19.0729 21.0999 19.1799 21.2778 19.2463 21.4721C19.3128 21.6664 19.3371 21.8726 19.3178 22.077H16.4761ZM10.0301 23.3365C10.0421 23.5674 10.0034 23.7981 9.91649 24.0124C9.82963 24.2266 9.69681 24.4192 9.52741 24.5766C9.358 24.7339 9.15613 24.8522 8.93604 24.923C8.71595 24.9938 8.483 25.0155 8.25363 24.9865C8.03039 24.9967 7.80749 24.9602 7.59914 24.8794C7.39079 24.7986 7.20157 24.6753 7.04355 24.5172C6.88553 24.3592 6.76219 24.17 6.6814 23.9617C6.6006 23.7533 6.56412 23.5304 6.57429 23.3072V21.8863H3.66663V23.3402C3.66663 24.8252 4.11946 27.4762 8.28663 27.4762C12.4538 27.4762 13.035 24.6327 13.035 23.276V15.3927H10.0301V23.3365ZM36.7785 18.7825C36.3997 18.7593 36.0205 18.8186 35.6669 18.9563C35.3134 19.094 34.9939 19.3068 34.7306 19.58C34.5363 19.8147 34.2925 20.0622 34.2925 19.4608V19.008H31.5131V30.1528H34.3236V27.0838C34.3236 26.8565 34.5491 26.8913 34.7123 27.0838C35.2976 27.5749 36.0513 27.8183 36.8133 27.7622C39.0426 27.7622 40.3333 25.8243 40.3333 23.1788C40.3333 19.7505 38.17 18.7825 36.7785 18.7825ZM35.9425 25.7913C34.584 25.7913 34.2283 24.9187 34.2595 23.2723C34.2906 21.626 34.9378 20.9385 35.8105 20.9385C37.2331 20.9385 37.4916 22.0385 37.4916 23.1678C37.4916 24.2972 37.2973 25.7913 35.9425 25.7913Z" fill="#0F0F0F"/>
</svg>
