<svg xmlns="http://www.w3.org/2000/svg" width="44" height="44" viewBox="0 0 44 44" fill="none">
  <path d="M25.5255 25.9875C25.5267 26.0731 25.5518 26.1171 25.6007 26.1195C25.6399 26.1166 25.6772 26.1012 25.707 26.0755L39.4203 17.1765C39.652 17.0143 39.9296 16.9307 40.2123 16.9382H43.2263C43.6883 16.9382 44 17.2462 44 17.7082V23.463C44 24.1597 43.846 24.563 43.23 24.9315L39.5743 27.1315C39.5379 27.1565 39.4956 27.1717 39.4515 27.1755C39.4075 27.1755 39.3635 27.1407 39.3635 27.0142V20.2987C39.3635 20.2198 39.3415 20.1685 39.2883 20.1685C39.2491 20.1714 39.2118 20.1868 39.182 20.2125L29.161 26.7227C28.9343 26.8774 28.6655 26.9587 28.391 26.9555H21.747C21.2813 26.9555 20.9733 26.6475 20.9733 26.1818V17.8878C20.9733 17.8273 20.9458 17.7705 20.8927 17.7705C20.8541 17.7738 20.8175 17.7892 20.7882 17.8145L14.1753 21.78C14.1093 21.824 14.091 21.8552 14.091 21.8863C14.091 21.912 14.1057 21.9395 14.1497 21.9872L18.8742 26.708C18.9365 26.7703 18.9805 26.818 18.9805 26.8712C18.9805 26.9152 18.909 26.95 18.8265 26.95H14.5567C14.2212 26.95 13.9627 26.9023 13.7812 26.7208L10.9175 23.8608C10.9064 23.8481 10.893 23.8376 10.8779 23.8301C10.8628 23.8225 10.8463 23.818 10.8295 23.8168C10.7983 23.8184 10.768 23.8278 10.7415 23.8443L5.9565 26.7227C5.72769 26.8764 5.45651 26.9546 5.181 26.9463H0.779167C0.308 26.95 0 26.6383 0 26.1782V20.5315C0 19.8348 0.154 19.4315 0.773667 19.0648L4.455 16.852C4.48346 16.8336 4.51646 16.8234 4.55033 16.8227C4.609 16.8227 4.63833 16.8777 4.63833 17.006V24.5667C4.63833 24.6455 4.65667 24.6822 4.7135 24.6822C4.7531 24.6763 4.79077 24.6612 4.8235 24.6382L17.2462 17.16C17.4868 16.9975 17.7738 16.9177 18.0638 16.9327H24.7518C25.2138 16.9327 25.5255 17.2407 25.5255 17.7027L25.5218 25.9857L25.5255 25.9875Z" fill="#0F0F0F"/>
</svg>
