<svg xmlns="http://www.w3.org/2000/svg" width="44" height="44" viewBox="0 0 44 44" fill="none">
  <path d="M18.667 21.0668H19.9815L21.1273 17.6752L21.7965 21.0668H23.1128L24.9058 15.8272L23.5308 15.829L22.5738 18.678L22.0257 15.829H20.174L20.1282 15.9647L20.2198 16.0527C20.317 16.1498 20.3115 16.2617 20.229 16.5037L18.667 21.0668ZM25.5402 16.5037L23.9763 21.0687H26.2845C27.2745 21.0687 27.8373 20.8487 28.2975 20.3592C28.8713 19.7505 29.3975 18.1683 29.3792 17.2975C29.3627 16.4083 28.7888 15.8308 27.5825 15.8308H25.4833L25.4393 15.9647L25.531 16.0527C25.6263 16.1498 25.6245 16.2617 25.5402 16.5037ZM26.7942 17.072H27.368C27.7585 17.072 27.973 17.2022 27.9785 17.5047C27.9822 17.699 27.929 17.9667 27.7273 18.5405C27.5477 19.0538 27.4047 19.3527 27.2012 19.5708C27.0398 19.7432 26.8217 19.8183 26.3248 19.8183H25.8463L26.7942 17.072ZM34.2485 17.7082H30.7633L30.3105 18.9548H32.7268L29.9823 19.888L29.8118 20.3335L33.7663 19.0318L34.2485 17.7082ZM9.2455 21.0687H12.8205L13.2532 19.8183H11.1742L12.5492 15.829H10.7543L10.7103 15.9647L10.8002 16.0527C10.8973 16.1498 10.8937 16.2617 10.8093 16.5037L9.2455 21.0687ZM13.1927 21.0668H14.7143L15.3725 19.9082H16.9473L16.962 21.0668H18.3425L18.0455 15.829H15.9793L15.9335 15.9647L15.9995 16.0307C16.1095 16.137 16.0637 16.291 15.6622 16.929L13.1927 21.0668ZM16.852 17.2773H16.8997L16.9253 18.8613H15.9592L16.852 17.2773ZM14.685 22.2017H12.4227L12.3768 22.3373L12.4685 22.429C12.5657 22.5225 12.5602 22.6362 12.4758 22.8782L10.8955 27.4432H12.3402L12.958 25.63H13.4475L13.9902 27.4413H15.4422L14.7602 25.5897C15.056 25.5589 15.3341 25.4342 15.554 25.234C15.8272 24.9847 16.016 24.6363 16.1718 24.1212C16.3992 23.375 16.2617 22.9478 16.115 22.7278C15.9133 22.4272 15.488 22.2017 14.685 22.2017ZM14.8097 24.1047C14.718 24.3283 14.619 24.3815 14.4888 24.4347C14.3416 24.469 14.1908 24.485 14.0397 24.4823H13.3467L13.7225 23.3988H14.5567C14.806 23.3988 14.9087 23.5272 14.9123 23.6775C14.8992 23.8243 14.8639 23.9683 14.8078 24.1047M33.9405 22.2017H31.68L31.636 22.3373L31.7277 22.429C31.8248 22.5225 31.8193 22.6362 31.7368 22.8782L30.1547 27.4432H31.6012L32.2172 25.6318H32.7067L33.2512 27.4413H34.6995L34.0212 25.5897C34.3157 25.5581 34.5924 25.4335 34.8113 25.234C35.0863 24.9847 35.2752 24.6363 35.431 24.1212C35.6583 23.375 35.5227 22.9478 35.376 22.7278C35.1743 22.4272 34.7453 22.2017 33.9405 22.2017ZM34.0688 24.1047C33.9772 24.3283 33.8782 24.3815 33.7498 24.4347C33.6026 24.469 33.4518 24.485 33.3007 24.4823H32.6113L32.9835 23.3988H33.8177C34.067 23.3988 34.1697 23.5272 34.1715 23.6775C34.1589 23.8242 34.1243 23.9682 34.0688 24.1047ZM36.575 15.411C32.2392 13.1707 26.84 12.3127 22 12.3127C17.16 12.3127 11.7608 13.1707 7.425 15.411C4.98667 16.6705 1.8975 18.9402 1.8975 22C1.8975 25.0598 4.9885 27.3295 7.425 28.589C11.7608 30.8293 17.16 31.6873 22 31.6873C26.84 31.6873 32.2392 30.8312 36.575 28.589C39.0115 27.3295 42.1025 25.0598 42.1025 22C42.1025 18.9383 39.0133 16.6705 36.575 15.411ZM36.355 28.16C32.0833 30.3655 26.7722 31.2033 22 31.2033C17.2278 31.2033 11.9167 30.3655 7.645 28.16C5.38817 26.9885 2.38333 24.8343 2.38333 22C2.38333 19.162 5.38633 17.0097 7.645 15.8418C11.9167 13.6363 17.2297 12.7985 22 12.7985C26.7703 12.7985 32.0833 13.6345 36.355 15.8418C38.6155 17.0097 41.6167 19.1602 41.6167 22.0018C41.6167 24.838 38.6137 26.9903 36.355 28.16ZM37.4458 13.7262C33.3135 11.5903 27.83 10.4152 22 10.4152C16.1718 10.4152 10.6883 11.5903 6.55417 13.7262C4.10667 14.9912 0 17.7485 0 22C0 26.2515 4.10667 29.0088 6.55417 30.2738C10.6865 32.4097 16.1718 33.5867 22 33.5867C27.8282 33.5867 33.3135 32.4115 37.4458 30.2757C39.8933 29.0088 44 26.2533 44 22C44 17.7467 39.8933 14.9912 37.4458 13.7262ZM36.9087 29.2362C32.9395 31.284 27.6467 32.4133 22 32.4133C16.3533 32.4133 11.0623 31.284 7.09133 29.2325C3.27433 27.2617 1.16967 24.6913 1.16967 22C1.16967 19.3068 3.27433 16.7383 7.09133 14.7657C11.0623 12.716 16.3552 11.5867 22 11.5867C27.6467 11.5867 32.9395 12.7178 36.9087 14.7675C40.7275 16.7383 42.8303 19.3087 42.8303 22.0018C42.8303 24.6932 40.7275 27.2635 36.9087 29.2362ZM19.657 22.1412H19.4902C18.502 22.1412 17.9392 22.4052 17.4753 22.8965C16.8997 23.507 16.3588 25.1515 16.3698 26.0242C16.3808 26.9115 16.9565 27.5275 18.1628 27.5275H18.3388C19.3288 27.5275 19.8935 27.2617 20.3555 26.7703C20.9312 26.1598 21.461 24.5153 21.45 23.6427C21.439 22.7553 20.8633 22.1393 19.6552 22.1393M19.7395 24.9168C19.5598 25.432 19.4187 25.7638 19.2115 25.982C19.0465 26.1543 18.832 26.2772 18.3315 26.2772C17.9428 26.2772 17.7265 26.1177 17.7265 25.817C17.7228 25.6208 17.776 25.3257 17.985 24.75C18.1647 24.2367 18.3058 23.903 18.5148 23.6848C18.6762 23.5125 18.8943 23.3897 19.3912 23.3897C19.7817 23.3897 19.998 23.5492 19.9962 23.848C20.0017 24.046 19.9485 24.343 19.7395 24.9168ZM11.0642 22.88L7.10967 24.1798L6.6275 25.5053H10.1145L10.5692 24.2568H8.151L10.8955 23.3273L11.0642 22.88ZM25.4485 22.2035L23.5308 25.971H23.4905L23.3933 22.2035H21.7892L21.7268 22.3392L21.8643 22.4235C21.9982 22.517 22.0348 22.6123 22.0513 22.8745L22.2695 27.4432H24.057L26.9408 22.2035H25.4485ZM29.8412 25.3422L30.2427 24.2477H28.3983L28.6843 23.4098H30.679L31.119 22.1998H27.3533L27.3002 22.3538L27.3918 22.4437C27.489 22.5372 27.4835 22.649 27.3992 22.8947L25.8317 27.4413H29.3517L29.777 26.2258H27.7237L28.0243 25.3422H29.8412Z" fill="#0F0F0F"/>
</svg>
