<svg xmlns="http://www.w3.org/2000/svg" width="44" height="44" viewBox="0 0 44 44" fill="none">
  <path d="M38.6981 33.5793H34.5603C34.5848 33.3424 34.691 33.1215 34.8606 32.9542C35.0301 32.787 35.2526 32.6839 35.4898 32.6627H39.6789L39.6643 31.7863H35.2221C34.5509 31.7937 33.9086 32.0607 33.4301 32.5314C32.9515 33.0021 32.6739 33.6398 32.6554 34.3108C32.6535 34.3323 32.6565 34.354 32.6642 34.3742C32.6719 34.3943 32.684 34.4125 32.6997 34.4273C32.7154 34.4421 32.7343 34.4532 32.7549 34.4597C32.7754 34.4662 32.7972 34.4679 32.8186 34.4648L37.8603 34.4465C37.9812 34.4593 38.0936 34.5146 38.1775 34.6026C38.2615 34.6905 38.3115 34.8055 38.3186 34.9268C38.3149 34.9952 38.2976 35.0621 38.2679 35.1237C38.2382 35.1854 38.1966 35.2405 38.1455 35.286C38.0943 35.3315 38.0347 35.3665 37.9701 35.3888C37.9054 35.4112 37.8369 35.4205 37.7686 35.4163H32.2319V31.7827H30.5984V35.4163H27.5954C27.4648 35.4369 27.3312 35.4268 27.2052 35.387C27.0791 35.3472 26.964 35.2786 26.8689 35.1867C26.7738 35.0949 26.7014 34.9822 26.6573 34.8575C26.6131 34.7329 26.5985 34.5997 26.6146 34.4685V31.7588H23.9068C23.6391 31.9422 23.3806 32.1402 23.1038 32.3088L21.4959 33.297L19.4096 31.7735H13.0938C12.3979 31.7429 11.7124 31.9505 11.1504 32.362C10.8581 32.553 10.6085 32.8024 10.4173 33.0946C10.2261 33.3867 10.0974 33.7153 10.0394 34.0597H11.1394C10.6871 34.3839 10.3438 34.8378 10.1549 35.3613H6.53226C6.26808 35.3821 6.00644 35.2973 5.80471 35.1254C5.60297 34.9536 5.47761 34.7088 5.4561 34.4447V31.7405H3.8501V34.5547C3.8501 35.5667 4.8126 36.2652 6.35443 36.2652H16.1609V35.3485H12.2669C12.2967 35.1068 12.4085 34.8826 12.5837 34.7134C12.7588 34.5442 12.9868 34.4403 13.2294 34.419H16.7604V33.4895H12.2211C12.1679 33.2163 12.6758 32.681 13.0663 32.681H17.3361V32.1823L20.0989 34.166L18.2106 35.3485H16.1609V36.2652H18.5333C18.7881 36.0928 19.0283 35.9113 19.2904 35.7518L20.9404 34.749L23.0378 36.2468H25.4211L22.2659 33.8745L23.8866 32.8167C24.2313 32.5893 24.5943 32.3987 24.9481 32.1915V34.5748C24.9481 35.5832 25.2066 36.2817 27.2361 36.2817L38.6926 36.2542C38.8777 36.2699 39.064 36.247 39.2397 36.1869C39.4155 36.1267 39.5767 36.0306 39.7133 35.9047C39.8499 35.7789 39.9588 35.6259 40.033 35.4557C40.1073 35.2854 40.1453 35.1016 40.1446 34.9158C40.1274 34.5477 39.9661 34.2011 39.6954 33.951C39.4247 33.7009 39.0664 33.5674 38.6981 33.5793ZM22.0001 30.4535C28.3178 30.4535 32.4501 28.4203 34.8444 25.8078H32.4263C29.4726 28.1522 25.7592 29.327 21.9946 29.1078C12.3531 29.1078 8.7946 23.6903 8.7946 19.0245C8.86426 14.8592 12.6776 9.11166 22.2293 8.92282C22.5959 8.91182 22.8709 9.24182 22.6198 9.55349C20.9881 11.5702 16.3333 18.062 15.8034 18.9035C15.1596 19.7492 14.7658 20.7584 14.6668 21.8167C14.619 22.218 14.6666 22.6249 14.8058 23.0044C14.945 23.3838 15.1719 23.725 15.4679 24.0002C16.9724 24.9649 18.7817 25.336 20.5444 25.0415H34.8096C35.0371 25.0604 35.2651 25.0114 35.4648 24.9008C35.6645 24.7902 35.8269 24.6229 35.9316 24.42C36.9843 22.8413 37.5573 20.9915 37.5816 19.0942C37.5816 15.4697 35.2294 10.9047 29.2711 8.84216L28.6001 9.80832C33.3264 12.0505 35.2789 14.9838 35.2789 19.0887C35.3082 20.2945 34.9651 21.4801 34.2963 22.484H20.4234C19.5929 22.484 19.4719 21.5417 19.7726 21.0173C20.9614 18.8992 22.2892 16.8622 23.7473 14.9197C25.1331 13.0811 26.5449 11.2622 27.9823 9.46366C28.3728 8.95399 28.1106 8.46265 27.3314 8.30315C25.5686 7.91864 23.7696 7.72381 21.9653 7.72199C10.5821 7.71649 6.41676 14.2542 6.41676 19.0997C6.41676 24.3558 10.6114 30.4535 22.0001 30.4535Z" fill="#0F0F0F"/>
</svg>
