<svg xmlns="http://www.w3.org/2000/svg" width="37" height="28" viewBox="0 0 37 28" fill="none">
    <path d="M35.7729 18.4268C32.9904 11.8215 28.3797 6.14803 22.483 2.0735C21.2381 1.13629 19.8328 0.433655 18.336 0C16.8393 0.433655 15.434 1.13629 14.189 2.0735C8.2917 6.14777 3.68037 11.8213 0.89737 18.4268C0.453182 19.4654 0.152205 20.5595 0.00270326 21.6792C-0.00695721 21.7914 0.00935327 21.9043 0.05037 22.0092C0.0816358 22.1333 0.144841 22.247 0.233703 22.3392C1.11731 23.0228 2.08305 23.5931 3.10837 24.0368C7.9 26.1767 13.0883 27.2842 18.336 27.2873C23.58 27.2826 28.7645 26.1751 33.5527 24.0368C34.578 23.5931 35.5438 23.0228 36.4274 22.3392C36.5162 22.247 36.5794 22.1333 36.6107 22.0092C36.6517 21.9043 36.668 21.7914 36.6584 21.6792C36.5118 20.56 36.2139 19.4659 35.7729 18.4268ZM3.53737 23.0927C2.75734 22.7552 2.02802 22.311 1.37037 21.7727C1.31183 21.702 1.26424 21.6228 1.2292 21.538C1.18834 21.4492 1.17189 21.3511 1.18154 21.2538C1.30117 20.4237 1.53885 19.615 1.88737 18.8522C4.19635 13.3398 7.81778 8.47531 12.4364 4.68233C12.77 4.40917 13.1074 4.13233 13.4502 3.8775L13.9654 3.48883C14.2257 3.29572 14.4885 3.10689 14.7537 2.92233L14.7702 2.91133L14.7995 2.89117L14.8399 2.86367L14.893 2.827L14.959 2.78483L15.036 2.73533L15.124 2.6785L15.2194 2.618L15.377 2.51717C16.0662 2.06813 16.7939 1.68101 17.5514 1.36033L17.621 1.33467C17.7666 1.28191 17.9154 1.23844 18.0665 1.2045C18.1556 1.1887 18.2456 1.17951 18.336 1.177L18.4919 1.188C18.5704 1.19884 18.6482 1.21476 18.7247 1.23567L18.8512 1.27233L18.9832 1.3145C19.0736 1.34506 19.1665 1.3805 19.2619 1.42083C19.3095 1.43917 19.3572 1.45933 19.4049 1.48133L19.4782 1.51433C19.6493 1.59256 19.8229 1.67689 19.9989 1.76733C20.2519 1.89933 20.4963 2.03439 20.7322 2.1725L20.8184 2.222L21.064 2.3705L21.2474 2.48233L21.4637 2.618L21.504 2.64367L21.636 2.72983L21.713 2.77933L21.7772 2.8215L21.9184 2.91683C22.1591 3.08428 22.3981 3.256 22.6352 3.432L22.7892 3.54567C22.9848 3.69111 23.1791 3.83839 23.3722 3.9875L23.5959 4.17083L24.0964 4.57417C25.0387 5.34172 25.9419 6.1545 26.806 7.0125C30.2198 10.3962 32.9313 14.421 34.7847 18.8558C35.1332 19.6187 35.3709 20.4274 35.4905 21.2575C35.5008 21.3546 35.4849 21.4527 35.4447 21.5417C35.407 21.6256 35.359 21.7044 35.3017 21.7763C34.6441 22.3147 33.9147 22.7589 33.1347 23.0963C28.468 25.139 23.4301 26.1968 18.336 26.2038H17.6027C12.7558 26.0974 7.97698 25.0404 3.53737 23.0927ZM21.7754 25.2615V17.1068L18.336 19.1803L14.8949 17.1068V25.2615C16.037 25.3945 17.1863 25.4557 18.336 25.4448C19.4852 25.4556 20.6339 25.3944 21.7754 25.2615ZM2.0762 21.0192V21.2025C2.12387 21.2483 2.1697 21.3437 2.21737 21.3858C2.7259 21.7805 3.27984 22.1128 3.86737 22.3758C4.76204 22.7535 5.65854 23.1312 6.5532 23.4612L6.73654 11.8195C5.06517 14.0846 3.67452 16.5439 2.59504 19.1437C2.3352 19.7415 2.16055 20.3728 2.0762 21.0192ZM24.8389 15.2698V24.8362C25.5942 24.695 26.3055 24.5538 27.0077 24.365C26.96 20.218 26.8665 14.0433 26.8665 14.0433L24.8389 15.2698ZM23.0019 4.71167C22.5061 4.30471 21.987 3.92702 21.4472 3.5805C20.51 2.88275 19.4567 2.3564 18.336 2.02583C17.2134 2.3558 16.1582 2.88217 15.2194 3.5805C14.6796 3.92702 14.1605 4.30471 13.6647 4.71167L18.336 7.49283L23.0019 4.71167ZM18.3269 11.121L14.8857 8.99983V13.5263L18.3269 15.5998L21.7699 13.5263V8.99983L18.3269 11.121ZM9.66437 24.365C10.372 24.5483 11.0779 24.695 11.8314 24.8362V15.2698L9.8147 14.0433C9.8147 14.0433 9.71937 20.218 9.66437 24.365ZM32.8047 22.385C33.3922 22.122 33.9462 21.7896 34.4547 21.395C34.5024 21.3492 34.5482 21.2538 34.5959 21.2117V21.0283C34.5124 20.3788 34.3377 19.7444 34.077 19.1437C32.9945 16.55 31.602 14.0969 29.93 11.8378L30.0712 23.4795C31.0135 23.1403 31.9027 22.7627 32.8047 22.385ZM24.8389 6.2205V11.6875L28.236 9.66167C27.1769 8.44456 26.0422 7.29524 24.8389 6.2205ZM11.8314 6.2205C10.6286 7.2953 9.49461 8.44462 8.43604 9.66167L11.8295 11.6875L11.8314 6.2205ZM18.336 18.2857L22.5307 15.741V25.685L22.6279 25.6758C23.1137 25.6263 23.5995 25.5383 24.0945 25.4485V14.7987L27.6292 12.6775L27.8125 24.6492C28.3314 24.508 28.8484 24.365 29.3214 24.2238L29.138 9.99167L24.2027 12.936L24.0854 13.0075V4.94083L18.336 8.38933L12.5867 4.94817V13.0148L7.5432 9.99167L7.35987 24.2238C7.83104 24.365 8.34987 24.508 8.8687 24.6492L9.05204 12.6775L12.5867 14.7987V25.4485C13.1037 25.542 13.6189 25.6318 14.1359 25.6832V15.741L18.336 18.2857ZM14.1414 7.68167L18.336 10.1805L22.5307 7.68167V13.9498L18.336 16.4945L14.1414 13.9498V7.68167Z" fill="#0F0F0F"/>
</svg>