<svg xmlns="http://www.w3.org/2000/svg" width="44" height="44" viewBox="0 0 44 44" fill="none">
  <path d="M21.9982 23.606C21.9322 23.606 21.8057 23.5217 21.5912 23.1294C20.6948 21.457 19.462 19.9882 17.9703 18.8155C16.7999 17.8991 15.5016 17.1592 14.1167 16.6192L13.4842 16.3699C11.6288 15.6365 9.70567 14.8794 7.92 13.8454C7.72206 13.7333 7.52647 13.6172 7.33333 13.497C7.689 12.8737 8.10333 12.2779 8.56167 11.7334C9.22586 10.9374 9.99923 10.2393 10.8588 9.65986C11.7796 9.04117 12.7767 8.54448 13.8252 8.1822C16.0582 7.38653 18.733 6.99603 21.9982 6.99236C25.267 6.99603 27.94 7.38653 30.173 8.18403C31.222 8.54559 32.2197 9.04167 33.1412 9.65986C34.0006 10.2388 34.774 10.9362 35.4383 11.7315C35.8967 12.2779 36.3092 12.8737 36.6667 13.497C36.476 13.6156 36.2804 13.7329 36.08 13.849C34.2907 14.883 32.3712 15.6402 30.5122 16.3717L29.8797 16.621C28.496 17.1613 27.1989 17.9013 26.0297 18.8174C24.5378 19.9906 23.305 21.46 22.4088 23.133C22.1943 23.5235 22.066 23.606 21.9982 23.606ZM21.9982 36.5732C19.1675 36.5695 16.8685 36.3367 14.9765 35.8637C13.1193 35.4017 11.5757 34.6904 10.2538 33.6857C9.2408 32.9073 8.37632 31.9528 7.70183 30.8679C7.07007 29.8555 6.57099 28.7661 6.21683 27.6265C5.66436 25.8555 5.37587 24.0128 5.36067 22.1577C5.36067 20.922 5.44683 19.7505 5.60817 18.6725C7.63583 19.7652 9.55533 20.3134 11.2548 20.7992L11.649 20.9092C14.014 21.5894 15.8913 22.4804 17.3965 23.6372C18.2673 24.3119 19.0282 25.091 19.6515 25.9545C20.328 26.8859 20.867 27.9492 21.2593 29.117C21.4353 29.6469 21.626 29.975 21.9982 29.975C22.3777 29.975 22.5628 29.645 22.7407 29.117C23.4379 26.939 24.7861 25.0271 26.6035 23.639C28.1068 22.4804 29.986 21.5894 32.351 20.9092L32.747 20.7992C34.4447 20.3134 36.3642 19.7652 38.39 18.6725C38.555 19.7524 38.6393 20.922 38.6393 22.1559C38.6393 22.9955 38.555 25.2065 37.7868 27.6265C37.4333 28.766 36.9348 29.8554 36.3037 30.8679C35.627 31.9534 34.76 32.908 33.7443 33.6857C32.4188 34.6904 30.8752 35.4017 29.0253 35.8637C27.1278 36.3367 24.8307 36.5695 21.9982 36.5732ZM39.7668 9.8872C36.267 6.12886 30.6185 4.40553 21.9982 4.39636C13.3815 4.40553 7.733 6.12703 4.23317 9.88536C1.63167 12.6739 0 16.533 0 21.769C0 24.6639 0.715 32.0357 6.534 35.8417C10.0173 38.1187 14.5163 39.5927 21.9982 39.6037C29.4837 39.5927 33.9808 38.1187 37.466 35.8417C43.2832 32.0357 44 24.662 44 21.769C44 16.5477 42.3555 12.661 39.765 9.88353L39.7668 9.8872Z" fill="#0F0F0F"/>
</svg>