<svg xmlns="http://www.w3.org/2000/svg" width="44" height="44" viewBox="0 0 44 44" fill="none">
    <path d="M24.1871 26.9079C23.7967 26.6967 23.3578 26.5912 22.9141 26.6018C22.4703 26.6125 22.037 26.7388 21.6571 26.9684C21.4882 27.0952 21.3538 27.2623 21.266 27.4544C21.1783 27.6466 21.14 27.8576 21.1548 28.0684H19.8605V26.1104H17.6806V29.337L21.5618 29.3737V28.9337C21.8347 29.1831 22.1766 29.3441 22.5426 29.3957C22.6778 29.4176 22.8145 29.4286 22.9515 29.4287C23.3765 29.4219 23.7971 29.3412 24.1945 29.1904V29.3737H26.1213V26.73H24.1871V26.9079ZM23.7343 28.5854C23.664 28.5924 23.593 28.5854 23.5254 28.5647C23.4579 28.544 23.3951 28.51 23.3408 28.4648C23.2866 28.4195 23.2418 28.3639 23.2093 28.3012C23.1768 28.2385 23.157 28.1699 23.1513 28.0995C23.1457 28.0475 23.1514 27.9949 23.1678 27.9453C23.1843 27.8956 23.2111 27.8501 23.2466 27.8117C23.3103 27.7477 23.3864 27.6974 23.4703 27.6639C23.5542 27.6305 23.644 27.6147 23.7343 27.6174C23.8046 27.6103 23.8756 27.6173 23.9432 27.638C24.0107 27.6587 24.0735 27.6927 24.1278 27.7379C24.182 27.7832 24.2267 27.8388 24.2593 27.9015C24.2918 27.9642 24.3116 28.0328 24.3173 28.1032C24.2986 28.2402 24.229 28.3652 24.1223 28.4532C24.0156 28.5412 23.8797 28.5857 23.7416 28.578L23.7343 28.5854ZM33.4821 27.0069C32.9612 26.7292 32.3783 26.5886 31.7881 26.598C31.3313 26.5953 30.8781 26.678 30.4516 26.8419C30.1409 26.9524 29.862 27.1375 29.6395 27.3809V26.598H29.6046C29.1093 26.5743 28.6195 26.7105 28.2076 26.9867V26.7282H26.279V29.3719H28.2076V28.435C28.347 28.1949 28.71 28.1014 29.3773 28.1325C29.4158 28.3115 29.4922 28.4802 29.6013 28.6272C29.7104 28.7743 29.8497 28.8963 30.0098 28.985C30.4402 29.24 30.9271 29.3842 31.427 29.4049H31.757C32.2908 29.4165 32.8208 29.3114 33.3098 29.0969C33.6047 28.9768 33.8569 28.7712 34.034 28.5065L34.0615 28.4552H33.341C33.0564 28.605 32.7356 28.6722 32.4149 28.6492C32.0941 28.6262 31.7862 28.5139 31.526 28.325H34.1348V28.3012C34.1746 28.2044 34.1976 28.1014 34.2026 27.9969C34.1814 27.7827 34.1035 27.578 33.9768 27.404C33.8502 27.23 33.6794 27.0929 33.4821 27.0069ZM31.4985 27.6412C31.5205 27.4065 31.768 27.3149 31.9806 27.3094C32.2391 27.3094 32.5306 27.4139 32.5618 27.6394L31.4985 27.6412ZM39.0756 27.0655C38.6775 26.7853 38.2088 26.6223 37.7227 26.5951C37.2366 26.5678 36.7526 26.6775 36.3256 26.9115V26.6989H34.3933V29.3737H36.289V27.9217C36.3738 27.8495 36.472 27.7949 36.5781 27.7609C36.6841 27.7269 36.7958 27.7143 36.9068 27.7237C36.9915 27.7236 37.0754 27.7408 37.1532 27.7742C37.2311 27.8076 37.3013 27.8566 37.3596 27.918V29.3737H39.2865V27.775C39.3065 27.6487 39.2981 27.5194 39.262 27.3967C39.2258 27.274 39.1628 27.1608 39.0775 27.0655M13.5795 27.4194C13.4558 27.5943 13.391 27.8042 13.3946 28.0185C13.3983 28.2328 13.4701 28.4403 13.5996 28.611C13.9314 29.0151 14.4048 29.2773 14.9233 29.3444C15.1678 29.3921 15.4166 29.4149 15.6658 29.4122C16.2639 29.4031 16.8582 29.3149 17.4331 29.15H17.4588V28.2664L17.4166 28.2755C16.1718 28.5414 15.4 28.3635 15.246 28.1509C15.2321 28.132 15.2246 28.1092 15.2246 28.0858C15.2246 28.0624 15.2321 28.0396 15.246 28.0207C15.3761 27.8044 16.115 27.654 17.4295 27.8227H17.468V26.8437H17.4423C15.2533 26.29 14.014 26.7814 13.5795 27.4194ZM9.9678 27.0674V26.1104H7.0803L4.44946 29.3407H6.81996L8.04096 28.0574V29.3407H9.94763L11.1668 28.0574V29.3407H13.2238V26.1104H10.8955L9.9678 27.0674ZM11.3245 19.7395L12.1898 19.514C13.9 19.0742 15.6317 18.723 17.3781 18.4617C18.5619 18.2868 19.7565 18.1949 20.9531 18.1867C24.9333 18.1959 26.9298 19.5324 26.2423 22.22C25.958 23.1685 25.5248 24.0658 24.959 24.8784C24.7885 25.1314 24.5923 25.3899 24.409 25.6575L24.4401 25.6374L24.2568 25.8794L24.3925 25.795L24.3301 25.8794C27.2508 24.1213 30.0223 22.1267 32.6168 19.9155C42.9018 10.8827 29.6413 10.4849 13.5886 18.5277C12.8186 18.9139 12.0407 19.3203 11.2548 19.7469L11.3978 19.7102L11.3245 19.7395Z" fill="#0F0F0F"/>
</svg>