<svg xmlns="http://www.w3.org/2000/svg" width="35" height="35" viewBox="0 0 35 35" fill="none">
  <path d="M17.1747 0C13.7778 0 10.4573 1.00728 7.63294 2.89445C4.80858 4.78163 2.60726 7.46395 1.30735 10.6022C0.00744175 13.7405 -0.332674 17.1937 0.330014 20.5253C0.992702 23.8568 2.62843 26.9171 5.03035 29.319C7.43227 31.7209 10.4925 33.3566 13.8241 34.0193C17.1556 34.682 20.6089 34.3419 23.7471 33.042C26.8854 31.7421 29.5677 29.5408 31.4549 26.7164C33.3421 23.892 34.3493 20.5715 34.3493 17.1747C34.3435 12.6215 32.5322 8.25639 29.3126 5.03677C26.093 1.81716 21.7279 0.0058213 17.1747 0ZM3.89034 9.54617C5.17979 7.32226 7.00484 5.45605 9.19944 4.11732C11.394 2.77859 13.8885 2.00984 16.456 1.881L14.4027 15.488L3.54751 24.2605C2.36837 21.9753 1.78171 19.4306 1.84128 16.8598C1.90086 14.289 2.60478 11.7743 3.88851 9.54617H3.89034ZM30.4425 9.5205C31.7232 11.735 32.4321 14.2337 32.505 16.7909C32.578 19.348 32.0128 21.883 30.8605 24.167L19.8862 15.6732L17.9282 1.88467C20.4836 2.02043 22.9651 2.78934 25.1496 4.12224C27.3341 5.45513 29.1529 7.31018 30.4425 9.5205ZM30.1363 25.4522C28.7517 27.6211 26.8457 29.4086 24.5923 30.6512C22.339 31.8938 19.8102 32.5519 17.237 32.5655H17.1582C14.5958 32.5586 12.0758 31.9117 9.82692 30.6836C7.57806 29.4554 5.67166 27.6849 4.28084 25.5328L17.1747 20.196L30.1363 25.4522Z" fill="#0F0F0F"/>
</svg>
