<svg xmlns="http://www.w3.org/2000/svg" width="44" height="44" viewBox="0 0 44 44" fill="none">
    <path d="M40.3333 17.6752H28.7833C28.0569 16.5365 27.0553 15.5993 25.871 14.95C24.6867 14.3007 23.3579 13.9604 22.0073 13.9604C20.6567 13.9604 19.3279 14.3007 18.1436 14.95C16.9593 15.5993 15.9577 16.5365 15.2313 17.6752H3.66663L4.81796 18.8265H14.6245C14.4383 19.2594 14.2905 19.7079 14.1826 20.1667H6.15813L7.29479 21.3033H13.9975C13.9742 21.5348 13.962 21.7673 13.9608 22C13.959 22.2328 13.9736 22.429 13.9938 22.6435H8.63496L9.77163 23.7802H14.1716C14.2735 24.2384 14.4152 24.6868 14.5951 25.1203H11.1118L12.2631 26.2717H15.1965C15.9176 27.4245 16.9201 28.375 18.1095 29.0339C19.299 29.6928 20.6365 30.0385 21.9963 30.0385C23.3561 30.0385 24.6936 29.6928 25.883 29.0339C27.0725 28.375 28.0749 27.4245 28.7961 26.2717H31.7295L32.8808 25.1203H29.3975C29.5773 24.6868 29.7191 24.2384 29.821 23.7802H34.221L35.3576 22.6435H30.0061C30.0257 22.4284 30.0367 22.2139 30.0391 22C30.0379 21.7678 30.0257 21.5355 30.0025 21.3033H36.7051L37.8418 20.1667H29.8173C29.7094 19.7079 29.5616 19.2594 29.3755 18.8265H39.182L40.3333 17.6752ZM22 28.9502C21.0872 28.9504 20.1833 28.7708 19.34 28.4216C18.4966 28.0724 17.7303 27.5605 17.0849 26.915C16.4395 26.2696 15.9275 25.5033 15.5784 24.66C15.2292 23.8166 15.0496 22.9128 15.0498 22C15.0498 21.0874 15.2296 20.1837 15.5789 19.3406C15.9282 18.4974 16.4402 17.7314 17.0856 17.0861C17.731 16.4409 18.4972 15.9291 19.3404 15.58C20.1836 15.231 21.0873 15.0514 22 15.0517C22.922 15.0367 23.8379 15.2054 24.6941 15.5479C25.5504 15.8904 26.3299 16.3999 26.9873 17.0467C27.6446 17.6934 28.1667 18.4646 28.5231 19.3151C28.8795 20.1657 29.063 21.0787 29.063 22.0009C29.063 22.9231 28.8795 23.8361 28.5231 24.6867C28.1667 25.5372 27.6446 26.3084 26.9873 26.9552C26.3299 27.6019 25.5504 28.1114 24.6941 28.4539C23.8379 28.7965 22.922 28.9651 22 28.9502ZM25.135 22.605L23.496 20.1997H22.7095V23.8003H23.4593V21.4518L25.0745 23.8003H25.8866V20.1997H25.135V22.605ZM26.719 20.1997H27.5275V23.8022H26.719V20.1997ZM18.4085 22.6563L17.6825 20.1997H16.4725V23.8003H17.2223V20.966L18.0161 23.8003H18.7935L19.5891 20.966V23.8003H20.3408V20.1997H19.1271L18.4085 22.6563ZM21.1236 20.1997H21.9321V23.8022H21.1236V20.1997Z" fill="#0F0F0F"/>
</svg>