<svg xmlns="http://www.w3.org/2000/svg" width="44" height="44" viewBox="0 0 44 44" fill="none">
  <path d="M40.1885 19.2097C40.1372 18.5497 40.0492 18.4507 39.6679 18.3223C39.0445 18.1337 38.4077 17.9927 37.763 17.9007C36.747 14.5384 34.665 11.5978 31.8311 9.52258C28.9972 7.44738 25.5653 6.35016 22.0532 6.3965C18.5596 6.35023 15.1448 7.43548 12.3189 9.49013C9.49305 11.5448 7.40775 14.4586 6.37453 17.7962C5.78969 17.8988 5.23053 18.0125 4.67869 18.139C4.12686 18.2655 3.99486 18.4873 3.91786 18.8357C3.90215 18.8997 3.88991 18.9646 3.88119 19.03C3.65425 20.436 3.60436 21.8649 3.73269 23.2833C3.76447 23.7111 3.80297 24.1389 3.84819 24.5667C3.90503 25.1167 3.84819 25.8225 4.43303 25.9197C5.06736 26.0236 5.73042 26.1189 6.42219 26.2057H6.38003C7.41428 29.541 9.49932 32.4525 12.324 34.5057C15.1486 36.5588 18.5615 37.6435 22.0532 37.598C25.5314 37.6417 28.9314 36.5651 31.7506 34.5274C34.5697 32.4897 36.6585 29.599 37.708 26.2827H37.686C38.2875 26.217 38.8872 26.1357 39.4845 26.0388C39.6504 26.0233 39.8057 25.9503 39.9235 25.8325C40.0414 25.7147 40.1143 25.5594 40.1299 25.3935C40.2142 24.5612 40.2674 23.8718 40.2985 23.2723C40.3621 21.9173 40.3253 20.5593 40.1885 19.2097ZM22.0532 10.2667C24.4256 10.2321 26.7569 10.8884 28.7628 12.1557C30.7687 13.423 32.3626 15.2465 33.3502 17.4038L33.3997 17.4277C29.5821 17.152 25.756 17.0107 21.9285 17.0042C16.9639 17.0042 13.4952 17.0867 10.8204 17.2773C11.8293 15.1593 13.4228 13.3739 15.4131 12.1318C17.4033 10.8896 19.7073 10.2425 22.0532 10.2667ZM30.8532 24.2H29.8485C29.823 24.2019 29.7975 24.1961 29.7752 24.1833C29.753 24.1706 29.7351 24.1515 29.7239 24.1285C29.7239 24.1102 29.5992 23.8058 29.4195 23.3952H27.049C26.8657 23.8242 26.7264 24.1285 26.7264 24.1285C26.7151 24.1515 26.6972 24.1706 26.675 24.1833C26.6528 24.1961 26.6272 24.2019 26.6017 24.2H25.6337C25.4889 24.2 25.4357 24.2 25.5255 24.0167C26.0095 22.9772 27.0857 20.5572 27.0857 20.5572C27.3002 20.108 27.192 20.1447 27.819 20.1447C27.9497 20.1285 28.0815 20.1223 28.2132 20.1263C28.3449 20.1182 28.477 20.1244 28.6074 20.1447C29.271 20.163 29.1574 20.0915 29.4672 20.7717C29.6285 21.1475 30.7945 23.6573 30.9742 24.0882C31.0292 24.2 30.9925 24.1872 30.8495 24.1872L30.8532 24.2ZM23.8077 22.7113C23.4667 22.693 22.4639 22.6032 21.7819 22.528C20.9037 22.4382 20.7075 22.0623 20.6525 21.7397C20.6372 21.615 20.6311 21.4894 20.6342 21.3638C20.6332 21.2322 20.6393 21.1006 20.6525 20.9697C20.779 20.3958 21.2025 20.1263 21.9615 20.1263H24.8839C24.9902 20.1263 25.0269 20.1447 25.0269 20.2345V20.8982C25.0269 20.9862 24.9902 21.0228 24.8839 21.0045H22.011C21.8864 21.0045 21.8277 21.0595 21.8149 21.1878V21.3492C21.8149 21.439 21.8497 21.5105 21.9982 21.5325C22.3374 21.5673 23.3952 21.6572 23.7894 21.6938C24.508 21.7653 25.0269 21.89 25.1699 22.572C25.1699 22.6252 25.1882 22.8048 25.1882 23.0028C25.1935 23.1467 25.1818 23.2907 25.1534 23.4318C25.0269 24.0772 24.5429 24.2037 23.7894 24.2037H20.7754C20.6672 24.2037 20.6489 24.1853 20.6489 24.0772V23.4318C20.6489 23.3255 20.6672 23.3072 20.7754 23.3072H23.8224C23.947 23.3072 23.9837 23.2705 24.0057 23.1807V22.913C24.0026 22.8593 23.9807 22.8083 23.9439 22.7691C23.907 22.7299 23.8575 22.7049 23.804 22.6985L23.8077 22.7113ZM18.6267 22.7113C18.2875 22.693 17.2829 22.6032 16.61 22.528C15.7319 22.4382 15.51 22.0623 15.4807 21.7397C15.4688 21.6148 15.4633 21.4893 15.4642 21.3638C15.4626 21.2322 15.4681 21.1007 15.4807 20.9697C15.6072 20.3958 16.0307 20.1263 16.7897 20.1263H19.712C19.8202 20.1263 19.855 20.1447 19.855 20.2345V20.8982C19.855 20.9862 19.8202 21.0228 19.712 21.0045H16.83C16.7054 21.0045 16.6467 21.0595 16.6339 21.1878V21.3492C16.6339 21.439 16.687 21.5105 16.8172 21.5325C17.1582 21.5673 18.2142 21.6572 18.6102 21.6938C19.327 21.7653 19.8459 21.89 19.9889 22.572C19.9889 22.6252 20.0072 22.8048 20.0072 23.0028C20.0125 23.1467 20.0008 23.2907 19.9724 23.4318C19.8459 24.0772 19.3619 24.2037 18.6102 24.2037H15.5944C15.4862 24.2037 15.4679 24.1853 15.4679 24.0772V23.4318C15.4679 23.3255 15.4862 23.3072 15.5944 23.3072H18.6414C18.7679 23.3072 18.8027 23.2705 18.8247 23.1807V22.913C18.8027 22.825 18.7844 22.7168 18.623 22.6985L18.6267 22.7113ZM14.6117 20.2015V24.0387C14.6117 24.1285 14.5934 24.1633 14.487 24.1633H13.5502C13.442 24.1633 13.4255 24.145 13.4255 24.0387V20.1887C13.4255 20.1172 13.442 20.0823 13.5135 20.0823H14.4999C14.5897 20.0823 14.608 20.1172 14.608 20.1887L14.6117 20.2015ZM10.5032 23.8333C10.054 23.1348 8.71019 21.0723 8.71019 21.0723V24.0662C8.71019 24.1743 8.69186 24.1927 8.58553 24.1927H7.77703C7.67069 24.1927 7.65236 24.1743 7.65236 24.0662V20.2437C7.65236 20.1538 7.67069 20.1172 7.77703 20.1172H8.71019C9.40869 20.1172 9.49853 20.0988 9.74969 20.4582C9.94769 20.7808 11.583 23.2907 11.583 23.2907V20.2437C11.583 20.1538 11.6014 20.1172 11.7095 20.1172H12.5162C12.6225 20.1172 12.6409 20.1538 12.6409 20.2437V24.0607C12.6409 24.1688 12.6225 24.1872 12.5162 24.1872H11.4162C10.7727 24.1872 10.7177 24.1872 10.5032 23.8333ZM22.0532 33.7425C19.6874 33.7689 17.3643 33.1115 15.3632 31.8492C13.362 30.587 11.768 28.7737 10.7727 26.6273L10.7397 26.6017C14.1699 26.8235 18.0419 26.8968 22.1724 26.906C25.8897 26.9224 29.6068 26.8332 33.319 26.6383V26.6622C32.3165 28.7966 30.7216 30.598 28.7242 31.8517C26.7269 33.1053 24.4113 33.7585 22.0532 33.7333V33.7425ZM36.5677 24.0662C36.5677 24.1743 36.5494 24.1927 36.443 24.1927H35.343C34.6977 24.1927 34.6445 24.1927 34.4264 23.826C33.9772 23.1275 32.6334 21.065 32.6334 21.065V24.0588C32.6334 24.167 32.615 24.1853 32.5069 24.1853H31.7167C31.6104 24.1853 31.592 24.167 31.592 24.0588V20.2437C31.592 20.1538 31.6104 20.1172 31.7167 20.1172H32.6499C33.3484 20.1172 33.4382 20.0988 33.6894 20.4582C33.9039 20.7808 35.5227 23.2907 35.5227 23.2907V20.2437C35.5227 20.1538 35.541 20.1172 35.6492 20.1172H36.4559C36.5622 20.1172 36.5805 20.1538 36.5805 20.2437L36.5677 24.0662ZM28.358 21.032C28.3397 21.0137 28.2865 21.0137 28.2499 21.0137C28.2132 21.0137 28.1435 21.0137 28.1252 21.032C28.1039 21.0294 28.0824 21.033 28.0632 21.0425C28.044 21.0519 28.0279 21.0667 28.017 21.0852C28.017 21.1035 27.7127 21.802 27.4084 22.5188H29.04C28.7889 21.9102 28.5194 21.2997 28.4479 21.1035C28.4433 21.0831 28.4319 21.0649 28.4155 21.0519C28.3992 21.0389 28.3789 21.0319 28.358 21.032Z" fill="#0F0F0F"/>
</svg>
