<svg xmlns="http://www.w3.org/2000/svg" width="44" height="44" viewBox="0 0 44 44" fill="none">
  <path d="M21.9486 0C20.699 0.00651838 19.4502 0.0621725 18.205 0.166833C15.5806 0.385061 12.9769 0.804911 10.417 1.42267C8.56232 1.89377 6.74039 2.48536 4.96278 3.19367L4.85278 3.234C4.85278 3.234 5.06912 16.5128 5.23778 23.0908C5.28328 25.0273 5.63537 26.9443 6.28095 28.7705C7.03202 30.8469 8.03043 32.8252 9.25462 34.6628C10.5373 36.5593 12.0886 38.2594 13.86 39.71C14.5517 40.2919 15.2818 40.8266 16.0453 41.3105C17.2409 42.0346 18.4899 42.6665 19.7816 43.2007C20.2088 43.3803 20.5809 43.5527 20.9183 43.6682C21.2717 43.8009 21.6329 43.9118 22 44C22.367 43.9112 22.7283 43.7997 23.0816 43.6663C23.4153 43.5508 23.7911 43.3803 24.2183 43.1988C25.5093 42.6646 26.7578 42.0327 27.9528 41.3087C28.7175 40.8249 29.4489 40.2902 30.1418 39.7082C31.9123 38.258 33.463 36.5585 34.7453 34.6628C35.9695 32.8252 36.9679 30.8469 37.719 28.7705C38.3652 26.9444 38.7179 25.0274 38.764 23.0908C38.9308 16.5128 39.149 3.24133 39.149 3.24133L39.0445 3.19367C37.2662 2.48529 35.4437 1.8937 33.5884 1.42267C31.0285 0.805529 28.4248 0.386291 25.8004 0.168667C24.5553 0.0633939 23.3064 0.00712818 22.0568 0L21.9486 0ZM21.9486 0.661833H22.0531C23.298 0.6765 24.4144 0.716833 25.6519 0.826833C28.1755 1.03699 30.6789 1.44339 33.1393 2.04233C34.9241 2.4972 36.6764 3.0711 38.3845 3.76017L38.489 3.806L38.4193 7.975L38.3845 7.95667C36.6761 7.2702 34.9245 6.69636 33.1411 6.23883C30.68 5.64041 28.1761 5.23463 25.6519 5.02517C24.4144 4.91517 23.3034 4.84183 22.0586 4.82717H21.9523C20.7074 4.84367 19.5873 4.91517 18.3498 5.02517C15.8261 5.23653 13.3228 5.64415 10.8625 6.24433C9.07838 6.70238 7.32624 7.27683 5.61728 7.964L5.58062 7.98233L5.51095 3.8005L5.61728 3.76017C7.32476 3.07118 9.07646 2.49728 10.8606 2.04233C13.3222 1.44258 15.8268 1.03557 18.3516 0.825C19.5891 0.715 20.7038 0.678333 21.9486 0.661833ZM22.4766 1.05783C21.9254 1.04809 21.3739 1.05299 20.8229 1.0725C20.6011 1.08167 20.2949 1.27233 20.2913 1.49417L20.2784 2.68217C20.2748 2.92417 20.5938 3.11483 20.8376 3.12033C21.6846 3.13867 22.4326 3.124 23.254 3.17533C23.3144 3.18083 23.3676 3.2175 23.3676 3.278L23.3621 3.51633C23.3632 3.52752 23.3619 3.53882 23.3581 3.54943C23.3544 3.56004 23.3484 3.5697 23.3405 3.57774C23.3327 3.58577 23.3231 3.59199 23.3126 3.59595C23.3021 3.59992 23.2908 3.60152 23.2796 3.60067C22.3244 3.60067 21.3253 3.55483 20.3591 3.63183C20.3078 3.6355 20.3096 3.62267 20.3078 3.674L20.2638 4.378L20.2601 4.433C21.4092 4.3653 22.5613 4.3653 23.7104 4.433C23.8445 4.42892 23.9731 4.37903 24.0749 4.29162C24.1766 4.20422 24.2454 4.08459 24.2696 3.95267L24.2806 2.80317C24.2806 2.56667 23.9909 2.3925 23.8021 2.3815C22.9918 2.33017 22.0696 2.35767 21.2464 2.33567C21.235 2.33521 21.2238 2.33245 21.2135 2.32754C21.2032 2.32263 21.194 2.31568 21.1865 2.30711C21.1789 2.29854 21.1732 2.28853 21.1697 2.27768C21.1661 2.26683 21.1648 2.25537 21.1658 2.244L21.1823 1.97817C21.1823 1.92683 21.2171 1.91217 21.2684 1.91033C22.0824 1.881 23.298 1.9195 24.1321 1.94517C24.1629 1.94073 24.191 1.92527 24.2112 1.90167C24.2315 1.87806 24.2424 1.84792 24.2421 1.81683V1.23567C24.2421 1.2045 24.1834 1.11283 24.1266 1.111C23.5769 1.08639 23.0268 1.06744 22.4766 1.05783ZM19.03 1.17517C18.2544 1.18983 16.5714 1.40433 15.6163 1.5235L15.6108 4.84V4.88217L16.4724 4.77217C16.4763 4.77248 16.4801 4.77159 16.4834 4.76962C16.4867 4.76764 16.4893 4.76469 16.4908 4.76117C16.4933 4.75891 16.4951 4.75601 16.4961 4.75277C16.4971 4.74954 16.4971 4.7461 16.4963 4.74283V3.784L18.2324 3.597C18.3846 3.5695 18.5625 3.68133 18.7018 3.90683C18.8123 4.09793 18.8834 4.30927 18.9108 4.52833L19.7669 4.46417C19.7853 4.46417 19.8219 4.46417 19.8183 4.44583C19.7907 3.98418 19.5897 3.55001 19.2555 3.23033C19.3667 3.18415 19.4611 3.10483 19.5257 3.00314C19.5903 2.90146 19.6221 2.78235 19.6166 2.662C19.6275 2.31681 19.6141 1.97129 19.5763 1.628C19.547 1.50263 19.4773 1.39037 19.3779 1.30854C19.2785 1.2267 19.1549 1.17984 19.0263 1.17517H19.03ZM25.6116 1.21C25.4333 1.20319 25.2584 1.26102 25.1193 1.37286C24.9802 1.48469 24.8861 1.643 24.8545 1.81867L24.8361 4.0095C24.8414 4.1338 24.8872 4.25295 24.9667 4.34866C25.0462 4.44437 25.1549 4.51135 25.2761 4.53933C26.3944 4.64383 27.4944 4.74467 28.7411 4.9335C28.7613 4.9335 28.7998 4.92067 28.7998 4.90233V4.13967C28.7998 4.12317 28.7631 4.08833 28.7503 4.08467C27.9179 3.98017 26.8198 3.8335 25.8371 3.73083C25.8085 3.72276 25.7829 3.70616 25.764 3.68324C25.745 3.66031 25.7334 3.63215 25.7308 3.6025V2.11383C25.7308 2.0515 25.8225 2.0185 25.8848 2.02217C26.8546 2.10283 27.8208 2.27883 28.7888 2.38333C28.8144 2.387 28.8548 2.3705 28.8566 2.34483L28.875 1.6445C28.873 1.63033 28.8669 1.61705 28.8574 1.6063C28.848 1.59555 28.8356 1.5878 28.8218 1.584C27.7555 1.43318 26.684 1.30847 25.6116 1.21ZM29.2416 1.6445C29.2196 1.6445 29.2013 1.67017 29.2013 1.69033C29.1903 2.19267 29.1188 4.3615 29.1041 4.939V4.9885C29.3883 5.038 29.7018 5.0765 29.9346 5.12417C29.9603 5.12783 29.9988 5.1095 29.9988 5.08383C29.9951 4.70433 29.9988 4.2625 29.9914 3.91783C29.9914 3.894 30.0024 3.89217 30.0281 3.89583C30.7039 4.01806 31.3775 4.15253 32.0485 4.29917C32.0631 4.29917 32.1438 4.312 32.1438 4.35417C32.1383 4.752 32.131 5.0875 32.12 5.48533C32.1191 5.50128 32.1235 5.51707 32.1324 5.53031C32.1413 5.54354 32.1543 5.5535 32.1695 5.55867C32.4335 5.61978 32.6901 5.68089 32.9394 5.742C33.0073 5.75667 33.0183 5.74383 33.0201 5.72C33.0604 4.89317 33.0751 3.56767 33.0861 2.44933C33.0861 2.43467 33.0806 2.41267 33.0678 2.409C32.7873 2.34483 32.5233 2.277 32.2373 2.2165C32.2116 2.211 32.197 2.25317 32.1951 2.28067C32.1676 2.6895 32.1786 3.069 32.1474 3.476C32.1474 3.49067 32.1474 3.498 32.1309 3.49433C31.4526 3.355 30.7284 3.20467 30.0556 3.07817C30.0373 3.0745 30.0446 3.0415 30.0464 3.02133L30.052 1.82417C30.0521 1.81077 30.0473 1.79778 30.0385 1.78765C30.0297 1.77753 30.0176 1.77095 30.0043 1.76917L29.2416 1.6445ZM14.5456 1.68667H14.4778C13.4823 1.84433 12.4813 2.05517 11.4711 2.27333C11.3091 2.32027 11.1632 2.41098 11.0494 2.5355C10.9429 2.63343 10.8763 2.76728 10.8625 2.91133L10.8698 4.961C10.8769 5.14098 10.9455 5.31309 11.0641 5.44867C11.1044 5.51112 11.1598 5.56237 11.2252 5.59764C11.2906 5.6329 11.3638 5.65103 11.4381 5.65033C12.4317 5.43167 13.4299 5.23423 14.432 5.05817C14.6243 5.01236 14.7966 4.9056 14.9233 4.75383C15.0316 4.63925 15.0954 4.48967 15.1029 4.33217L15.0993 2.2C15.0928 2.12878 15.0715 2.05971 15.0368 1.9972C15.0021 1.93469 14.9547 1.88012 14.8976 1.837C14.802 1.7481 14.6779 1.69611 14.5475 1.69033L14.5456 1.68667ZM18.5001 2.04783C18.5362 2.04578 18.5717 2.05783 18.599 2.08143C18.6264 2.10503 18.6435 2.13834 18.6468 2.17433L18.6523 2.52083C18.6517 2.59353 18.6257 2.66375 18.5789 2.71932C18.532 2.7749 18.4672 2.81234 18.3956 2.82517L16.4486 3.01583L16.4321 3.00117V2.255L16.4486 2.24767L18.4854 2.04967L18.5001 2.04783ZM13.8801 2.5795C13.93 2.58304 13.9787 2.59677 14.0231 2.61983C14.0551 2.64083 14.081 2.66979 14.0984 2.70387C14.1158 2.73795 14.1239 2.77596 14.1221 2.81417L14.1056 4.10483C14.1065 4.14168 14.0989 4.17824 14.0833 4.21165C14.0677 4.24505 14.0446 4.27438 14.0158 4.29733C13.9496 4.34165 13.8745 4.37105 13.7958 4.3835C13.1875 4.50468 12.5782 4.62079 11.9679 4.73183C11.9405 4.73955 11.9116 4.74075 11.8836 4.73534C11.8556 4.72993 11.8292 4.71805 11.8066 4.70067C11.7853 4.67557 11.7694 4.64632 11.7599 4.61476C11.7504 4.58321 11.7476 4.55003 11.7516 4.51733V3.18633C11.7521 3.11979 11.7784 3.05603 11.8249 3.0085C11.8863 2.95166 11.9627 2.91351 12.045 2.8985C12.5766 2.7995 13.2733 2.662 13.8196 2.58317L13.8801 2.5795ZM33.6985 2.5795L33.6966 2.58133C33.6819 2.58133 33.6819 2.60333 33.6819 2.61617C33.6563 3.72717 33.6269 4.75567 33.6178 5.86667C33.6178 5.8905 33.6288 5.92167 33.6508 5.92717C34.9908 6.28662 36.3113 6.71496 37.6071 7.2105C37.6658 7.23067 37.664 7.18667 37.664 7.17017C37.6695 6.91717 37.6823 6.6605 37.6695 6.4075C37.6681 6.39419 37.663 6.38152 37.655 6.37086C37.6469 6.3602 37.636 6.35194 37.6236 6.347C36.6268 5.96448 35.611 5.63343 34.5803 5.35517C34.5705 5.35135 34.5621 5.34485 34.5559 5.3364C34.5498 5.32796 34.5461 5.31793 34.5455 5.3075L34.5601 4.9775C34.5601 4.96283 34.5858 4.95917 34.6005 4.96283C35.6338 5.25318 36.6552 5.58467 37.6621 5.9565C37.6805 5.962 37.6805 5.93817 37.6805 5.92167C37.6938 5.63582 37.6938 5.34951 37.6805 5.06367C37.6796 5.05302 37.6757 5.04284 37.6692 5.03438C37.6627 5.02591 37.6539 5.01953 37.6438 5.016C36.6557 4.65738 35.6539 4.33752 34.6408 4.05717C34.6261 4.0535 34.6078 4.03883 34.6078 4.02417V3.67217C34.6078 3.6575 34.6316 3.64833 34.6463 3.65383C35.6803 3.91783 36.817 4.31383 37.6071 4.60533C37.6768 4.631 37.7171 4.62 37.7171 4.55583C37.7171 4.268 37.7281 4.24783 37.7135 3.96183C37.7098 3.92517 37.7061 3.8885 37.6731 3.87567C36.3721 3.37188 35.0446 2.93919 33.6966 2.5795H33.6985ZM9.92012 2.69683C9.86834 2.69688 9.81672 2.70241 9.76612 2.71333C8.57445 3.01767 7.37728 3.47233 6.18012 3.90867C6.16338 3.91833 6.14949 3.93222 6.13984 3.94896C6.13018 3.9657 6.1251 3.98468 6.12512 4.004V6.69167L6.13062 7.29667C6.13062 7.29667 6.99412 6.97217 7.18112 6.91167C7.20495 6.90433 7.20495 6.8805 7.20495 6.85483L7.18662 5.9015C7.18662 5.874 7.19028 5.83367 7.21595 5.82817L10.1951 4.90783C10.2956 4.87196 10.3835 4.80763 10.4481 4.72267C10.5126 4.64153 10.5463 4.54025 10.5434 4.43667L10.5123 3.1845C10.5048 3.11194 10.4813 3.04194 10.4436 2.97951C10.4059 2.91707 10.3548 2.86374 10.2941 2.82333C10.1845 2.74567 10.0544 2.70228 9.92012 2.69867V2.69683ZM9.39578 3.60617C9.46178 3.58783 9.52412 3.663 9.52778 3.72167C9.54468 3.87384 9.55203 4.02691 9.54978 4.18C9.54795 4.2625 9.42878 4.35783 9.34812 4.38167L7.17745 5.08933C7.15728 5.09667 7.12062 5.08933 7.12062 5.06733L7.12428 4.411C7.12428 4.37983 7.16095 4.35417 7.19028 4.345C7.91062 4.0565 8.64701 3.80981 9.39578 3.60617ZM22.1686 5.40467C23.3658 5.423 24.4529 5.45967 25.6519 5.566C28.1749 5.77625 30.6776 6.18265 33.1375 6.7815C34.9222 7.23637 36.6745 7.81027 38.3826 8.49933L38.4083 8.51217L38.3955 9.3335H22.1686V5.40467ZM21.5874 5.40833L21.5856 13.8747H16.1828C16.1039 13.8673 16.1553 13.8325 16.2103 13.7793C16.597 13.4896 17.0457 13.2938 17.5211 13.2073C17.5615 13.2037 17.5724 13.1817 17.5156 13.1083C17.2964 12.8903 17.0203 12.7383 16.7188 12.6695C16.4174 12.6008 16.1027 12.6182 15.8106 12.7197C15.5485 12.805 15.3093 12.9489 15.111 13.1404C14.9128 13.3319 14.7608 13.5661 14.6666 13.8252C14.6628 13.8416 14.6534 13.8563 14.6401 13.8667C14.6267 13.877 14.6102 13.8824 14.5933 13.882C14.3064 13.8996 14.019 13.9075 13.7316 13.9058C13.6858 13.9058 13.6638 13.8472 13.6674 13.8032C13.7054 13.6199 13.7808 13.4464 13.8891 13.2937C13.9973 13.141 14.1359 13.0124 14.2963 12.9158C14.5808 12.7284 14.9081 12.6162 15.2478 12.5895C15.2592 12.5861 15.2697 12.5799 15.2782 12.5715C15.2867 12.5632 15.293 12.5528 15.2966 12.5414C15.3003 12.5301 15.301 12.518 15.2989 12.5062C15.2968 12.4945 15.2918 12.4834 15.2844 12.474C15.2286 12.4084 15.1638 12.351 15.092 12.3035C14.8094 12.1515 14.483 12.1016 14.168 12.1623C13.7165 12.205 13.2946 12.4057 12.9766 12.729C12.6587 13.0524 12.4651 13.4776 12.43 13.9297C12.4116 14.0397 12.4409 14.0653 12.3328 14.102C12.1274 14.1717 11.7425 14.2193 11.5371 14.2633C11.5005 14.2688 11.4455 14.1845 11.4546 14.1478C11.5303 13.7994 11.6831 13.4724 11.9019 13.1908C12.0678 12.9678 12.2822 12.7853 12.529 12.6573C12.5766 12.6335 12.6206 12.5767 12.5766 12.54C12.1128 12.1367 11.1631 12.562 10.78 12.9818C10.4182 13.4599 10.2393 14.0517 10.2758 14.6502C10.2758 14.6795 10.3014 14.7253 10.2758 14.7363C10.0354 14.8384 9.7907 14.9302 9.54245 15.0113C9.52045 15.0168 9.51678 14.96 9.51312 14.938C9.43975 14.505 9.53629 14.0604 9.78262 13.6968C9.89019 13.5127 10.0445 13.3603 10.2299 13.255C10.2471 13.2416 10.2471 13.2244 10.2299 13.2037C10.0191 12.9305 9.18678 13.1267 8.93195 13.376C8.34528 13.948 8.38745 14.5035 8.35995 15.3872C8.35812 15.4293 8.30495 15.5907 8.25728 15.6127C8.15267 15.6737 8.03869 15.7171 7.91995 15.741C7.88145 15.752 7.87778 15.7667 7.86862 15.7282C7.83695 15.625 7.78235 15.5304 7.70892 15.4514C7.63549 15.3723 7.54513 15.311 7.4446 15.2718C7.34408 15.2326 7.23599 15.2167 7.12845 15.2253C7.02091 15.2338 6.91669 15.2666 6.82362 15.3212C6.74503 15.3717 6.67821 15.4385 6.62767 15.5171C6.57713 15.5957 6.54405 15.6842 6.53067 15.7766C6.51729 15.8691 6.52391 15.9634 6.5501 16.0531C6.57628 16.1427 6.62142 16.2258 6.68245 16.2965C6.70995 16.3277 6.71912 16.3588 6.67695 16.3717C6.5789 16.4018 6.48787 16.4513 6.40921 16.5171C6.33054 16.583 6.26582 16.6639 6.21886 16.7551C6.17189 16.8463 6.14362 16.9459 6.13571 17.0482C6.1278 17.1505 6.1404 17.2533 6.17278 17.3507C6.21764 17.4595 6.29241 17.5535 6.38845 17.6216C6.48449 17.6898 6.59787 17.7293 6.71545 17.7357C6.95669 17.7422 7.19391 17.6729 7.39378 17.5377C7.40221 17.5316 7.41174 17.5273 7.42183 17.525C7.43192 17.5227 7.44237 17.5223 7.45258 17.524C7.4628 17.5257 7.47258 17.5294 7.48136 17.5349C7.49015 17.5404 7.49777 17.5476 7.50378 17.556C7.60287 17.7151 7.76102 17.8284 7.94352 17.871C8.12603 17.9136 8.31799 17.8821 8.47728 17.7833C8.77428 17.5872 8.90628 17.2828 8.68628 16.7585C8.67345 16.7292 8.72295 16.6742 8.74862 16.6595C10.5045 15.6475 12.4865 15.0927 14.5126 15.0462C14.7981 15.0713 15.0792 15.1336 15.3486 15.2313L15.3908 15.246L15.3945 16.9712C15.3753 16.9886 15.3545 17.004 15.3321 17.017C14.9554 17.2468 14.6741 17.6049 14.5401 18.0253C14.5328 18.0565 14.5291 18.0638 14.4759 18.0693C14.1221 18.1042 13.7444 18.1555 13.3925 18.183C13.3723 18.1867 13.3338 18.1482 13.3411 18.128C13.5962 17.446 14.0617 16.863 14.6703 16.4633C14.6854 16.4471 14.6952 16.4267 14.6984 16.4048C14.7017 16.3828 14.6983 16.3604 14.6886 16.3405C14.6013 16.2595 14.4956 16.201 14.3806 16.17C14.0745 16.1472 13.7673 16.1952 13.4827 16.3103C13.1982 16.4254 12.9439 16.6045 12.7398 16.8337C12.3747 17.2891 12.1732 17.8541 12.1678 18.4378C12.1659 18.4782 12.1733 18.5442 12.1329 18.557C11.9056 18.6285 11.6544 18.6927 11.418 18.7587C11.3905 18.766 11.3538 18.7385 11.3483 18.7092C11.2896 18.3413 11.3433 17.9643 11.5022 17.6274C11.6612 17.2906 11.9181 17.0094 12.2393 16.8208C12.3328 16.7475 12.1696 16.6338 12.0523 16.6338C11.7089 16.6145 11.3673 16.6962 11.0698 16.8689C10.7723 17.0416 10.532 17.2977 10.3784 17.6055C10.209 18.0725 10.1898 18.5808 10.3235 19.0593C10.3289 19.1015 10.3583 19.1748 10.3124 19.1858C10.1676 19.2207 9.82662 19.3508 9.72028 19.3838C9.68362 19.3961 9.65489 19.3777 9.63412 19.3288C9.55044 19.0379 9.53724 18.7312 9.59562 18.4342C9.6785 18.0955 9.84779 17.7841 10.0869 17.5303C10.1016 17.512 10.1071 17.4717 10.0869 17.4625C9.86906 17.364 9.62291 17.3478 9.39395 17.4167C9.20705 17.464 9.03239 17.5506 8.8816 17.6707C8.7308 17.7909 8.60734 17.9417 8.51945 18.1133C8.22795 18.6578 8.30312 19.1822 8.61295 19.9558C8.62762 19.9925 8.64595 20.0622 8.61295 20.0842L8.36178 20.2308C8.33062 20.2547 8.30312 20.2345 8.28112 20.2033C8.18028 20.0603 8.05378 19.833 7.89612 19.7633C7.77165 19.7024 7.63306 19.6763 7.49496 19.6876C7.35686 19.6988 7.22437 19.7472 7.11145 19.8275C7.00219 19.9237 6.92323 20.0497 6.88417 20.1899C6.84512 20.3302 6.84765 20.4788 6.89145 20.6177C6.94397 20.7159 7.00533 20.8092 7.07478 20.8963C7.09312 20.922 7.07295 20.9623 7.05095 20.9825C6.94278 21.0778 6.79428 21.1475 6.70628 21.2392C6.61089 21.362 6.5576 21.5124 6.5543 21.6679C6.55099 21.8234 6.59786 21.9759 6.68795 22.1027C6.77753 22.2306 6.90905 22.3232 7.05972 22.3644C7.2104 22.4056 7.37074 22.3928 7.51295 22.3282C7.65947 22.263 7.80155 22.1883 7.93828 22.1045C7.98778 22.0715 8.02078 22.011 8.06662 22.0587C8.17794 22.185 8.31912 22.2814 8.47728 22.3392C8.58726 22.3682 8.7022 22.373 8.81423 22.3534C8.92625 22.3338 9.03271 22.2901 9.12628 22.2255C9.23972 22.1718 9.33178 22.0814 9.38765 21.969C9.44352 21.8566 9.45995 21.7287 9.43428 21.6058C9.37574 21.4271 9.28708 21.2597 9.17212 21.1108C9.11162 21.0467 9.10795 21.0503 9.17212 21.0118C10.1284 20.4465 11.1505 20.0007 12.2154 19.6845C13.2189 19.3818 14.2669 19.2534 15.3138 19.305H15.3981L15.4036 22.8782H5.87762C5.77862 18.9677 5.66495 12.7765 5.59162 8.51217L5.61728 8.49933C7.32476 7.81034 9.07646 7.23645 10.8606 6.7815C13.3211 6.18255 15.8244 5.77616 18.3479 5.566C19.426 5.47187 20.5072 5.41928 21.5893 5.40833H21.5874ZM15.9261 6.90433C15.4695 6.91526 15.0268 7.06348 14.6556 7.32967C14.1313 7.67433 13.8196 8.74683 13.7573 9.13C13.7541 9.14757 13.7452 9.16357 13.7319 9.17552C13.7186 9.18746 13.7018 9.19466 13.684 9.196C13.2668 9.24864 12.853 9.32515 12.4446 9.42517C12.4318 9.427 12.4226 9.40683 12.4226 9.394C12.4567 8.99115 12.623 8.61087 12.8956 8.31233C13.1744 8.04356 13.4769 7.80057 13.7994 7.58633C13.8233 7.56617 13.8068 7.50383 13.7775 7.49283C13.5447 7.39924 13.2955 7.35298 13.0447 7.35676C12.7938 7.36054 12.5462 7.41428 12.3163 7.51483C11.9918 7.65261 11.7079 7.8709 11.4913 8.14904C11.2748 8.42719 11.1328 8.75599 11.0788 9.10433C11.0353 9.3524 11.0175 9.60428 11.0256 9.856C11.0293 9.88717 10.9706 9.889 10.9431 9.89817C10.4921 10.0393 10.0191 10.2043 9.64145 10.3308C9.62312 10.3382 9.56995 10.3345 9.56995 10.3125C9.55603 9.88933 9.66767 9.47151 9.89078 9.11167C10.1108 8.75417 10.5196 8.5525 10.8166 8.25183C10.8368 8.22983 10.8679 8.17117 10.8368 8.15833C10.0851 7.85583 9.37562 8.16567 8.77612 8.84583C8.57366 9.14428 8.43637 9.48204 8.37319 9.83709C8.31001 10.1922 8.32237 10.5565 8.40945 10.9065C8.42595 10.9725 8.40945 11.044 8.37462 11.0587C8.23755 11.1217 8.09673 11.1762 7.95295 11.2218C7.94657 11.2241 7.93977 11.2249 7.93305 11.2242C7.92632 11.2235 7.91983 11.2213 7.91405 11.2178C7.90827 11.2143 7.90333 11.2095 7.8996 11.2039C7.89586 11.1983 7.89342 11.1919 7.89245 11.1852C7.72195 10.6425 7.08578 10.7488 6.79795 10.9138C6.64547 10.9991 6.53301 11.1414 6.48525 11.3094C6.43748 11.4775 6.45829 11.6576 6.54312 11.8103C6.54772 11.8167 6.55091 11.8239 6.55248 11.8316C6.55405 11.8393 6.55397 11.8472 6.55223 11.8548C6.5505 11.8625 6.54715 11.8696 6.54242 11.8759C6.53768 11.8821 6.53167 11.8873 6.52478 11.891C6.4274 11.937 6.34021 12.002 6.26835 12.0822C6.1965 12.1624 6.14143 12.2562 6.10641 12.3581C6.07138 12.4599 6.0571 12.5677 6.0644 12.6752C6.07171 12.7826 6.10046 12.8875 6.14895 12.9837C6.22946 13.111 6.35219 13.2059 6.49565 13.2518C6.63911 13.2977 6.79415 13.2917 6.93362 13.2348C7.0926 13.1737 7.24394 13.0944 7.38462 12.9983C7.39361 12.9946 7.40344 12.9933 7.41311 12.9946C7.42277 12.9958 7.43192 12.9997 7.43962 13.0057C7.49632 13.0858 7.56878 13.1534 7.65256 13.2045C7.73633 13.2556 7.82966 13.289 7.92682 13.3028C8.02398 13.3165 8.12292 13.3102 8.21758 13.2844C8.31223 13.2585 8.40061 13.2136 8.47728 13.1523C8.68812 13.002 8.77062 12.9763 8.85128 12.705C8.8622 12.6069 8.85321 12.5077 8.82485 12.4132C8.7965 12.3187 8.74937 12.2309 8.68628 12.155C8.66428 12.1367 8.68445 12.0817 8.71012 12.0688C11.0933 10.8417 13.7231 10.1692 16.4028 10.1017C17.3756 10.1305 18.31 10.4878 19.0538 11.1155C19.0662 11.134 19.0832 11.149 19.1031 11.159C19.123 11.1689 19.1452 11.1735 19.1674 11.1723C19.19 11.1627 19.2103 11.1487 19.2273 11.131C19.2443 11.1134 19.2576 11.0925 19.2664 11.0697C19.3286 10.8484 19.3265 10.6139 19.2602 10.3938C19.194 10.1736 19.0664 9.97693 18.8925 9.82667C18.5897 9.5093 18.199 9.28967 17.7704 9.196C17.7484 9.1905 17.7338 9.14283 17.7521 9.12817C17.9275 8.95366 18.1364 8.81646 18.3663 8.72483C18.7328 8.6631 19.1038 8.63244 19.4754 8.63317C19.5011 8.63133 19.5396 8.60567 19.5304 8.58183C19.457 8.37962 19.3268 8.20287 19.1554 8.0728C18.9841 7.94273 18.7788 7.86485 18.5643 7.8485C18.132 7.79227 17.6925 7.85568 17.2938 8.03183C16.8814 8.25518 16.5579 8.61296 16.3771 9.04567C16.3711 9.05613 16.3626 9.06496 16.3524 9.07135C16.3421 9.07775 16.3305 9.08152 16.3184 9.08233C15.9556 9.06907 15.5925 9.06479 15.2295 9.0695C15.2038 9.0695 15.1653 9.0695 15.1653 9.04383C15.218 8.68672 15.3815 8.35518 15.6328 8.096C15.9977 7.78039 16.4214 7.5399 16.8794 7.38833C16.9143 7.37733 16.9528 7.32233 16.9326 7.29483C16.8368 7.16265 16.7104 7.05569 16.5641 6.98317C16.3569 6.92721 16.1425 6.90188 15.9279 6.908L15.9261 6.90433ZM22.1686 9.8505H38.3845C38.3625 11.1082 38.3386 12.4777 38.3111 13.8747H22.1686V9.8505ZM15.9151 14.3018L28.1361 14.3073C28.1433 14.3068 28.1505 14.3089 28.1563 14.3133C28.162 14.3177 28.1659 14.324 28.1673 14.3312L28.1636 23.7508C28.1529 24.2289 28.0644 24.702 27.9014 25.1515C27.4144 26.4797 26.4813 27.5975 25.2614 28.314C24.2963 28.8907 23.1956 29.2013 22.0714 29.2142C20.5469 29.1975 19.0781 28.6386 17.9281 27.6375C17.3064 27.1182 16.8038 26.4712 16.4542 25.7405C16.1047 25.0098 15.9164 24.2124 15.9023 23.4025L15.8894 14.3367C15.8894 14.3128 15.8913 14.3018 15.9151 14.3018ZM28.7374 14.4595H38.302C38.28 15.642 38.2561 16.8355 38.2396 17.9905H28.7374V15.2497V14.4595ZM16.1993 14.5897C16.1755 14.5897 16.1736 14.5988 16.1736 14.6227L16.1865 23.3365C16.1981 24.1151 16.3767 24.8821 16.71 25.5857C17.0434 26.2894 17.5238 26.9134 18.1188 27.4157C19.2119 28.3751 20.6116 28.9128 22.066 28.9318C23.1394 28.9179 24.1897 28.6186 25.1093 28.0647C26.2755 27.3719 27.1657 26.2965 27.6283 25.0213C27.7841 24.5893 27.8683 24.1348 27.8776 23.6757L27.8813 14.619C27.8811 14.6154 27.8801 14.6119 27.8785 14.6086C27.8769 14.6054 27.8747 14.6025 27.8719 14.6001C27.8692 14.5977 27.8661 14.5959 27.8626 14.5947C27.8592 14.5936 27.8556 14.5931 27.8519 14.5933L16.1993 14.5897ZM24.332 15.147C24.3678 15.1524 24.4015 15.1673 24.4296 15.1902C24.4576 15.2131 24.479 15.2431 24.4914 15.2772L24.9351 16.588C24.944 16.6084 24.9481 16.6306 24.9472 16.6528C24.9462 16.675 24.9402 16.6968 24.9296 16.7163C24.9173 16.7304 24.9021 16.7417 24.885 16.7493C24.8679 16.7569 24.8493 16.7607 24.8306 16.7603C24.8053 16.7609 24.7804 16.7534 24.7597 16.7389C24.7389 16.7244 24.7233 16.7036 24.7151 16.6797L24.6454 16.4505H24.0404L23.9744 16.6852C23.9561 16.7585 23.9011 16.7658 23.8443 16.7658C23.8278 16.7639 23.812 16.7583 23.7981 16.7494C23.7841 16.7405 23.7723 16.7286 23.7636 16.7145C23.7535 16.7011 23.7465 16.6855 23.7434 16.669C23.7402 16.6524 23.7408 16.6354 23.7453 16.6192L24.1706 15.2845C24.1798 15.248 24.2001 15.2152 24.2287 15.1906C24.2572 15.166 24.2926 15.1508 24.3301 15.147M22.9313 15.1598H22.9734C23.0671 15.153 23.1603 15.1776 23.2383 15.2298C23.3163 15.2819 23.3747 15.3586 23.4043 15.4477C23.4079 15.4585 23.4094 15.4699 23.4085 15.4813C23.4076 15.4927 23.4044 15.5038 23.3991 15.5139C23.3937 15.5241 23.3864 15.533 23.3776 15.5402C23.3687 15.5474 23.3584 15.5527 23.3474 15.5558C23.3254 15.5673 23.2999 15.5698 23.276 15.563C23.2521 15.5562 23.2318 15.5405 23.2191 15.5192C23.1954 15.4739 23.1609 15.4352 23.1187 15.4065C23.0765 15.3777 23.0279 15.3597 22.9771 15.3542C22.9229 15.3572 22.8708 15.3763 22.8274 15.4089C22.7841 15.4415 22.7513 15.4863 22.7333 15.5375C22.6687 15.6636 22.6342 15.8029 22.6325 15.9445C22.6273 16.0885 22.6562 16.2317 22.7168 16.3625C22.7387 16.419 22.7777 16.4674 22.8282 16.5009C22.8788 16.5343 22.9385 16.5513 22.9991 16.5495C23.0939 16.5225 23.1763 16.4632 23.2319 16.3818C23.2875 16.3004 23.3128 16.2021 23.3034 16.104V16.0325H23.056C23.0409 16.0331 23.026 16.0305 23.0121 16.0248C22.9982 16.0191 22.9857 16.0105 22.9754 15.9995C22.9652 15.9886 22.9574 15.9755 22.9526 15.9613C22.9478 15.947 22.9462 15.9319 22.9478 15.917C22.9478 15.8748 22.9606 15.8253 23.056 15.8253H23.4079C23.5253 15.8253 23.5418 15.9133 23.5418 15.9903C23.5422 16.0836 23.5354 16.1768 23.5216 16.269C23.485 16.4416 23.3874 16.5952 23.2466 16.7017C23.1635 16.7517 23.0686 16.7789 22.9716 16.7805C22.8846 16.7784 22.7998 16.7525 22.7264 16.7057C22.6531 16.6588 22.5939 16.5928 22.5555 16.5147C22.4605 16.3407 22.4142 16.1444 22.4216 15.9463C22.4201 15.7508 22.4707 15.5584 22.5683 15.389C22.6027 15.3218 22.6546 15.2651 22.7184 15.2248C22.7823 15.1845 22.8558 15.162 22.9313 15.1598ZM17.4533 15.1635H17.4606C17.7961 15.1672 17.9061 15.367 17.9061 15.4385C17.9061 15.5027 17.7943 15.5852 17.7319 15.51C17.6962 15.4692 17.6518 15.4369 17.602 15.4153C17.5523 15.3938 17.4983 15.3835 17.4441 15.3853C17.385 15.3782 17.3252 15.3919 17.275 15.424C17.2249 15.4561 17.1874 15.5046 17.1691 15.5613C17.1636 15.589 17.1637 15.6174 17.1694 15.645C17.1752 15.6726 17.1864 15.6987 17.2025 15.7218C17.2186 15.7449 17.2392 15.7646 17.2631 15.7795C17.287 15.7945 17.3136 15.8044 17.3414 15.8088C17.5139 15.8186 17.6816 15.8689 17.8309 15.9555C17.8821 15.993 17.9209 16.0431 17.9469 16.1009C17.9729 16.1587 17.9835 16.2223 17.9776 16.2855C17.9798 16.4043 17.9358 16.5194 17.8548 16.6063C17.7943 16.6627 17.723 16.7062 17.6451 16.7339C17.5672 16.7617 17.4844 16.7731 17.4019 16.7677C17.3062 16.7706 17.2113 16.7484 17.1268 16.7034C17.0422 16.6584 16.9708 16.5921 16.9198 16.511C16.9124 16.4927 16.9014 16.3955 16.9821 16.368C17.0091 16.3608 17.0376 16.3615 17.0642 16.3699C17.0909 16.3784 17.1145 16.3942 17.1325 16.4157C17.2107 16.4874 17.3123 16.5284 17.4185 16.5312C17.5171 16.5348 17.6136 16.5022 17.6898 16.4395C17.7166 16.4119 17.7351 16.3773 17.7429 16.3396C17.7507 16.3019 17.7475 16.2628 17.7338 16.2268C17.6953 16.1689 17.6425 16.122 17.5805 16.0905C17.5185 16.059 17.4494 16.0441 17.3799 16.0472C17.2623 16.0465 17.1494 16.0005 17.0646 15.9188C17.019 15.8715 16.9841 15.8149 16.9623 15.7529C16.9404 15.6909 16.9322 15.625 16.9381 15.5595C16.9442 15.4991 16.9639 15.4409 16.9956 15.3891C17.0274 15.3374 17.0704 15.2935 17.1214 15.2607C17.2187 15.1934 17.3351 15.1594 17.4533 15.1635ZM20.4764 15.1635H21.1383C21.1527 15.1635 21.167 15.1663 21.1804 15.1719C21.1937 15.1774 21.2059 15.1855 21.2161 15.1957C21.2263 15.2059 21.2344 15.2181 21.2399 15.2314C21.2454 15.2448 21.2483 15.2591 21.2483 15.2735C21.2483 15.2879 21.2454 15.3022 21.2399 15.3156C21.2344 15.3289 21.2263 15.3411 21.2161 15.3513C21.2059 15.3615 21.1937 15.3696 21.1804 15.3751C21.167 15.3807 21.1527 15.3835 21.1383 15.3835L20.9293 15.3872V16.6375C20.9257 16.6654 20.9122 16.691 20.8911 16.7096C20.87 16.7282 20.8428 16.7385 20.8147 16.7385C20.7866 16.7385 20.7594 16.7282 20.7383 16.7096C20.7172 16.691 20.7037 16.6654 20.7001 16.6375V15.3853H20.4874C20.4583 15.387 20.4296 15.3771 20.4078 15.3577C20.386 15.3382 20.3727 15.3109 20.371 15.2817C20.3693 15.2526 20.3793 15.2239 20.3987 15.2021C20.4181 15.1803 20.4454 15.167 20.4746 15.1653L20.4764 15.1635ZM21.5031 15.1635H22.1631C22.1776 15.1635 22.1919 15.1663 22.2052 15.1719C22.2186 15.1774 22.2307 15.1855 22.2409 15.1957C22.2511 15.2059 22.2592 15.2181 22.2647 15.2314C22.2703 15.2448 22.2731 15.2591 22.2731 15.2735C22.2731 15.2879 22.2703 15.3022 22.2647 15.3156C22.2592 15.3289 22.2511 15.3411 22.2409 15.3513C22.2307 15.3615 22.2186 15.3696 22.2052 15.3751C22.1919 15.3807 22.1776 15.3835 22.1631 15.3835L21.9541 15.3872V16.6375C21.9506 16.6654 21.937 16.691 21.9159 16.7096C21.8948 16.7282 21.8677 16.7385 21.8395 16.7385C21.8114 16.7385 21.7843 16.7282 21.7632 16.7096C21.7421 16.691 21.7285 16.6654 21.725 16.6375V15.3853H21.5141C21.4849 15.387 21.4563 15.3771 21.4345 15.3577C21.4126 15.3382 21.3994 15.3109 21.3977 15.2817C21.396 15.2526 21.406 15.2239 21.4254 15.2021C21.4448 15.1803 21.4721 15.167 21.5013 15.1653L21.5031 15.1635ZM26.5264 15.1635H27.1883C27.2027 15.1635 27.217 15.1663 27.2304 15.1719C27.2437 15.1774 27.2558 15.1855 27.2661 15.1957C27.2763 15.2059 27.2844 15.2181 27.2899 15.2314C27.2954 15.2448 27.2983 15.2591 27.2983 15.2735C27.2983 15.2879 27.2954 15.3022 27.2899 15.3156C27.2844 15.3289 27.2763 15.3411 27.2661 15.3513C27.2558 15.3615 27.2437 15.3696 27.2304 15.3751C27.217 15.3807 27.2027 15.3835 27.1883 15.3835L26.983 15.3872V16.6375C26.9794 16.6654 26.9658 16.691 26.9447 16.7096C26.9236 16.7282 26.8965 16.7385 26.8684 16.7385C26.8403 16.7385 26.8131 16.7282 26.792 16.7096C26.7709 16.691 26.7573 16.6654 26.7538 16.6375V15.3853H26.5411C26.5119 15.387 26.4833 15.3771 26.4615 15.3577C26.4396 15.3382 26.4264 15.3109 26.4247 15.2817C26.423 15.2526 26.433 15.2239 26.4524 15.2021C26.4718 15.1803 26.4991 15.167 26.5283 15.1653L26.5264 15.1635ZM25.2853 15.1708H25.6556C25.7906 15.1664 25.9237 15.2035 26.0369 15.2772C26.0951 15.3223 26.1429 15.3793 26.177 15.4445C26.2112 15.5096 26.2309 15.5814 26.235 15.6548C26.2422 15.7213 26.2343 15.7885 26.2118 15.8514C26.1892 15.9142 26.1526 15.9712 26.1048 16.0178C26.045 16.0798 25.9716 16.1269 25.8903 16.1553L25.8536 16.1682L26.1433 16.5348C26.1676 16.5639 26.1823 16.5997 26.1854 16.6375C26.1806 16.6974 26.1439 16.7279 26.0754 16.7292C26.0557 16.7294 26.0361 16.725 26.0183 16.7164C26.0005 16.7079 25.9849 16.6953 25.9728 16.6797L25.6299 16.2067H25.4154V16.6283C25.4174 16.6443 25.4157 16.6605 25.4107 16.6757C25.4057 16.691 25.3974 16.705 25.3864 16.7167C25.3753 16.7284 25.3619 16.7376 25.347 16.7435C25.332 16.7495 25.316 16.7521 25.2999 16.7512C25.2841 16.7518 25.2682 16.749 25.2535 16.7429C25.2388 16.7368 25.2256 16.7276 25.2148 16.716C25.204 16.7043 25.1958 16.6904 25.1909 16.6753C25.186 16.6602 25.1844 16.6441 25.1863 16.6283V15.2973C25.1838 15.2641 25.1943 15.2313 25.2156 15.2057C25.2338 15.1859 25.2586 15.1736 25.2853 15.1708ZM18.1903 15.1745H18.8503C18.8797 15.1745 18.9079 15.1862 18.9287 15.207C18.9495 15.2278 18.9612 15.256 18.9612 15.2854C18.9612 15.3148 18.9495 15.343 18.9287 15.3638C18.9079 15.3846 18.8797 15.3963 18.8503 15.3963H18.6376V16.6503C18.6341 16.6782 18.6205 16.7039 18.5994 16.7225C18.5783 16.7411 18.5512 16.7513 18.523 16.7513C18.4949 16.7513 18.4678 16.7411 18.4467 16.7225C18.4256 16.7039 18.412 16.6782 18.4085 16.6503V15.3963H18.1958C18.1666 15.3971 18.1383 15.3862 18.1172 15.3661C18.0961 15.3459 18.0838 15.3183 18.083 15.2891C18.0823 15.2599 18.0932 15.2316 18.1133 15.2105C18.1334 15.1894 18.1611 15.1752 18.1903 15.1745ZM19.2591 15.1745H19.2628C19.2784 15.174 19.294 15.1767 19.3085 15.1824C19.3231 15.1881 19.3364 15.1967 19.3475 15.2076C19.3586 15.2186 19.3674 15.2317 19.3734 15.2462C19.3793 15.2607 19.3822 15.2762 19.3819 15.2918V16.1553C19.3758 16.2524 19.3995 16.349 19.4498 16.4322C19.4775 16.4668 19.5131 16.4942 19.5536 16.5121C19.5941 16.5299 19.6384 16.5377 19.6826 16.5348C19.7264 16.5388 19.7705 16.5314 19.8106 16.5134C19.8507 16.4955 19.8856 16.4675 19.9118 16.4322C19.9594 16.3487 19.9817 16.2531 19.9759 16.1572V15.29H19.9778C19.9813 15.2621 19.9949 15.2365 20.016 15.2179C20.0371 15.1993 20.0642 15.189 20.0924 15.189C20.1205 15.189 20.1476 15.1993 20.1687 15.2179C20.1898 15.2365 20.2034 15.2621 20.207 15.29V16.082C20.2201 16.2487 20.1844 16.4156 20.1043 16.5623C20.0576 16.6281 19.9943 16.6803 19.9209 16.7138C19.8475 16.7473 19.7666 16.7608 19.6863 16.753C19.6056 16.7596 19.5245 16.7456 19.4508 16.7123C19.377 16.6789 19.3129 16.6273 19.2646 16.5623C19.1803 16.4169 19.1414 16.2497 19.1528 16.082V15.29C19.1527 15.2609 19.1636 15.2328 19.1833 15.2114C19.203 15.19 19.2301 15.1768 19.2591 15.1745ZM25.4081 15.3853V15.9867H25.6465C25.6919 15.9918 25.7378 15.9874 25.7814 15.9738C25.8251 15.9602 25.8654 15.9377 25.8998 15.9077C25.9343 15.8777 25.9622 15.8409 25.9817 15.7996C26.0012 15.7583 26.0119 15.7133 26.0131 15.6677C26.0122 15.6297 26.0034 15.5924 25.9873 15.558C25.9712 15.5236 25.9482 15.4929 25.9196 15.4678C25.8542 15.4099 25.7685 15.3802 25.6813 15.3853H25.4081ZM24.3374 15.4128L24.0881 16.2727H24.5978L24.3374 15.4128ZM22.2474 17.2553C22.2676 17.2553 22.2859 17.259 22.2878 17.2755C22.2914 17.3085 22.2584 17.3287 22.2108 17.3525C22.1393 17.382 22.079 17.4333 22.0385 17.4992C21.9867 17.59 21.9619 17.6936 21.9669 17.798C21.9745 17.8291 21.9888 17.8582 22.0087 17.8832C22.0287 17.9082 22.0538 17.9285 22.0824 17.9428C22.1637 17.9809 22.2531 17.9986 22.3428 17.9942C22.4812 17.986 22.616 17.9465 22.7369 17.8787C22.9005 17.8272 23.0737 17.8146 23.243 17.842C23.3705 17.8432 23.4947 17.8835 23.5986 17.9575C23.6426 17.9887 23.6353 18.0272 23.6188 18.0308C23.5931 18.04 23.5656 18.0088 23.5381 18.0125C23.4497 18.0218 23.3624 18.0402 23.2778 18.0675C23.1678 18.117 23.1183 18.1353 23.0651 18.2325C23.044 18.2739 23.0395 18.3217 23.0523 18.3663C23.0706 18.4103 23.1164 18.4397 23.1256 18.4708C23.1538 18.5524 23.1933 18.6295 23.243 18.7L23.298 18.7422C23.4793 18.8798 23.652 19.0286 23.8149 19.1877C23.8489 19.2399 23.8737 19.2976 23.8883 19.3582C23.8938 19.3802 23.8755 19.4132 23.8553 19.404L23.7893 19.3508C23.7611 19.3218 23.7282 19.2976 23.6921 19.2793C23.5894 19.24 23.4791 19.2244 23.3694 19.2335C23.32 19.2335 23.2209 19.2775 23.2778 19.2995C23.3748 19.3493 23.4579 19.4224 23.5198 19.5122C23.6577 19.6683 23.7282 19.8726 23.716 20.0805C23.716 20.0915 23.6939 20.0988 23.6884 20.0915C23.6392 20.0137 23.5758 19.946 23.5014 19.8917C23.3905 19.8097 23.2542 19.7694 23.1164 19.778C23.0889 19.7798 23.0064 19.778 23.0156 19.8037C23.1017 19.913 23.1772 20.0302 23.2411 20.1538C23.3072 20.3138 23.3318 20.4878 23.3126 20.6598C23.3108 20.669 23.2759 20.6782 23.2704 20.669C23.2259 20.62 23.1788 20.5735 23.1293 20.5297C23.0773 20.4851 23.0192 20.4481 22.957 20.4197C22.8301 20.3921 22.6977 20.4103 22.5829 20.471C22.482 20.5273 22.3993 20.6112 22.3446 20.713C22.28 20.8286 22.2412 20.9568 22.231 21.0888C22.2107 21.25 22.2374 21.4136 22.308 21.56C22.3855 21.6977 22.5087 21.8041 22.6563 21.8607C22.8544 21.922 23.0614 21.9493 23.2686 21.9413C23.5235 21.9505 23.7783 21.912 24.0331 21.9047C24.2747 21.8825 24.5179 21.8843 24.7591 21.9102C24.9542 21.9497 25.1406 22.0243 25.3091 22.1302C25.4457 22.2358 25.5772 22.3477 25.7033 22.4657C25.718 22.4767 25.7509 22.4602 25.7675 22.4492C25.888 22.3337 25.9716 22.185 26.0076 22.022C26.0307 21.8641 25.994 21.7033 25.9049 21.571C25.8188 21.4152 25.6923 21.241 25.5933 21.076C25.4591 20.9027 25.3355 20.7214 25.2229 20.5333C25.1612 20.4072 25.1501 20.2622 25.1918 20.1282C25.227 20.029 25.2966 19.9457 25.3879 19.8935C25.4081 19.8807 25.4283 19.9045 25.4191 19.932C25.3947 19.9976 25.3896 20.0689 25.4044 20.1373C25.4336 20.2365 25.4902 20.3255 25.5676 20.394C25.5914 20.4123 25.6538 20.3848 25.6685 20.3555C25.7015 20.2767 25.6813 20.1538 25.7106 20.0732C25.7467 19.9227 25.8142 19.7815 25.9086 19.6588C26.1111 19.5094 26.3332 19.3885 26.5686 19.2995C26.6291 19.2647 26.6676 19.107 26.7355 19.1327C26.8033 19.1583 26.7666 19.316 26.7153 19.393C26.6419 19.5067 26.5558 19.5763 26.4751 19.679C26.3646 19.8202 26.2682 19.9719 26.1873 20.1318C26.1427 20.2075 26.124 20.2957 26.1341 20.383C26.1424 20.4198 26.1587 20.4543 26.1818 20.4841C26.2049 20.5139 26.2344 20.5382 26.268 20.5553C26.3083 20.5737 26.3596 20.537 26.3963 20.5095C26.4663 20.4576 26.5265 20.3937 26.5741 20.3207C26.6163 20.251 26.5925 20.1575 26.6328 20.086C26.6438 20.0695 26.6878 20.0732 26.7006 20.086C26.7446 20.1264 26.7731 20.1808 26.7813 20.24C26.785 20.3096 26.7789 20.3793 26.7629 20.4472C26.7574 20.4618 26.719 20.4967 26.7061 20.5297C26.6967 20.5554 26.6844 20.58 26.6694 20.603C26.6034 20.7185 26.5264 20.8157 26.4403 20.834C26.4219 20.8358 26.4091 20.8725 26.4219 20.889C26.4724 20.9839 26.5432 21.0665 26.6291 21.131C26.716 21.1736 26.8161 21.1802 26.9078 21.1493C26.9573 21.1347 26.9958 21.0998 27.0526 21.0815C27.0764 21.0742 27.0618 21.0888 27.0618 21.1127C27.0604 21.1663 27.0511 21.2194 27.0343 21.2703C27.0039 21.3331 26.9562 21.3859 26.8968 21.4225C26.8033 21.4749 26.6994 21.5062 26.5924 21.5142C26.5429 21.5233 26.4678 21.56 26.4861 21.6077C26.5034 21.6634 26.5294 21.716 26.5631 21.7635C26.601 21.8053 26.6535 21.8308 26.7098 21.835C26.7914 21.8392 26.872 21.8159 26.9389 21.769C27.0123 21.7213 27.0508 21.6333 27.115 21.571C27.1278 21.56 27.1626 21.571 27.1626 21.5893C27.1577 21.69 27.1321 21.7886 27.0875 21.879C27.0259 21.9774 26.9463 22.0633 26.8528 22.132C26.8253 22.1558 26.7923 22.1852 26.7923 22.2218C26.8064 22.2789 26.8341 22.3317 26.8729 22.3758C26.9086 22.4276 26.9633 22.4632 27.0251 22.4748C27.0858 22.4851 27.1478 22.4851 27.2084 22.4748C27.2323 22.4748 27.2268 22.517 27.2066 22.5317C27.1479 22.5922 27.0737 22.6353 26.9921 22.6563C26.9165 22.6815 26.8356 22.6866 26.7575 22.671C26.6089 22.6343 26.5118 22.5793 26.3651 22.5372C26.2861 22.507 26.1999 22.5012 26.1176 22.5207C26.0391 22.5509 25.9714 22.6039 25.9233 22.6728C25.8945 22.7061 25.8754 22.7467 25.8683 22.7902C25.8573 22.9057 25.9141 23.0285 25.8774 23.1422C25.8407 23.2893 25.791 23.4328 25.729 23.5712C25.6666 23.6773 25.5961 23.7784 25.5181 23.8737C25.4448 23.9727 25.3476 24.0093 25.2981 24.1175L25.2284 24.233C25.16 24.3624 25.1235 24.5064 25.1221 24.6528C25.1407 24.7917 25.1943 24.9236 25.278 25.036L25.5584 25.4705C25.5782 25.5186 25.584 25.5714 25.5749 25.6227C25.5727 25.6489 25.5643 25.6743 25.5502 25.6966C25.5362 25.719 25.517 25.7376 25.4943 25.751C25.1229 25.9615 24.8475 26.3079 24.7261 26.7172L24.7224 26.741V26.7483C24.7159 26.7767 24.7027 26.8031 24.6839 26.8253C24.5905 26.9209 24.468 26.9828 24.3356 27.0013L24.0331 27.0857C24.0015 27.0969 23.9736 27.1165 23.9524 27.1425C23.9352 27.1698 23.9275 27.2021 23.9305 27.2342C23.9335 27.2664 23.947 27.2966 23.969 27.3203C23.9991 27.3577 24.0182 27.4028 24.024 27.4505C24.026 27.4783 24.0175 27.5058 24.0001 27.5275C23.9856 27.5439 23.9682 27.5576 23.9488 27.5678C23.8234 27.6362 23.6905 27.6898 23.5528 27.7273C23.4611 27.7475 23.3951 27.7237 23.4244 27.6192C23.4751 27.4371 23.535 27.2579 23.6041 27.082C23.6632 26.9778 23.7469 26.8897 23.8479 26.8253C23.9708 26.7178 24.1006 26.6186 24.2366 26.5283C24.3253 26.4682 24.3998 26.3894 24.4548 26.2973C24.5614 26.1229 24.6777 25.9546 24.8031 25.7932C24.8283 25.7598 24.8461 25.7215 24.8553 25.6807C24.8644 25.6399 24.8648 25.5976 24.8563 25.5567C24.8437 25.4832 24.8134 25.414 24.7681 25.3549C24.7227 25.2958 24.6636 25.2486 24.596 25.2175L24.4401 25.1552C24.2619 25.0942 24.1052 24.9827 23.9891 24.8343C23.962 24.7963 23.9213 24.7701 23.8755 24.761C23.7599 24.7647 23.7269 24.926 23.7233 25.014C23.7119 25.1434 23.7144 25.2737 23.7306 25.4027C23.741 25.4459 23.7435 25.4906 23.7379 25.5347C23.7314 25.5497 23.7216 25.5632 23.7093 25.5739C23.6969 25.5847 23.6823 25.5926 23.6665 25.597C23.3024 25.7265 22.9547 25.8982 22.6306 26.1085C22.5824 26.1415 22.5429 26.1855 22.5151 26.2368L22.4839 26.29C22.4425 26.3571 22.3795 26.4082 22.3052 26.4349C22.2309 26.4615 22.1498 26.4621 22.0751 26.4367L21.9944 26.4165C21.9529 26.4133 21.9116 26.4243 21.8771 26.4477C21.8492 26.4661 21.8239 26.4883 21.802 26.5137L21.7836 26.5485V26.5742L21.7909 26.6053L21.8313 26.7153C21.8403 26.7311 21.8457 26.7487 21.847 26.7669C21.8483 26.785 21.8456 26.8032 21.8389 26.8201C21.8322 26.837 21.8217 26.8522 21.8084 26.8645C21.795 26.8769 21.779 26.886 21.7616 26.8913C21.6414 26.9379 21.5167 26.9717 21.3895 26.9922C21.3161 27.0013 21.2519 26.9738 21.2703 26.8877C21.2949 26.7381 21.338 26.5921 21.3986 26.4532C21.4072 26.4284 21.4209 26.4058 21.439 26.3869C21.457 26.3679 21.4789 26.353 21.5031 26.3432C21.6242 26.2737 21.7347 26.1872 21.8313 26.0865C21.9157 26.007 22.0253 25.9596 22.1411 25.9527C22.3154 25.9386 22.4821 25.875 22.6214 25.7693C22.7671 25.6659 22.9049 25.5519 23.034 25.4283C23.1276 25.3072 23.1774 25.1579 23.1754 25.0047C23.1735 24.8516 23.1197 24.7037 23.0229 24.585L22.9863 24.5208C22.9515 24.4658 22.9313 24.387 22.9019 24.3302C22.8635 24.2731 22.839 24.2078 22.8305 24.1395C22.8305 24.0148 22.8799 23.8957 22.8873 23.771C22.8882 23.7612 22.8859 23.7513 22.8806 23.743C22.8752 23.7347 22.8673 23.7284 22.858 23.7252C22.7772 23.6951 22.6927 23.6766 22.6068 23.6702C22.2659 23.7094 21.9218 23.7131 21.5801 23.6812C21.3262 23.6086 21.0851 23.4973 20.8651 23.3512C20.7679 23.2907 20.7093 23.2228 20.6103 23.166C20.5846 23.1513 20.5828 23.1568 20.5589 23.177C20.3159 23.3538 20.0165 23.4353 19.7175 23.4062H19.7138C19.5308 23.3729 19.3506 23.3257 19.1748 23.265C19.0409 23.2155 18.8265 23.1293 18.6981 23.2375C18.6449 23.2833 18.6578 23.3475 18.6578 23.408C18.6755 23.5944 18.6693 23.7823 18.6394 23.9672C18.6363 23.9768 18.6351 23.987 18.636 23.9971C18.637 24.0072 18.64 24.017 18.6449 24.0258L18.6559 24.0368C18.6752 24.0535 18.6976 24.066 18.7219 24.0735L18.7403 24.0808C18.7916 24.0992 18.8008 24.123 18.832 24.1872C18.8478 24.2232 18.8577 24.2616 18.8613 24.3008C18.8654 24.3388 18.8635 24.3771 18.8558 24.4145L18.8393 24.486C18.8153 24.5677 18.8205 24.6552 18.854 24.7335C18.8676 24.7738 18.8948 24.8082 18.931 24.8307L18.9493 24.838L18.9676 24.8435H19.0043L19.0409 24.8288L19.0483 24.8252C19.0661 24.8099 19.089 24.802 19.1124 24.8032L19.1308 24.8087C19.1623 24.8155 19.1906 24.8324 19.2115 24.857C19.2324 24.8815 19.2446 24.9122 19.2463 24.9443C19.2494 25.0841 19.2206 25.2226 19.1619 25.3495C19.1499 25.375 19.1286 25.3949 19.1023 25.4052C19.0761 25.4154 19.0469 25.4152 19.0208 25.4045L18.9878 25.3917C18.8898 25.3365 18.8028 25.2638 18.7311 25.1772C18.6805 25.1198 18.6491 25.048 18.6413 24.9718C18.6435 24.9171 18.6252 24.8635 18.59 24.8215C18.5723 24.8083 18.5524 24.7983 18.5313 24.7922C18.4809 24.7778 18.4361 24.7484 18.4029 24.7078C18.3591 24.6517 18.3279 24.5868 18.3114 24.5175C18.295 24.4482 18.2937 24.3762 18.3076 24.3063C18.3645 23.9137 18.3357 23.5135 18.2233 23.133C18.1999 23.0688 18.2012 22.9983 18.227 22.935L18.2563 22.8562L18.2691 22.8268C18.2766 22.8118 18.2875 22.7987 18.3008 22.7886C18.3142 22.7784 18.3297 22.7714 18.3461 22.7682L18.3993 22.7627C18.6792 22.7621 18.9574 22.7189 19.2243 22.6343C19.261 22.6223 19.2993 22.6161 19.3379 22.616L19.4718 22.6197C19.5268 22.6197 19.5818 22.5702 19.5158 22.528C19.4613 22.478 19.4099 22.4247 19.3618 22.3685C19.3518 22.353 19.3374 22.3408 19.3204 22.3336C19.3033 22.3264 19.2846 22.3245 19.2664 22.3282L19.2481 22.3373L19.2316 22.3465C19.2111 22.3646 19.1867 22.3777 19.1603 22.3849C19.1339 22.3921 19.1062 22.3932 19.0793 22.3881C19.0524 22.383 19.027 22.3718 19.0051 22.3553C18.9833 22.3389 18.9654 22.3177 18.953 22.2933C18.883 22.1778 18.8293 22.0532 18.7935 21.923C18.7622 21.7638 18.6938 21.6143 18.5936 21.4867C18.5473 21.4435 18.4922 21.4108 18.4321 21.3909C18.3719 21.3709 18.3082 21.3642 18.2453 21.3712C18.1458 21.3984 18.0605 21.4627 18.0069 21.5508L17.8914 21.7122C17.8619 21.7473 17.8422 21.7897 17.8346 21.835V21.8643L17.8493 21.923C17.8703 21.9713 17.8746 22.0253 17.8617 22.0764C17.8487 22.1274 17.8192 22.1728 17.7778 22.2053L17.6054 22.3428C17.575 22.3721 17.5556 22.4109 17.5504 22.4528L17.5284 22.5628C17.5204 22.5896 17.5185 22.6178 17.5229 22.6453L17.5266 22.6673C17.539 22.6962 17.5585 22.7215 17.5834 22.7407L17.6073 22.7627L17.6293 22.7938C17.6398 22.8148 17.6433 22.8385 17.6393 22.8616C17.6354 22.8847 17.6241 22.9059 17.6073 22.9222L17.5633 22.9607C17.4568 23.0423 17.3396 23.1089 17.215 23.1587L17.1673 23.1697C17.0976 23.1752 17.0756 23.122 17.0719 23.0597C17.0671 22.979 17.0652 22.8971 17.0664 22.814C17.0678 22.72 17.1052 22.6301 17.1709 22.5628C17.2601 22.4441 17.3066 22.2988 17.3029 22.1503C17.2988 22.0648 17.3247 21.9804 17.3763 21.912C17.4207 21.8637 17.4561 21.8078 17.4808 21.747C17.4993 21.7038 17.5234 21.6631 17.5523 21.626C17.7378 21.4018 17.9098 21.1667 18.0674 20.922C18.1664 20.7643 18.3516 20.57 18.5019 20.7882C18.542 20.8461 18.5901 20.898 18.6449 20.9422C18.7953 21.0544 18.954 21.1549 19.1198 21.2428C19.2921 21.34 19.3196 21.1658 19.3489 21.021V21.0155C19.3626 20.9558 19.3862 20.8988 19.4186 20.8468C19.523 20.6813 19.6474 20.5292 19.7889 20.394C19.8678 20.3243 19.9815 20.2547 20.064 20.1868C20.097 20.1575 20.1061 20.1538 20.1189 20.1135C20.1354 20.0732 20.163 20.0218 20.1813 19.9705C20.1996 19.9192 20.2088 19.8697 20.2253 19.8312C20.2628 19.7766 20.2901 19.7158 20.306 19.6515V19.624L20.3004 19.6112C20.2928 19.5927 20.2792 19.5772 20.2619 19.5672C20.205 19.5349 20.1404 19.5184 20.0749 19.5195H20.0694C19.9762 19.521 19.8841 19.5403 19.7981 19.5763C19.7533 19.5949 19.7177 19.6305 19.6991 19.6753C19.681 19.7184 19.6549 19.7576 19.6221 19.7908C19.5902 19.8208 19.5487 19.8384 19.505 19.8404C19.4613 19.8424 19.4183 19.8287 19.3838 19.8018C19.3398 19.7725 19.3581 19.723 19.3838 19.6863C19.4075 19.6575 19.4289 19.6268 19.4479 19.5947C19.4559 19.5808 19.4591 19.5647 19.4571 19.5488V19.5415L19.4534 19.5323L19.4443 19.5213C19.4325 19.5128 19.4189 19.5072 19.4046 19.505C19.3902 19.5027 19.3756 19.504 19.3618 19.5085L19.2096 19.558C19.193 19.5671 19.1744 19.572 19.1555 19.5723C19.1366 19.5727 19.1179 19.5684 19.1009 19.56C19.084 19.5515 19.0694 19.5391 19.0583 19.5237C19.0472 19.5084 19.04 19.4906 19.0373 19.4718C19.0308 19.4386 19.029 19.4047 19.0318 19.371C19.0329 19.35 19.0406 19.3298 19.0537 19.3134C19.0669 19.297 19.0849 19.285 19.1051 19.2793C19.1418 19.2683 19.1968 19.2482 19.1894 19.2023V19.1602L19.2114 19.1162C19.2266 19.0974 19.2453 19.0819 19.2664 19.0703C19.469 18.9371 19.6648 18.7939 19.8531 18.6413C19.8673 18.6249 19.8869 18.614 19.9084 18.6106C19.9299 18.6072 19.9519 18.6116 19.9704 18.623L19.9888 18.634C20.0738 18.6788 20.1719 18.6918 20.2656 18.6707C20.2819 18.6691 20.2975 18.6631 20.3107 18.6534C20.3239 18.6438 20.3343 18.6307 20.3408 18.6157V18.5973L20.3371 18.5863L20.3316 18.579C20.3131 18.5619 20.2913 18.5488 20.2675 18.5405L20.1611 18.502C20.1279 18.4898 20.096 18.4745 20.0658 18.4562C20.0467 18.4464 20.0316 18.4302 20.0233 18.4104C20.0149 18.3906 20.0137 18.3685 20.0199 18.348C20.0621 18.1408 20.2894 18.139 20.4618 18.1555H20.4691C20.5562 18.1543 20.6426 18.1407 20.7258 18.1152C20.8358 18.0767 20.9201 17.9923 21.0246 17.9428C21.1291 17.8933 21.2391 17.8383 21.3473 17.7962C21.3803 17.7852 21.4078 17.7925 21.4371 17.7797C21.4616 17.7692 21.4835 17.7536 21.5013 17.7338C21.577 17.6251 21.6643 17.5249 21.7616 17.435C21.896 17.3562 22.042 17.2992 22.1943 17.2663C22.2119 17.2599 22.2287 17.2562 22.2474 17.2553ZM21.4683 18.2765C21.401 18.2744 21.3344 18.2909 21.2758 18.3242C21.2593 18.3333 21.2483 18.3535 21.2611 18.3682C21.2941 18.4067 21.351 18.4232 21.3895 18.4598C21.4148 18.4847 21.4364 18.5131 21.4536 18.5442C21.4701 18.579 21.4976 18.6175 21.5141 18.6542C21.5465 18.7275 21.5741 18.8028 21.5966 18.8797C21.6408 19.0037 21.6716 19.1322 21.6883 19.2628C21.7066 19.3673 21.7011 19.4773 21.7066 19.5837V19.7322C21.7066 19.7749 21.7048 19.8177 21.7011 19.8605C21.6957 19.9202 21.6933 19.9802 21.6938 20.0402V20.1868C21.6975 20.3152 21.7176 20.4068 21.7745 20.4068C21.8277 20.4065 21.8803 20.3947 21.9284 20.372C21.9748 20.3432 22.0134 20.3033 22.0406 20.256C22.0678 20.2086 22.0828 20.1553 22.0843 20.1007C22.1334 19.7502 22.1316 19.3946 22.0788 19.0447C22.0712 18.916 22.0366 18.7904 21.9772 18.6761C21.9178 18.5617 21.835 18.4612 21.7341 18.381C21.6617 18.3153 21.5679 18.2782 21.4701 18.2765H21.4683ZM28.7283 18.5717H38.2195C38.1883 20.0842 38.1571 21.505 38.1278 22.7205H28.7228L28.7301 19.3068L28.7283 18.5717ZM28.7173 23.2357H38.1095C38.0515 25.0553 37.7146 26.8552 37.1103 28.5725C36.3903 30.586 35.4301 32.5054 34.2503 34.2888C33.0182 36.1249 31.527 37.7731 29.8228 39.182C29.1562 39.7452 28.4538 40.2645 27.7199 40.7367C26.5699 41.4367 25.3687 42.0489 24.1266 42.5682C23.716 42.7442 23.3603 42.9092 23.034 43.021C22.6801 43.1402 22.3776 43.2502 22.1649 43.307V43.0962L22.1705 29.722C22.364 29.7156 22.5573 29.7015 22.7498 29.6798C22.759 29.7073 22.7791 29.7843 22.8066 29.8632C22.8477 29.9398 22.9049 30.0066 22.9742 30.0591C23.0435 30.1116 23.1233 30.1486 23.2081 30.1675C23.3106 30.1877 23.4167 30.1802 23.5153 30.1457C23.6139 30.1112 23.7015 30.051 23.7691 29.9713C23.8641 30.0567 23.9812 30.1135 24.1071 30.1352C24.2329 30.157 24.3623 30.1427 24.4804 30.0942C24.5723 30.0699 24.6536 30.0159 24.7117 29.9407C24.7697 29.8654 24.8012 29.773 24.8013 29.678C24.813 29.5478 24.7922 29.4168 24.7408 29.2967L24.6748 29.1757C25.1548 28.9742 25.6121 28.7223 26.0388 28.424L26.0754 28.413C26.7593 28.2407 29.5075 27.2562 31.1923 27.2342C32.2315 27.2123 33.2588 27.4586 34.1751 27.9492C34.6435 28.2231 35.0656 28.5697 35.4255 28.9758C35.4365 28.9923 35.4493 29.0272 35.4933 29.0345C35.5063 29.0339 35.519 29.0299 35.5299 29.0228C35.5409 29.0157 35.5498 29.0058 35.5556 28.9942C35.6764 28.6943 35.726 28.3705 35.7005 28.0482C35.6638 27.5312 35.1505 27.1572 34.9983 27.0032C34.9928 26.9977 34.98 26.9647 35.035 26.928C35.0955 26.8718 35.1598 26.8197 35.2275 26.7722C35.523 26.5401 35.8826 26.4044 36.2578 26.3835C36.3128 26.389 36.2945 26.3102 36.2798 26.2442C36.1735 25.7858 35.519 25.4888 34.8315 25.5952C34.6028 25.6417 34.3857 25.7333 34.1928 25.8646C33.9998 25.9958 33.8349 26.1641 33.7076 26.3597C33.6948 26.3798 33.6306 26.4092 33.6049 26.3835C33.3839 26.3037 33.1579 26.2382 32.9285 26.1873C32.846 26.169 32.8899 26.1067 32.8936 26.0957C33.0296 25.8497 33.2203 25.6383 33.451 25.4778C33.7138 25.2675 34.0252 25.1263 34.3566 25.0672C34.397 25.0672 34.397 25.0122 34.386 24.9938C34.3208 24.8555 34.2251 24.7337 34.106 24.6378C33.9869 24.5418 33.8475 24.4743 33.6985 24.4402C33.4574 24.362 33.2007 24.3445 32.9513 24.3893C32.7018 24.434 32.4673 24.5397 32.2684 24.6968C31.8813 25.0191 31.5976 25.4482 31.4526 25.9307C31.427 25.9673 31.4196 25.9967 31.3866 25.9893C31.2051 25.9527 30.7541 25.9765 30.7138 25.949C30.6863 25.9362 30.6918 25.894 30.6973 25.8665C30.7732 25.6042 30.9131 25.3648 31.1043 25.1698C31.2772 24.9399 31.5073 24.7591 31.7716 24.6455C31.7875 24.6382 31.8012 24.6269 31.8114 24.6127C31.8216 24.5985 31.8279 24.5819 31.8298 24.5645C31.8316 24.5472 31.8289 24.5296 31.8219 24.5136C31.815 24.4976 31.8039 24.4836 31.7899 24.4732C31.4192 24.2811 30.9931 24.2242 30.5849 24.3122C30.1768 24.4002 29.812 24.6276 29.5533 24.9553C29.2949 25.3451 29.1063 25.7769 28.996 26.2313C28.9923 26.2478 28.9648 26.2973 28.9299 26.2973L27.9986 26.5027L27.8465 26.5375L27.8061 26.5797C28.3724 25.6698 28.6868 24.6259 28.7173 23.5547V23.2357ZM5.89228 23.3915H15.4073V23.5565C15.4257 24.9842 15.9724 26.3545 16.9418 27.4028H6.51928C6.15783 26.094 5.94746 24.7482 5.89228 23.3915ZM6.65312 27.8703H17.4019L17.6073 28.0537C18.7327 28.9982 20.1219 29.573 21.5856 29.7V31.9183H8.34895C7.78105 30.8381 7.29092 29.7188 6.88228 28.5688C6.80126 28.3382 6.72485 28.1059 6.65312 27.8722V27.8703ZM26.0571 28.402L26.0388 28.424H26.0351L26.0315 28.4203L26.0571 28.402ZM29.2435 28.7412C28.9121 28.7404 28.5882 28.8394 28.3139 29.0253C28.002 29.1949 27.7507 29.4577 27.5953 29.777C27.4207 30.2325 27.3145 30.7113 27.2799 31.1978C27.2738 31.213 27.2644 31.2267 27.2524 31.2378C27.2403 31.2489 27.2259 31.2572 27.2103 31.262C27.0027 31.3033 26.7976 31.3566 26.5961 31.4215C26.5865 31.4197 26.5774 31.4154 26.57 31.4089C26.5626 31.4025 26.5571 31.3942 26.5539 31.3848C26.4884 30.9221 26.5856 30.451 26.8289 30.052C26.9302 29.8672 27.0658 29.7036 27.2286 29.5698C27.2405 29.5622 27.2498 29.5509 27.255 29.5378C27.2602 29.5246 27.2612 29.5101 27.2577 29.4963C27.2543 29.4826 27.2466 29.4702 27.2358 29.4611C27.225 29.4519 27.2116 29.4463 27.1975 29.4452C26.7892 29.3758 26.3695 29.4497 26.0095 29.6542C25.7849 29.7785 25.5928 29.954 25.4488 30.1664C25.3048 30.3789 25.213 30.6224 25.1808 30.877C25.1381 31.2416 25.1642 31.611 25.2578 31.966C25.2578 31.977 25.2688 32.0155 25.2284 32.0228C25.0891 32.0907 24.7115 32.2887 24.5776 32.3528C24.5685 32.3565 24.5428 32.362 24.5373 32.3418C24.5029 32.2054 24.4418 32.0771 24.3574 31.9644C24.2731 31.8517 24.1672 31.7569 24.0459 31.6855C23.9149 31.6323 23.7739 31.6084 23.6327 31.6153C23.4914 31.6223 23.3534 31.66 23.2283 31.7258C23.0595 31.8217 22.922 31.9643 22.8323 32.1365C22.7696 32.2812 22.7585 32.443 22.8008 32.5949C22.8432 32.7467 22.9365 32.8794 23.0651 32.9707C23.0761 32.9817 23.0963 33.0073 23.0651 33.0165C22.9001 33.1063 22.8964 33.1265 22.7718 33.3117C22.7093 33.4444 22.6852 33.592 22.702 33.7377C22.7188 33.8835 22.776 34.0216 22.8671 34.1367C22.9358 34.2383 23.0256 34.3239 23.1304 34.3877C23.2352 34.4514 23.3525 34.4918 23.4743 34.5061C23.5961 34.5204 23.7196 34.5082 23.8363 34.4704C23.953 34.4326 24.0601 34.37 24.1504 34.287C24.1578 34.2815 24.1834 34.2962 24.1963 34.3237C24.2669 34.4305 24.3556 34.5242 24.4584 34.6005C24.5856 34.6728 24.7293 34.7109 24.8755 34.7109C25.0218 34.7109 25.1655 34.6728 25.2926 34.6005C25.4263 34.5276 25.5347 34.4158 25.6034 34.28C25.6722 34.1441 25.6981 33.9906 25.6776 33.8397C25.6745 33.6592 25.6016 33.487 25.4741 33.3593C25.4503 33.33 25.4741 33.3153 25.5364 33.275C26.6443 32.6401 27.8645 32.2255 29.1298 32.054C29.7847 31.9523 30.4523 31.966 31.1024 32.0943C31.5267 32.1911 31.9219 32.3871 32.2556 32.6663C32.5266 32.8878 32.7759 33.1345 33 33.4033C33.0747 33.4164 33.1516 33.3999 33.2145 33.3575C33.2823 33.2094 33.3196 33.0491 33.324 32.8862C33.3284 32.7233 33.2999 32.5612 33.2401 32.4097C33.0887 32.0013 32.8482 31.6318 32.5361 31.328C32.5306 31.3243 32.5306 31.3042 32.5306 31.2913C32.5233 31.2363 32.5581 31.2088 32.6259 31.1465C32.9142 30.8757 33.2701 30.6876 33.6563 30.602C33.7058 30.5983 33.726 30.5617 33.693 30.5048C33.5535 30.2504 33.3267 30.055 33.0545 29.9546C32.7823 29.8541 32.4829 29.8555 32.2116 29.9585C31.8548 30.1096 31.5591 30.3789 31.3774 30.7212C31.3664 30.7413 31.3371 30.8128 31.3096 30.7908C31.1446 30.7762 30.8659 30.7322 30.7028 30.7175C30.6276 30.7138 30.6569 30.646 30.6588 30.635C30.7262 30.4148 30.8486 30.2155 31.0145 30.0557C31.2374 29.8014 31.5159 29.6019 31.8284 29.4727C31.835 29.4724 31.8413 29.4705 31.8468 29.467C31.8523 29.4635 31.8568 29.4586 31.8598 29.4528C31.8627 29.4471 31.8641 29.4406 31.8638 29.4341C31.8634 29.4276 31.8614 29.4213 31.8578 29.4158C31.7536 29.2894 31.6237 29.1866 31.4767 29.1142C31.3297 29.0418 31.169 29.0015 31.0053 28.996C30.7965 28.9839 30.5876 29.0166 30.3925 29.0918C30.1974 29.1671 30.0207 29.2832 29.8741 29.4323C29.5227 29.8031 29.3053 30.2806 29.2563 30.789C29.2416 30.8318 29.219 30.8532 29.1884 30.8532C29.0198 30.8803 28.8495 30.8956 28.6788 30.899C28.6513 30.8917 28.6531 30.8623 28.6531 30.833C28.6555 30.5738 28.7189 30.3188 28.8383 30.0887C29.0715 29.6482 29.42 29.2794 29.8466 29.0217C29.9126 28.9758 29.9163 28.8823 29.8943 28.8713C29.6884 28.7843 29.467 28.74 29.2435 28.7412ZM8.62945 32.4353H21.5893V36.4503H11.3904C10.7936 35.7665 10.2435 35.0431 9.74412 34.2852C9.35065 33.681 8.97825 33.0634 8.62762 32.4335L8.62945 32.4353ZM27.1021 34.5913C26.9266 34.5847 26.7529 34.6286 26.6016 34.7178C26.1892 34.9343 25.877 35.3023 25.7308 35.7445C25.6458 36.0893 25.6534 36.4504 25.7528 36.7913C25.7583 36.8042 25.7748 36.8353 25.7491 36.8463C25.6061 36.9013 25.4998 36.9655 25.3586 37.0223C25.3513 37.0223 25.3146 37.0315 25.3073 37.0132C25.1881 36.8001 25.1395 36.5547 25.1685 36.3123C25.1975 36.0698 25.3026 35.8428 25.4686 35.6638C25.4998 35.6363 25.5181 35.5997 25.4539 35.5777C25.275 35.5505 25.0922 35.5687 24.9221 35.6305C24.752 35.6923 24.6002 35.7958 24.4804 35.9315C24.3435 36.0973 24.2518 36.2957 24.2143 36.5074C24.1767 36.7191 24.1945 36.9369 24.2659 37.1397C24.3038 37.3069 24.3649 37.4679 24.4475 37.6182C24.4529 37.6273 24.5024 37.6567 24.4731 37.6695L24.1981 37.8803C24.1926 37.8858 24.1725 37.895 24.1633 37.8803C24.0494 37.6714 23.8588 37.5149 23.6316 37.444C23.529 37.4195 23.4219 37.4215 23.3202 37.4497C23.2186 37.4779 23.1258 37.5315 23.0504 37.6053C22.9684 37.6855 22.9087 37.7856 22.8771 37.8958C22.8456 38.0061 22.8433 38.1226 22.8705 38.234C22.8977 38.3454 22.9534 38.4478 23.0323 38.5311C23.1111 38.6144 23.2102 38.6757 23.32 38.709C23.3328 38.7145 23.3511 38.731 23.3291 38.7457C23.1835 38.8454 23.064 38.9787 22.9808 39.1343C22.9318 39.2602 22.9205 39.3975 22.9482 39.5296C22.9758 39.6618 23.0413 39.783 23.1366 39.8787C23.2087 39.9419 23.2933 39.9891 23.385 40.0172C23.4766 40.0454 23.5732 40.0537 23.6683 40.0418C23.8107 39.9957 23.9422 39.9211 24.0547 39.8224C24.1672 39.7237 24.2585 39.6031 24.3228 39.468C24.3265 39.4625 24.3613 39.4368 24.3796 39.457C24.4976 39.6278 24.6673 39.7563 24.8636 39.8237C24.9639 39.8594 25.0719 39.8671 25.1762 39.8462C25.2805 39.8252 25.3772 39.7762 25.4558 39.7045C25.5635 39.62 25.6414 39.5032 25.678 39.3713C25.7146 39.2393 25.708 39.0991 25.6593 38.9712C25.5713 38.8106 25.4447 38.6744 25.2908 38.5752C25.267 38.5568 25.2853 38.511 25.3329 38.4743C26.0768 37.8792 26.9625 37.4876 27.9033 37.3377C28.546 37.2523 29.1996 37.3582 29.7825 37.642C30.0095 37.7766 30.2173 37.9413 30.4003 38.1315C30.4241 38.1443 30.492 38.1682 30.5158 38.1462C30.6539 38.0192 30.7376 37.8439 30.7496 37.6567C30.7615 37.4695 30.7008 37.285 30.58 37.1415C30.4744 37.0176 30.3462 36.915 30.2023 36.839L30.1894 36.8115C30.3024 36.5245 30.4936 36.2749 30.7413 36.091C30.9107 35.9827 31.0922 35.8947 31.2821 35.8288C31.3224 35.8178 31.3151 35.7922 31.2949 35.7427C31.0603 35.2055 30.1308 35.1853 29.6926 35.4677C29.4256 35.6548 29.2079 35.9039 29.0583 36.1937C29.0491 36.212 29.0363 36.267 29.0124 36.2505L28.622 36.1332C28.6146 36.1332 28.6146 36.0892 28.6183 36.0818C28.7482 35.8306 28.9286 35.6089 29.1481 35.4307C29.3677 35.2524 29.6217 35.1215 29.8943 35.046C29.9218 35.035 29.9126 35.0093 29.9071 34.9947C29.7055 34.5033 28.6953 34.5455 28.2021 34.859C27.7442 35.1634 27.4207 35.632 27.2983 36.168C27.2928 36.2047 27.3093 36.2358 27.2854 36.2413C27.1486 36.2887 27.0073 36.3225 26.8638 36.3422C26.8531 36.3413 26.8431 36.3365 26.8356 36.3287C26.8282 36.321 26.8239 36.3107 26.8234 36.3C26.787 36.0535 26.8301 35.8018 26.9463 35.5813C27.1108 35.3072 27.3105 35.0557 27.5403 34.8333C27.5479 34.8256 27.5538 34.8163 27.5577 34.8062C27.5615 34.7961 27.5633 34.7852 27.5627 34.7744C27.5622 34.7635 27.5595 34.7529 27.5547 34.7432C27.5499 34.7335 27.5431 34.7248 27.5348 34.7178C27.4035 34.6397 27.2548 34.5974 27.1021 34.5913ZM21.5911 36.9673V43.2318C21.4115 43.1732 21.1988 43.0962 20.9641 43.0173C20.6378 42.9073 20.2803 42.7405 19.8696 42.5645C18.6274 42.0446 17.4262 41.4318 16.2763 40.7312C15.5425 40.2596 14.8401 39.7409 14.1734 39.1783C13.351 38.4943 12.5756 37.7556 11.8525 36.9673H21.5874H21.5911Z" fill="#0F0F0F"/>
</svg>