<svg xmlns="http://www.w3.org/2000/svg" width="34" height="44" viewBox="0 0 34 44" fill="none">
  <path d="M19.1822 6.7155H12.9452V19.3013C12.1935 19.6619 11.374 19.9742 10.4867 20.2382C10.0183 20.373 9.54347 20.4843 9.064 20.5718V7.27467C9.064 7.27467 9.174 5.36617 8.1125 4.72083V4.4825H18.0748C18.5222 5.027 18.9237 5.76033 19.1822 6.7155ZM20.9385 23.9323C25.4577 21.7653 27.6338 17.952 27.6742 13.5813C27.7017 10.6077 26.653 8.78167 25.4797 7.81C25.4102 7.753 25.3386 7.69858 25.2652 7.64683C25.025 6.61248 24.6477 5.61487 24.1432 4.6805C24.3607 4.71228 24.5587 4.74711 24.7372 4.785C28.0152 5.48167 30.6497 7.41767 31.8963 11.154C32.912 14.201 32.4188 17.9813 30.239 21.0118C29.7238 21.7287 28.3507 23.2595 26.774 24.3888C26.488 24.5942 26.3157 24.7078 26.015 24.8967C27.9895 28.061 28.963 29.8778 30.2225 33.33C31.3225 36.344 32.1567 40.3517 32.2703 41.294C32.5453 43.5362 33.2145 43.714 33.3685 43.7598V44H25.4943V43.7617C25.7363 43.6333 27.8648 42.7607 27.8758 39.4222C27.8868 36.971 27.2892 34.2742 26.2002 31.2455C25.5375 29.4659 24.7553 27.7331 23.859 26.059L23.8333 26.0205C23.3123 26.2475 22.7785 26.444 22.2347 26.609C21.8258 25.663 21.4097 24.8068 20.9385 23.9342V23.9323ZM12.9452 23.6683V25.7143C13.541 25.6887 15.4018 25.5383 17.0775 25.212C17.457 26.07 17.787 26.884 18.0143 27.5165L18.0455 27.6045C17.2964 27.7239 16.5445 27.8253 15.7905 27.9088C14.8441 28.0113 13.8954 28.0913 12.9452 28.149V41.3673C12.9452 41.6588 13.013 43.2153 14.0268 43.7617V44H7.98233V43.7617C8.96867 43.2428 9.064 41.6588 9.064 41.3692V24.3742C10.3706 24.2125 11.6652 23.9768 12.9452 23.6683ZM13.783 2.29167L12.936 2.27883H5.06367V21.6663C5.84467 21.6315 8.75417 21.3877 10.659 20.823C17.0115 18.9438 20.0457 14.5035 20.0933 9.28583C20.1208 6.25167 19.052 4.38717 17.853 3.39717C17.1068 2.77933 16.1187 2.48783 15.4 2.3815C14.9967 2.30083 14.0983 2.28983 13.783 2.28983V2.29167ZM1.10367 37.6878V2.849C1.10367 2.849 1.21733 0.902 0.132 0.243833V0H13.5997C14.7235 0.00183333 16.1938 0.1155 17.0958 0.311667C20.4398 1.02117 23.1293 2.99567 24.4017 6.809C25.4375 9.91833 24.9352 13.7757 22.7113 16.8685C22.1852 17.6018 20.7863 19.1602 19.173 20.3152C18.9214 20.4962 18.6634 20.668 18.3993 20.8303C20.416 24.0607 21.4078 25.9142 22.6948 29.4378C23.8168 32.5123 24.6675 36.6043 24.7848 37.5632C25.0617 39.8512 25.7473 40.0822 25.9032 40.1298V40.3718H17.8695L17.8677 40.128C18.117 39.996 20.2877 39.0592 20.2987 35.651C20.3115 33.1522 19.701 30.3985 18.59 27.3093C17.9151 25.4922 17.1157 23.7237 16.1975 22.0165L16.1718 21.9762C15.1048 22.462 12.8498 23.1202 11.3868 23.397C10.34 23.595 9.2785 23.7582 7.96767 23.9048C6.8255 24.0332 5.71817 24.1083 5.06367 24.1505V37.6878C5.06367 37.983 5.13333 39.5725 6.16917 40.1298V40.3718H0V40.1298C1.0065 39.5982 1.10367 37.9848 1.10367 37.6878Z" fill="#0F0F0F"/>
</svg>
