<svg xmlns="http://www.w3.org/2000/svg" width="44" height="41" viewBox="0 0 44 41" fill="none">
    <path d="M19.8917 1.11876e-05C14.57 0.138594 9.51268 2.3496 5.79715 6.16204C2.08163 9.97448 0.00154165 15.087 6.59663e-07 20.4105V20.4838C-0.00135154 25.8067 2.07619 30.9196 5.78986 34.7329C9.50352 38.5463 14.5596 40.7584 19.8807 40.898H20.3995C22.9344 40.9045 25.4478 40.4331 27.808 39.5083C27.9457 39.4566 28.0643 39.3641 28.1482 39.2433C28.232 39.1224 28.2771 38.9789 28.2773 38.8318V28.6312C28.2759 28.5713 28.2606 28.5127 28.2325 28.4598C28.2044 28.4069 28.1644 28.3614 28.1157 28.3267C28.0669 28.292 28.0107 28.2691 27.9516 28.2599C27.8925 28.2507 27.832 28.2554 27.775 28.2737C25.5713 29.1702 23.7142 30.0282 20.515 30.0282C17.9769 30.0282 15.5427 29.0199 13.748 27.2252C11.9533 25.4305 10.945 22.9963 10.945 20.4582C10.945 17.9201 11.9533 15.4859 13.748 13.6912C15.5427 11.8964 17.9769 10.8882 20.515 10.8882C23.7142 10.8882 25.5713 11.7443 27.775 12.639C27.8317 12.6572 27.8919 12.662 27.9507 12.653C28.0096 12.644 28.0656 12.6214 28.1143 12.5871C28.1629 12.5529 28.203 12.5077 28.2313 12.4553C28.2596 12.4029 28.2754 12.3447 28.2773 12.2852V2.07718C28.2774 1.92978 28.2326 1.78587 28.1487 1.66466C28.0648 1.54345 27.946 1.45071 27.808 1.39884C25.4507 0.471896 22.9398 -0.00265682 20.4068 1.11876e-05H19.8917ZM30.6405 3.33668V37.565C30.6416 37.6448 30.6645 37.7228 30.7068 37.7905C30.7491 37.8581 30.8092 37.9129 30.8804 37.9488C30.9517 37.9848 31.0314 38.0004 31.111 37.9942C31.1906 37.9879 31.2669 37.96 31.3317 37.9133C37.5888 34.023 44 22.9533 44 20.46C44 17.9667 37.5888 6.90068 31.3317 3.00301C31.2679 2.957 31.1929 2.92908 31.1146 2.9222C31.0362 2.91532 30.9575 2.92973 30.8867 2.96392C30.8159 2.9981 30.7556 3.05079 30.7123 3.11641C30.6689 3.18202 30.6441 3.25813 30.6405 3.33668Z" fill="#0F0F0F"/>
</svg>