<svg xmlns="http://www.w3.org/2000/svg" width="44" height="44" viewBox="0 0 44 44" fill="none">
  <path d="M22 9.1355C27.5073 9.1355 33.4107 10.2575 38.1077 13.2403C41.1602 15.191 44 18.15 44 22.0037C44 26.5063 40.1555 29.7807 36.4723 31.6965C32.0888 33.9662 26.9097 34.8645 22 34.8645C16.4945 34.8645 10.6022 33.7553 5.90333 30.7615C2.85267 28.809 0 25.8518 0 22.0055C0 17.4827 3.83533 14.2212 7.52767 12.3017C11.924 10.0357 17.0922 9.1355 22 9.1355ZM21.9542 10.5032C16.8337 10.5032 11.3172 11.462 6.875 14.1387C4.081 15.8107 1.32 18.4415 1.32 21.9358C1.32 26.0407 5.06 28.9135 8.404 30.5635C12.5437 32.5838 17.3818 33.3685 21.9542 33.3685C27.0838 33.3685 32.604 32.4097 37.0462 29.733C39.8273 28.05 42.5993 25.432 42.5993 21.9358C42.5993 17.8237 38.8685 14.9453 35.5153 13.31C31.3757 11.286 26.5357 10.5032 21.9542 10.5032ZM2.63083 19.0942L11.0587 17.6568L13.596 12.1513L16.1223 17.655L24.5483 19.0923L16.1223 20.5443L13.596 26.0627L11.0587 20.5443L2.63083 19.0942ZM21.1585 23.2907L24.8765 22.638L25.9857 20.1465L27.0967 22.638L30.8147 23.2907L27.0967 23.9323L25.9857 26.4257L24.8765 23.9323L21.1585 23.2907ZM28.8512 16.6522L32.5692 16.0105L33.6783 13.508L34.7893 16.0087L38.5073 16.6503L34.7893 17.3048L33.6783 19.7982L32.5673 17.3048L28.8512 16.6522ZM24.8783 28.435L28.5817 27.7933L29.6945 25.2908L30.8165 27.7933L34.5327 28.435L30.8165 29.0895L29.6945 31.5828L28.5835 29.0895L24.8783 28.435ZM13.4567 29.3352L17.1747 28.6935L18.2967 26.1892L19.4058 28.6935L23.1238 29.3352L19.4058 29.9897L18.2967 32.4812L17.1747 29.9897L13.4567 29.3352ZM32.1493 23.188L35.8563 22.5335L36.9655 20.042L38.0875 22.5335L41.8055 23.188L38.0875 23.8297L36.9655 26.3175L35.8545 23.8297L32.1493 23.188Z" fill="#0F0F0F"/>
</svg>
