<svg xmlns="http://www.w3.org/2000/svg" width="44" height="44" viewBox="0 0 44 44" fill="none">
  <path d="M22 9.83033L26.5375 4.28267C26.5375 4.28267 34.32 4.44767 42.0677 8.04833C40.084 11.0477 36.1442 12.518 36.1442 12.518C35.8765 9.87983 34.0285 9.23633 28.1618 9.23633L22 44L15.8015 9.229C9.9715 9.229 8.1235 9.878 7.854 12.5143C7.854 12.5143 3.91967 11.0568 1.93417 8.05933C9.68 4.45683 17.4625 4.29 17.4625 4.29L22 9.83033ZM22 9.83033L21.9927 9.834H22V9.83033ZM22 2.68217C28.2608 2.62717 35.431 3.65017 42.768 6.86217C43.7488 5.0875 44 4.30467 44 4.30467C35.9792 1.122 28.468 0.0275 22 0C15.532 0.0275 8.02083 1.11833 0 4.3065C0 4.3065 0.3575 5.269 1.232 6.86583C8.569 3.6465 15.7392 2.63083 22 2.67667V2.68217Z" fill="#0F0F0F"/>
</svg>
