<svg xmlns="http://www.w3.org/2000/svg" width="44" height="44" viewBox="0 0 44 44" fill="none">
  <path d="M22 7.05469C9.5755 7.05469 0 13.3797 0 22C0 30.6204 9.57733 36.9454 22 36.9454C34.4227 36.9454 44 30.6204 44 22C44 13.3797 34.4245 7.05469 22 7.05469ZM35.4457 14.0929C35.4457 16.0729 32.2832 17.6 27.2177 18.2105C26.741 13.4805 25.3752 10.3657 23.6188 9.20335C29.0235 9.54069 35.4457 11.4529 35.4457 14.0929ZM22 30.0685C20.24 30.0685 18.799 27.3185 18.6853 22.022C19.7438 22.1088 20.8487 22.1528 22 22.154C23.1513 22.154 24.2556 22.11 25.3128 22.022C25.201 27.3204 23.76 30.0685 22 30.0685ZM22 18.5039C20.9171 18.5039 19.8843 18.4709 18.9017 18.4049C19.3802 15.2369 20.5883 12.6299 22 12.6299C23.4117 12.6299 24.618 15.2369 25.0965 18.4049C24.1151 18.4696 23.0829 18.5026 22 18.5039ZM20.383 9.19969C18.6303 10.3602 17.2553 13.4769 16.7823 18.2105C11.7168 17.6 8.5525 16.0729 8.5525 14.0929C8.5525 11.4529 14.9765 9.52785 20.383 9.19969ZM3.7345 21.4134C3.73053 19.3229 4.40471 17.2875 5.65583 15.6127C6.15083 18.4489 10.2795 20.8945 16.6045 21.791V22C16.6045 28.9154 18.216 33.3722 20.4307 34.7784C11.0678 34.1899 3.7345 28.3984 3.7345 21.4134ZM23.5767 34.7784C25.7895 33.3722 27.4028 28.9154 27.4028 22V21.7892C33.7223 20.8945 37.8602 18.4415 38.3515 15.6109C39.6049 17.2853 40.2798 19.3218 40.2747 21.4134C40.2673 28.3984 32.9285 34.1899 23.5767 34.7784Z" fill="#0F0F0F"/>
</svg>
