<svg xmlns="http://www.w3.org/2000/svg" width="44" height="44" viewBox="0 0 44 44" fill="none">
  <path d="M22 3.66669C18.374 3.66669 14.8294 4.74192 11.8145 6.75641C8.79961 8.7709 6.44978 11.6342 5.06218 14.9842C3.67457 18.3341 3.31151 22.0204 4.0189 25.5767C4.7263 29.133 6.47238 32.3997 9.03634 34.9636C11.6003 37.5276 14.867 39.2737 18.4233 39.9811C21.9796 40.6885 25.6659 40.3254 29.0158 38.9378C32.3658 37.5502 35.2291 35.2004 37.2436 32.1855C39.2581 29.1706 40.3333 25.626 40.3333 22C40.3333 19.5925 39.8591 17.2085 38.9378 14.9842C38.0164 12.7599 36.666 10.7388 34.9636 9.0364C33.2612 7.33399 31.2401 5.98357 29.0158 5.06223C26.7915 4.14089 24.4075 3.66669 22 3.66669ZM22 6.82002C23.5104 6.81943 25.0125 7.04372 26.4568 7.48552L22 17.4919L17.545 7.48369C18.9888 7.04269 20.4903 6.81902 22 6.82002ZM6.81997 22C6.81893 20.4304 7.06073 18.8702 7.5368 17.3745L15.7666 35.8417C13.1008 34.6411 10.8383 32.6962 9.25122 30.2408C7.66411 27.7853 6.81987 24.9238 6.81997 22ZM22 37.18C20.4903 37.181 18.9888 36.9573 17.545 36.5163L22 26.5064L26.4568 36.5145C25.0125 36.9563 23.5104 37.1806 22 37.18ZM24.2201 22.4767H19.7816L16.8025 29.1702L9.66713 13.1469C10.8774 11.4652 12.4183 10.0484 14.1955 8.98335L19.7835 21.5307H24.2201L29.8045 8.98335C31.5815 10.0502 33.1218 11.4689 34.331 13.1524L27.1993 29.172L24.2201 22.4767ZM28.2333 35.8417L36.4613 17.3745C37.5931 20.9261 37.3802 24.7697 35.8632 28.1746C34.3462 31.5795 31.6308 34.3081 28.2333 35.8417Z" fill="#0F0F0F"/>
</svg>