<svg xmlns="http://www.w3.org/2000/svg" width="44" height="44" viewBox="0 0 44 44" fill="none">
  <path d="M30.7615 5.26901V5.75668C31.8151 6.33012 32.8099 7.00558 33.7315 7.77335L31.2492 10.2447C32.1872 10.9779 33.0325 11.8225 33.7663 12.76L36.245 10.2813C37.0076 11.2023 37.6827 12.1923 38.2617 13.2385H38.7383V5.26901H30.7615ZM36.3312 12.1L34.562 13.8692C36.5672 16.9709 37.3535 20.7051 36.7693 24.3521C36.1852 27.9991 34.2719 31.3009 31.3981 33.6211C28.5244 35.9414 24.8936 37.1159 21.2054 36.9184C17.5171 36.7209 14.0325 35.1654 11.423 32.5515C8.81346 29.9376 7.26369 26.4505 7.07231 22.7619C6.88093 19.0734 8.06149 15.4445 10.3865 12.5746C12.7115 9.70475 16.0164 7.79692 19.6644 7.21879C23.3124 6.64065 27.0452 7.43313 30.1437 9.44351L31.9128 7.67435C28.3364 5.19671 23.9626 4.14628 19.651 4.7295C15.3394 5.31271 11.4019 7.48741 8.6122 10.8262C5.82251 14.165 4.38242 18.4264 4.57495 22.773C4.76747 27.1195 6.57869 31.2369 9.65264 34.316C12.7266 37.395 16.841 39.2131 21.1872 39.4128C25.5335 39.6125 29.7973 38.1795 33.1407 35.3954C36.4841 32.6112 38.6653 28.6773 39.2557 24.3667C39.846 20.0561 38.8029 15.6806 36.3312 12.1ZM30.7065 21.8002C30.7065 22.6967 31.4307 23.4117 32.8808 23.4117C34.331 23.4117 35.046 22.6967 35.046 21.8002C35.046 20.9037 34.287 20.207 32.8717 20.207C31.4563 20.207 30.7065 20.9147 30.7065 21.8002ZM32.9065 20.6892C33.3887 20.6892 33.6398 21.219 33.6398 21.8075C33.6288 22.3575 33.3997 22.9387 32.8698 22.9277C32.34 22.9167 32.1255 22.3483 32.1365 21.7818C32.1475 21.2153 32.4133 20.68 32.8992 20.6892H32.9065ZM15.0975 21.8002C15.0975 22.6967 15.8308 23.4117 17.2718 23.4117C18.7128 23.4117 19.437 22.6967 19.437 21.8002C19.437 20.9037 18.678 20.207 17.2627 20.207C15.8473 20.207 15.0975 20.9147 15.0975 21.8002ZM18.018 21.8002C18.018 22.3502 17.7778 22.9313 17.248 22.9203C16.7182 22.9093 16.5037 22.341 16.5147 21.7745C16.5257 21.208 16.8062 20.6745 17.292 20.6745C17.7778 20.6745 18.029 21.219 18.018 21.8167V21.8002ZM11.8837 20.273H8.82933L8.8275 20.7405H9.52783L10.9487 23.32L12.5932 23.3218L13.9883 20.7405H14.6887V20.273H12.584V20.7405H13.1908L12.1752 22.6197L11.1448 20.7405H11.8837V20.273ZM26.5632 23.32L28.2058 23.3218L29.6028 20.7405H30.3032V20.273H28.1967V20.7405H28.8072L27.7878 22.6197L26.7575 20.7405H27.4963V20.273H24.4438L24.442 20.7405H25.1423L26.5632 23.32ZM20.3023 23.3182H24.53V21.9083H24.0662C24.0681 22.0373 24.0431 22.1652 23.9927 22.2839C23.9424 22.4026 23.8678 22.5095 23.7737 22.5977C23.6796 22.6859 23.5682 22.7534 23.4465 22.796C23.3248 22.8387 23.1955 22.8554 23.067 22.8452H22.4162V20.7387H23.1183V20.2712H20.3023V20.7387H21.0118V22.8452H20.3005L20.3023 23.3182Z" fill="#0F0F0F"/>
</svg>
