<svg xmlns="http://www.w3.org/2000/svg" width="24" height="24" viewBox="0 0 24 24" fill="none">
    <path d="M8 18C8.45849 19.7252 10.0755 21 12 21C13.9245 21 15.5415 19.7252 16 18M19 13.5279V10C19 6.13401 15.866 3 12 3C8.13401 3 5 6.13401 5 10V13.5279C5 13.8384 4.92771 14.1446 4.78885 14.4223L3.72361 16.5528C3.39116 17.2177 3.87465 18 4.61803 18H19.382C20.1253 18 20.6088 17.2177 20.2764 16.5528L19.2111 14.4223C19.0723 14.1446 19 13.8384 19 13.5279Z" stroke="#0C0C0C" stroke-width="2" stroke-linejoin="round"/>
</svg>