<svg xmlns="http://www.w3.org/2000/svg" width="18" height="18" viewBox="0 0 18 18" fill="none">
    <path d="M4.78925 8.10538C4.46089 7.44994 3.78299 7 3 7C1.89543 7 1 7.89543 1 9C1 10.1046 1.89543 11 3 11C3.78299 11 4.46089 10.5501 4.78925 9.89462M4.78925 8.10538C4.9241 8.37457 5 8.67842 5 9C5 9.32158 4.9241 9.62543 4.78925 9.89462M4.78925 8.10538L13.2108 3.89462M4.78925 9.89462L13.2108 14.1054M13.2108 14.1054C13.0759 14.3746 13 14.6784 13 15C13 16.1046 13.8954 17 15 17C16.1046 17 17 16.1046 17 15C17 13.8954 16.1046 13 15 13C14.217 13 13.5391 13.4499 13.2108 14.1054ZM13.2108 3.89462C13.5391 4.55006 14.217 5 15 5C16.1046 5 17 4.10457 17 3C17 1.89543 16.1046 1 15 1C13.8954 1 13 1.89543 13 3C13 3.32158 13.0759 3.62543 13.2108 3.89462Z" stroke="#CCCCCC" stroke-width="2"/>
</svg>