<svg xmlns="http://www.w3.org/2000/svg" width="32" height="32" viewBox="0 0 32 32" fill="none">
    <path d="M20.844 15.781H17.525V27.606H12.613V15.781H10.277V11.602H12.613V8.904C12.613 6.965 13.534 3.944 17.573 3.944L21.215 3.957V8.014H18.569C18.141 8.014 17.529 8.228 17.529 9.149V11.607H21.272L20.844 15.781ZM22.147 0H9.396C4.212 0 0 4.217 0 9.397V22.148C0 27.332 4.212 31.549 9.396 31.549H22.147C27.332 31.549 31.549 27.332 31.549 22.148V9.397C31.549 4.217 27.332 0 22.147 0Z" fill="white"/>
</svg>