<svg xmlns="http://www.w3.org/2000/svg" width="32" height="32" viewBox="0 0 32 32" fill="none">
    <path d="M21.9062 11.3089C21.0962 11.3089 20.4402 10.6719 20.4402 9.88589C20.4402 9.09989 21.0972 8.46189 21.9062 8.46189C22.7162 8.46189 23.3722 9.09889 23.3722 9.88589C23.3722 10.6729 22.7162 11.3089 21.9062 11.3089ZM15.7752 21.7209C12.4002 21.7209 9.65524 19.0569 9.65524 15.7809C9.65524 12.5049 12.4012 9.84089 15.7752 9.84089C19.1492 9.84089 21.8952 12.5049 21.8952 15.7809C21.8952 19.0569 19.1492 21.7209 15.7752 21.7209ZM20.5562 6.60889H10.9922C8.41424 6.60889 6.32324 8.63789 6.32324 11.1399V20.4219C6.32324 22.9249 8.41324 24.9529 10.9922 24.9529H20.5562C23.1342 24.9529 25.2252 22.9249 25.2252 20.4219V11.1399C25.2252 8.63689 23.1342 6.60889 20.5562 6.60889Z" fill="white"/>
    <path d="M15.7751 12.1519C13.7101 12.1519 12.0361 13.7769 12.0361 15.7819C12.0361 17.7869 13.7101 19.4109 15.7751 19.4109C17.8401 19.4109 19.5151 17.7859 19.5151 15.7819C19.5151 13.7779 17.8411 12.1519 15.7751 12.1519Z" fill="white"/>
    <path d="M27.606 20.4222C27.606 24.1952 24.444 27.2642 20.557 27.2642H10.993C7.106 27.2642 3.944 24.1952 3.944 20.4222V11.1392C3.944 7.36719 7.106 4.29819 10.993 4.29819H20.557C24.444 4.29819 27.606 7.36719 27.606 11.1392V20.4222ZM22.148 0.471191H9.396C4.212 0.471191 0 4.56419 0 9.59119V21.9672C0 26.9992 4.212 31.0932 9.396 31.0932H22.148C27.332 31.0932 31.55 27.0002 31.55 21.9672V9.59119C31.55 4.56419 27.333 0.471191 22.148 0.471191Z" fill="white"/>
</svg>