<svg xmlns="http://www.w3.org/2000/svg" width="32" height="32" viewBox="0 0 32 32" fill="none">
    <path d="M17.0129 14.3091V14.2671C17.0039 14.2811 16.9919 14.2961 16.9829 14.3091H17.0129Z" fill="white"/>
    <path d="M26.092 25.3502H21.668V18.4412C21.668 16.7062 21.029 15.5212 19.427 15.5212C18.205 15.5212 17.478 16.3192 17.158 17.0912C17.042 17.3672 17.011 17.7502 17.011 18.1382V25.3502H12.587C12.587 25.3502 12.647 13.6482 12.587 12.4372H17.011V14.2672C17.599 13.3892 18.647 12.1342 20.998 12.1342C23.909 12.1342 26.091 13.9802 26.091 17.9462V25.3512L26.092 25.3502ZM7.931 10.6752H7.902C6.418 10.6752 5.457 9.68319 5.457 8.44319C5.457 7.17619 6.447 6.21219 7.961 6.21219C9.475 6.21219 10.405 7.17619 10.434 8.44319C10.434 9.68319 9.474 10.6752 7.931 10.6752ZM5.72 25.3502V12.4372H10.142V25.3502H5.72ZM22.148 0.471191H9.396C4.212 0.471191 0 4.56419 0 9.59119V21.9672C0 26.9992 4.212 31.0922 9.396 31.0922H22.148C27.333 31.0922 31.55 26.9992 31.55 21.9672V9.59119C31.55 4.56419 27.333 0.471191 22.148 0.471191Z" fill="white"/>
</svg>