<svg xmlns="http://www.w3.org/2000/svg" width="24" height="24" viewBox="0 0 24 24" fill="none">
    <path d="M12 14C14.206 14 16 12.206 16 10C16 7.794 14.206 6 12 6C9.794 6 8 7.794 8 10C8 12.206 9.794 14 12 14ZM12 8C13.103 8 14 8.897 14 10C14 11.103 13.103 12 12 12C10.897 12 10 11.103 10 10C10 8.897 10.897 8 12 8Z" fill="#CCCCCC"/>
    <path d="M11.42 21.814C11.5893 21.9346 11.7921 21.9994 12 21.9994C12.2079 21.9994 12.4106 21.9346 12.58 21.814C12.884 21.599 20.029 16.44 20 10C20 5.589 16.411 2 12 2C7.58897 2 3.99997 5.589 3.99997 9.995C3.97097 16.44 11.116 21.599 11.42 21.814ZM12 4C15.309 4 18 6.691 18 10.005C18.0187 13.9583 14.5222 17.5522 12.6188 19.2139C12.2626 19.5248 11.7375 19.5247 11.3814 19.2135C9.47857 17.5509 5.98126 13.956 5.99997 10C5.99997 6.691 8.69097 4 12 4Z" fill="#CCCCCC"/>
</svg>