<svg xmlns="http://www.w3.org/2000/svg" width="20" height="20" viewBox="0 0 20 20" fill="none">
    <path d="M7.9565 7.90251C8.12103 7.43488 8.44579 7.04057 8.87325 6.7894C9.3007 6.53823 9.80328 6.44641 10.292 6.53022C10.7806 6.61402 11.2239 6.86804 11.5432 7.24727C11.8625 7.6265 12.0372 8.10648 12.0365 8.60219C12.0365 10.0016 10.6928 10.0016 10 11.0511M9.993 13.5H10M19 9.99995C19 14.9705 14.9706 18.9999 10 18.9999C5.02944 18.9999 0.999999 14.9705 0.999999 9.99995C0.999999 5.02938 5.02944 0.999947 10 0.999947C14.9706 0.999947 19 5.02938 19 9.99995Z" stroke="#CCCCCC" stroke-width="2" stroke-linecap="round" stroke-linejoin="round"/>
</svg>