<svg xmlns="http://www.w3.org/2000/svg" width="32" height="32" viewBox="0 0 32 32" fill="none">
    <path d="M19.3729 15.993L12.9029 12.851C12.7299 12.767 12.5259 12.887 12.5259 13.073V19.173C12.5259 19.356 12.7249 19.476 12.8979 19.397L19.3679 16.44C19.5629 16.351 19.5659 16.086 19.3739 15.993H19.3729Z" fill="white"/>
    <path d="M27.605 19.431C27.605 22.032 25.405 24.141 22.691 24.141H8.858C6.144 24.141 3.944 22.032 3.944 19.431V12.803C3.944 10.202 6.144 8.09305 8.858 8.09305H22.691C25.406 8.09305 27.605 10.202 27.605 12.803V19.431ZM22.148 0.998047H9.396C4.212 0.998047 0 5.04005 0 10.004V22.225C0 27.194 4.212 31.236 9.396 31.236H22.148C27.333 31.236 31.55 27.194 31.55 22.225V10.004C31.55 5.04005 27.333 0.998047 22.148 0.998047Z" fill="white"/>
</svg>